<?xml version="1.0" encoding="utf-8"?>
<svg viewBox="0 0 178.1 383.4" style="enable-background:new 0 0 178.1 383.4;" xmlns="http://www.w3.org/2000/svg">
  <defs>
    <style type="text/css">.st0{fill:#FFA8A7;}
	.st1{fill:#003366;}
	.st2{opacity:0.35;enable-background:new    ;}
	.st3{opacity:0.45;enable-background:new    ;}
	.st4{opacity:0.7;fill:#FFFFFF;enable-background:new    ;}
	.st5{opacity:0.55;enable-background:new    ;}
	.st6{fill:#455A64;}
	.st7{fill:#263238;}
	.st8{fill:#37474F;}
	.st9{fill:#F28F8F;}
	.st10{opacity:0.1;enable-background:new    ;}
	.st11{opacity:0.5;enable-background:new    ;}
	.st12{opacity:0.8;enable-background:new    ;}
	.st13{opacity:0.3;enable-background:new    ;}
	.st14{opacity:0.2;enable-background:new    ;}
	.st15{opacity:0.6;fill:#003366;enable-background:new    ;}</style>
  </defs>
 <g class="layer">
  <title>Layer 1</title>
  <g stroke="null">
   <g stroke="null" id="svg_1">
    <g stroke="null" id="svg_2">
     <g stroke="null" id="svg_7">
      <polygon stroke="null" points="87.28072357177734,342.76422119140625 93.40377807617188,340.440185546875 91.38135528564453,336.3171691894531 87.61591339111328,339.8367919921875 87.28072357177734,342.76422119140625 "/>
      <path stroke="null" fill="#263238" d="m80.87835,331.78077s-0.22347,3.97774 -0.26816,5.22916s5.32972,5.11743 6.70406,5.75431l0.3352,-2.92744a22.83849,22.83849 0 0 1 3.10621,4.72636c1.03913,1.77657 2.36877,5.15095 5.21799,7.4415c4.23473,3.35203 10.81588,5.10626 17.53111,5.31855s10.53654,-1.45255 12.43602,-2.90509s2.49167,-3.15091 2.01122,-4.83809s-47.07365,-17.79927 -47.07365,-17.79927z"/>
      <path stroke="null" fill="#37474f" d="m98.75583,318.12685l0.06704,-2.3129c1.24025,0 1.39668,3.35203 3.21795,6.2236a59.93426,59.93426 0 0 0 9.49741,11.96674c6.82696,6.12304 12.91648,9.9667 15.95565,12.72653c4.0783,3.6984 -3.028,9.63149 -13.96678,9.07282c-5.44146,-0.27934 -15.0953,-2.94978 -17.82162,-6.13421s-4.46937,-8.14543 -6.6035,-10.45833s-6.86048,-4.6258 -8.22364,-7.43033c-0.74862,-1.54193 -0.36872,-5.16212 0.05587,-8.22364c0.39107,-2.82688 0.45811,-7.13982 2.05591,-6.79344l0.12291,1.44137c0.65923,1.22908 2.17882,3.26264 6.5588,3.97774c2.17882,0.34638 8.71527,0.51398 9.084,-4.05595z"/>
      <path stroke="null" d="m93.19146,322.27219c2.08943,-0.18995 4.33529,-0.8827 5.20682,-2.75984c0,0 0,0 0,-0.06704a5.26268,5.26268 0 0 0 1.4302,4.46937c1.96652,2.23469 14.41372,18.26855 14.41372,18.26855s-11.57567,-13.19582 -13.78801,-15.6428c-3.28499,-3.67606 -4.32412,-4.10065 -7.30742,-4.19004l0.04469,-0.07821z"/>
      <path stroke="null" d="m95.94013,326.51809a0.67041,0.67041 0 1 1 -0.59219,-0.72627a0.64806,0.64806 0 0 1 0.59219,0.72627z"/>
      <path stroke="null" d="m99.19159,330.06007a0.68158,0.68158 0 0 1 -0.73745,0.59219a0.67041,0.67041 0 0 1 0.13408,-1.32964a0.68158,0.68158 0 0 1 0.60337,0.73745z"/>
      <path stroke="null" d="m102.43189,333.59087a0.65923,0.65923 0 0 1 -0.73745,0.59219a0.65923,0.65923 0 1 1 0.14525,-1.31846a0.64806,0.64806 0 0 1 0.59219,0.72627z"/>
      <path stroke="null" d="m105.68335,337.13284a0.68158,0.68158 0 0 1 -0.73745,0.59219a0.67041,0.67041 0 1 1 0.14525,-1.32964a0.67041,0.67041 0 0 1 0.59219,0.73745z"/>
      <path stroke="null" d="m108.93482,340.66365a0.67041,0.67041 0 1 1 -0.60337,-0.72627a0.67041,0.67041 0 0 1 0.60337,0.72627z"/>
      <path stroke="null" fill="#263238" d="m95.25855,326.71921a0.36872,0.36872 0 0 1 -0.17877,-0.07821a0.26816,0.26816 0 0 1 0,-0.3799a11.02817,11.02817 0 0 1 7.55324,-3.01683l0,0a0.26816,0.26816 0 0 1 0.24582,0.27934a0.25699,0.25699 0 0 1 -0.27934,0.25699a10.59241,10.59241 0 0 0 -7.13982,2.8604a0.3352,0.3352 0 0 1 -0.20112,0.07821z"/>
      <path stroke="null" fill="#263238" d="m98.55471,330.23884a0.26816,0.26816 0 0 1 -0.17877,-0.07821a0.27934,0.27934 0 0 1 0,-0.3799a11.03935,11.03935 0 0 1 7.55324,-3.00565l0,0a0.26816,0.26816 0 1 1 0,0.52515c-3.97774,-0.20112 -7.11747,2.83805 -7.15099,2.8604a0.24582,0.24582 0 0 1 -0.22347,0.07821z"/>
      <path stroke="null" fill="#263238" d="m101.75031,333.79199a0.29051,0.29051 0 0 1 -0.1676,-0.07821a0.25699,0.25699 0 0 1 0,-0.3799a11.02817,11.02817 0 0 1 7.55324,-3.01683l0,0a0.27934,0.27934 0 0 1 0.25699,0.27934a0.26816,0.26816 0 0 1 -0.29051,0.25699a10.62593,10.62593 0 0 0 -7.13982,2.8604a0.29051,0.29051 0 0 1 -0.2123,0.07821z"/>
      <path stroke="null" fill="#263238" d="m105.00178,337.32279a0.26816,0.26816 0 0 1 -0.17877,-0.07821a0.27934,0.27934 0 0 1 0,-0.3799a11.03935,11.03935 0 0 1 7.55324,-3.00565l0,0a0.25699,0.25699 0 0 1 0.24582,0.27934a0.26816,0.26816 0 0 1 -0.27934,0.24582c-3.97774,-0.20112 -7.11747,2.83805 -7.15099,2.8604a0.24582,0.24582 0 0 1 -0.18995,0.07821z"/>
      <path stroke="null" fill="#263238" d="m108.24207,340.86477a0.3352,0.3352 0 0 1 -0.1676,-0.07821a0.26816,0.26816 0 0 1 0,-0.3799a11.02817,11.02817 0 0 1 7.55324,-3.01683l0,0a0.26816,0.26816 0 0 1 0.25699,0.27934a0.27934,0.27934 0 0 1 -0.29051,0.25699c-3.96657,-0.2123 -7.1063,2.82688 -7.13982,2.8604a0.29051,0.29051 0 0 1 -0.2123,0.07821z"/>
      <path stroke="null" fill="#263238" d="m37.10086,361.97137c-0.92739,5.20682 -2.16764,8.58119 -4.40233,11.44159s-6.25712,3.17325 -9.24042,2.54754a12.76005,12.76005 0 0 1 -9.922,-9.74323c-0.96091,-3.58667 -0.30168,-7.69849 1.11734,-12.45837l22.44742,8.21247z"/>
      <path stroke="null" fill="#37474f" d="m25.45815,321.9705c-1.47489,-0.06704 -2.75984,6.91635 -4.46937,13.86622c-1.8101,7.4415 -4.63697,11.38572 -6.0113,16.39142c-1.88831,6.92752 -1.77657,10.16782 0.20112,14.73775s12.29077,10.15665 17.36351,4.53641c4.14534,-4.56993 4.94983,-10.05608 5.47498,-17.1959a179.51228,179.51228 0 0 1 1.82127,-18.01156c0.91622,-5.26268 1.89948,-10.34659 0.69275,-11.09521c-0.18995,0.77097 -0.40224,1.74305 -0.60337,2.49167c-0.14525,0.58102 -0.63689,3.43024 -1.46372,3.35203a10.15665,10.15665 0 0 1 0.22347,-2.00004a2.36877,2.36877 0 0 0 -0.20112,-1.75423a2.79336,2.79336 0 0 0 -1.54193,-0.91622a44.69371,44.69371 0 0 0 -4.30177,-1.19556c-0.72627,-0.14525 -1.45255,-0.26816 -2.23469,-0.34638a23.95583,23.95583 0 0 0 -3.87718,-0.30168a1.31846,1.31846 0 0 0 -0.8827,0.62571a2.41346,2.41346 0 0 0 -0.17877,0.79331a5.70962,5.70962 0 0 1 -0.35755,1.4302c-0.07821,0.20112 -0.24582,0.44694 -0.45811,0.36872a0.42459,0.42459 0 0 1 -0.17877,-0.45811c0.08939,-0.84918 0.27934,-1.46372 0.43576,-2.44698c0.06704,-0.45811 0.22347,-1.11734 0.27934,-1.53076s0.18995,-0.84918 0.26816,-1.34081z"/>
      <path stroke="null" d="m20.19546,354.66395a0.51398,0.51398 0 0 0 0.39107,0.61454a0.52515,0.52515 0 1 0 -0.39107,-0.61454z"/>
      <path stroke="null" d="m21.26811,349.83703a0.51398,0.51398 0 0 0 0.39107,0.61454a0.53632,0.53632 0 0 0 0.62571,-0.39107a0.52515,0.52515 0 0 0 -0.40224,-0.61454a0.51398,0.51398 0 0 0 -0.61454,0.39107z"/>
      <path stroke="null" d="m22.2849,345.28945a0.51398,0.51398 0 0 0 0.39107,0.61454a0.53632,0.53632 0 0 0 0.62571,-0.39107a0.52515,0.52515 0 0 0 -0.40224,-0.61454a0.51398,0.51398 0 0 0 -0.61454,0.39107z"/>
      <path stroke="null" d="m23.2905,340.79773a0.51398,0.51398 0 0 0 0.39107,0.61454a0.51398,0.51398 0 1 0 -0.39107,-0.61454z"/>
      <path stroke="null" d="m34.86617,342.89833a0.52515,0.52515 0 0 0 1.01678,0.22347a0.51398,0.51398 0 0 0 -0.39107,-0.61454a0.52515,0.52515 0 0 0 -0.62571,0.39107z"/>
      <path stroke="null" d="m33.83822,347.4124a0.51398,0.51398 0 0 0 1.00561,0.22347a0.51398,0.51398 0 1 0 -1.00561,-0.22347z"/>
      <path stroke="null" d="m32.82144,351.97116a0.51398,0.51398 0 0 0 1.00561,0.22347a0.51398,0.51398 0 1 0 -1.00561,-0.22347z"/>
      <path stroke="null" d="m31.73761,356.79808a0.53632,0.53632 0 0 0 0.40224,0.61454a0.52515,0.52515 0 0 0 0.61454,-0.39107a0.51398,0.51398 0 0 0 -0.39107,-0.61454a0.52515,0.52515 0 0 0 -0.62571,0.39107z"/>
      <polygon stroke="null" points="27.13416290283203,358.5858154296875 35.16786193847656,324.9873352050781 33.26838302612305,324.7191467285156 27.13416290283203,358.5858154296875 "/>
      <path stroke="null" fill="#263238" d="m20.6424,355.0215l0.07821,0c3.48611,-0.34638 9.2516,0.68158 11.3969,2.05591a0.24582,0.24582 0 0 0 0.35755,-0.07821a0.25699,0.25699 0 0 0 -0.07821,-0.35755c-2.23469,-1.45255 -8.07839,-2.50285 -11.72093,-2.1453a0.27934,0.27934 0 0 0 -0.24582,0.29051a0.27934,0.27934 0 0 0 0.2123,0.23464z"/>
      <path stroke="null" fill="#263238" d="m21.71505,350.20575a0.32403,0.32403 0 0 0 0.14525,0c2.73749,-0.91622 8.88287,0.5028 11.32986,2.07826a0.26816,0.26816 0 0 0 0.36872,-0.07821a0.27934,0.27934 0 0 0 -0.07821,-0.36872c-2.55871,-1.63132 -8.93874,-3.09504 -11.78797,-2.12295a0.24582,0.24582 0 0 0 -0.1676,0.32403a0.30168,0.30168 0 0 0 0.18995,0.1676z"/>
      <path stroke="null" fill="#263238" d="m22.73183,345.647l0.14525,0c2.73749,-0.91622 8.88287,0.5028 11.32986,2.06708a0.25699,0.25699 0 1 0 0.27934,-0.43576c-2.54754,-1.64249 -8.88287,-3.09504 -11.77679,-2.13412a0.26816,0.26816 0 0 0 -0.1676,0.3352a0.25699,0.25699 0 0 0 0.18995,0.1676z"/>
      <path stroke="null" fill="#263238" d="m23.69275,341.16645a0.27934,0.27934 0 0 0 0.13408,0c2.74866,-0.91622 8.93874,0.5028 11.34103,2.07826a0.25699,0.25699 0 0 0 0.35755,-0.07821a0.26816,0.26816 0 0 0 -0.07821,-0.36872c-2.54754,-1.63132 -8.93874,-3.09504 -11.77679,-2.12295a0.24582,0.24582 0 0 0 -0.1676,0.32403a0.23464,0.23464 0 0 0 0.18995,0.1676z"/>
      <path stroke="null" fill="#455a64" d="m34.18459,151.82156c-3.44142,43.28586 -6.29064,101.15304 -6.29064,101.15304c-0.30168,3.29616 -3.48611,17.31881 -5.08391,33.52028c-1.67601,17.10652 -3.05035,49.16308 -3.05035,49.16308s12.03378,6.42472 21.81053,3.20677c0,0 10.44715,-53.96765 15.45285,-74.12452c4.72636,-19.08421 12.12317,-55.2526 12.12317,-55.2526l5.03922,35.75497s-0.67041,12.29077 -0.30168,20.97252c0.43576,10.05608 6.87166,58.29177 6.87166,58.29177s13.08408,7.66497 23.20721,0c0,0 1.75423,-66.54893 2.03356,-78.62741c0.48046,-20.19038 -3.07269,-64.98465 -3.96657,-96.63897l-67.84505,2.58106z"/>
      <path stroke="null" fill="#37474f" d="m51.13468,200.56005q-1.37433,15.57576 -3.05035,31.09565c-0.53632,5.18447 -1.11734,10.35777 -1.70953,15.53106l-0.8827,7.76553l-0.45811,3.87718c-0.14525,1.29612 -0.40224,2.56989 -0.60337,3.85483c-1.72071,10.26838 -4.35764,28.928 -6.23477,39.17404s-3.86601,20.46972 -5.98896,30.67106q2.02239,-15.49754 4.46937,-30.91687c1.62015,-10.27955 4.14534,-28.93918 5.91074,-39.19638c0.20112,-1.28494 0.48046,-2.55871 0.62571,-3.85483l0.48046,-3.86601l0.98326,-7.74318q0.99444,-7.74318 2.03356,-15.4752q2.05591,-15.4752 4.42468,-30.91687z"/>
      <path stroke="null" fill="#37474f" d="m99.33685,197.62143c1.11734,9.68736 1.66484,19.41942 2.08943,29.1403s0.79331,19.48646 0.42459,29.20734s-0.48046,26.04526 -0.84918,35.75497s-0.81566,19.45294 -1.39668,29.17382q-0.23464,-14.60367 -0.08939,-29.19617c0.06704,-9.72088 0.23464,-26.03409 0.43576,-35.75497l0.18995,-7.29625l0,-1.82127l0,-1.8101l0,-3.64254l-0.17877,-14.58132l-0.29051,-14.58132c0,-4.86044 -0.17877,-9.72088 -0.3352,-14.5925z"/>
      <path stroke="null" fill="#37474f" d="m69.11273,209.48761l4.2459,-23.71001s11.82149,-1.70953 17.87748,-7.11747c0,0 -3.9107,7.15099 -15.05061,9.95552l-4.22356,20.95018l2.23469,35.75497l-5.08391,-35.83318z"/>
     </g>
     <g stroke="null" id="svg_3">
      <g stroke="null" id="svg_6">
       <path stroke="null" fill="#ffbda7" d="m108.92365,87.13859c3.78779,4.64815 18.05626,20.68201 18.05626,20.68201c3.28499,-4.61463 7.15099,-10.29073 10.43598,-15.19586c4.32412,-6.43589 6.14538,-7.87727 7.8214,-17.43055a29.05091,29.05091 0 0 1 2.68162,-6.70406a20.35798,20.35798 0 0 0 1.8101,-7.11747c0,-1.2179 3.10621,-1.11734 4.03361,2.63693c0.56984,1.95535 0.10056,3.97774 0.29051,5.94426c0.05587,0.60337 -0.14525,1.89948 0.59219,1.72071c4.46937,-1.11734 7.35212,-6.58115 12.4472,-10.77118c1.84362,-1.49724 6.70406,-3.35203 8.07839,-0.59219c0.15643,0.68158 -0.29051,1.20673 -0.42459,1.84362a0.99444,0.99444 0 0 0 0,0.25699a5.44146,5.44146 0 0 0 0.1676,0.84918c0.18995,0.55867 0.48046,1.11734 0.64806,1.64249a4.14534,4.14534 0 0 1 -0.05587,2.62576a10.27955,10.27955 0 0 0 -0.72627,1.92183a6.61467,6.61467 0 0 1 -0.14525,3.60902a13.8774,13.8774 0 0 1 -1.46372,2.93861a9.95552,9.95552 0 0 0 -0.73745,2.02239a11.67623,11.67623 0 0 1 -1.933,3.16208a46.04569,46.04569 0 0 1 -9.12869,9.21808c-1.58663,1.11734 -3.29616,2.13412 -4.77105,3.43024a14.52546,14.52546 0 0 0 -2.8604,3.27381a32.68227,32.68227 0 0 0 -2.41346,4.94983l0,0.10056c-6.10069,13.40811 -6.30181,18.08978 -13.02822,28.83862c-5.72079,8.64823 -10.57006,5.66493 -21.22951,-2.83805c-13.13995,-10.44715 -20.2239,-16.51433 -20.2239,-16.51433l-6.58115,-38.19077c7.32977,1.69836 14.87183,9.05048 18.65962,13.68745z"/>
       <path stroke="null" fill="#f0997a" d="m154.42184,75.03776a13.05056,13.05056 0 0 1 -2.30173,11.49746c4.04478,-1.58663 5.21799,-7.1063 2.30173,-11.49746z"/>
       <path stroke="null" fill="#37474F" d="m86.45389,72.60196c6.79344,0.49163 12.29077,2.63693 21.70997,12.96118s18.76018,21.66528 18.76018,21.66528l6.056,-8.04487c-2.02239,1.44137 -0.75979,10.89409 3.10621,14.84948a14.7154,14.7154 0 0 0 9.01696,4.17886a95.63336,95.63336 0 0 1 -5.58671,11.47511c-2.99448,5.02804 -5.09508,6.44707 -8.03369,6.70406s-6.34651,-1.11734 -14.72658,-7.68732s-21.70997,-17.08417 -21.70997,-17.08417l-8.59237,-39.01761z"/>
       <path stroke="null" opacity="0.55" fill="#fff" d="m86.45389,72.60196c6.79344,0.49163 12.29077,2.63693 21.70997,12.96118s18.76018,21.66528 18.76018,21.66528l6.056,-8.04487c-2.02239,1.44137 -0.75979,10.89409 3.10621,14.84948a14.7154,14.7154 0 0 0 9.01696,4.17886a95.63336,95.63336 0 0 1 -5.58671,11.47511c-2.99448,5.02804 -5.09508,6.44707 -8.03369,6.70406s-6.34651,-1.11734 -14.72658,-7.68732s-21.70997,-17.08417 -21.70997,-17.08417l-8.59237,-39.01761z"/>
       <path stroke="null" opacity="0.35" fill="#37474F" d="m125.37093,105.40714c-4.05595,5.58671 -4.87161,12.77123 -2.97213,16.76014c-0.59219,-3.5308 1.27377,-10.67062 4.46937,-14.96122l-1.49724,-1.79892zm17.22942,18.14565a14.13439,14.13439 0 0 1 -7.18451,-2.96096a15.32994,15.32994 0 0 1 -5.2962,-8.31303c0,-0.1676 -0.2123,-0.10056 -0.18995,0a14.10087,14.10087 0 0 0 5.32972,9.10634a15.3076,15.3076 0 0 0 4.90513,2.44698a14.35785,14.35785 0 0 0 2.23469,0.44694l0.36872,-0.77097l-0.1676,0.04469z"/>
      </g>
      <path stroke="null" fill="#37474f" d="m54.59845,69.78625c-10.62593,2.36877 -13.81036,3.35203 -18.82722,4.55876c0,0 -8.3689,24.58154 -3.86601,42.96183c1.03913,4.22356 2.05591,19.35238 2.04474,27.10673c0,7.40798 -0.1676,9.35216 -0.96091,19.86635c0,0 14.64836,10.54772 44.35851,7.51972c23.31894,-2.37994 25.24077,-8.23482 25.24077,-8.23482s0.83801,-32.64875 -0.29051,-49.76644c-1.3855,-20.97252 -4.30177,-36.7494 -13.10643,-40.86122c-0.83801,-0.48046 -14.99474,-2.45815 -14.99474,-2.45815l-19.59819,-0.69275z" id="svg_5"/>
      <path stroke="null" fill="#263238" d="m87.12429,33.34971l0.13408,-0.18995a17.62049,17.62049 0 0 0 1.82127,-3.64254c1.01678,-2.4805 3.18443,-9.9667 -1.55311,-10.25721c1.00561,-1.11734 2.45815,-3.35203 0.73745,-4.46937c-1.4302,-0.96091 -3.54198,-0.05587 -5.13978,-0.06704a7.4415,7.4415 0 0 0 1.66484,-2.23469a5.81018,5.81018 0 0 0 0.5475,-2.56989c-0.84918,0.17877 -1.63132,0.55867 -2.4805,0.74862a22.01165,22.01165 0 0 1 -6.46941,0.2123c-2.42463,-0.14525 -4.73753,-0.94974 -7.15099,-1.11734a44.93952,44.93952 0 0 0 -7.15099,0.10056c-7.88844,0.67041 -15.57576,4.12299 -16.8607,12.29077c-6.30181,2.03356 -5.3409,12.43602 -3.66488,16.99478c3.41907,9.2516 9.89966,17.22942 10.12312,22.00048c0.64806,-0.51398 1.30729,-1.01678 1.96652,-1.51959l9.86614,-7.64262l12.77123,-9.86614l5.53085,-4.27942c1.78775,-1.44137 3.94422,-2.6928 5.30738,-4.49172z"/>
      <path stroke="null" fill="#ffbda7" d="m87.83939,55.45075c-1.11734,4.53641 -3.68723,7.88844 -7.8214,8.63706a35.12925,35.12925 0 0 1 -5.97778,0.3352l0.17877,6.04482c2.93861,3.96657 1.27377,12.0673 -0.07821,13.94444a3.79897,3.79897 0 0 1 -2.11178,0.11173c-5.30738,-7.31859 -16.76014,-8.59237 -20.51441,-13.68745l-0.3352,-18.51437s-2.49167,2.94978 -6.70406,0.31286a9.16221,9.16221 0 0 1 -3.10621,-11.17343c1.9777,-4.46937 6.19008,-2.71514 7.49737,-1.40785s2.87157,3.77662 3.93305,3.35203a3.88835,3.88835 0 0 0 2.52519,-2.6928a23.93348,23.93348 0 0 0 1.11734,-8.54767a9.4192,9.4192 0 0 0 2.89392,-2.36877c1.75423,-2.03356 1.84362,-4.46937 1.86596,-6.59232c8.93874,-3.028 20.4362,-2.13412 24.24634,0.67041c2.23469,3.7431 2.51402,12.55893 2.98331,17.62049a41.69923,41.69923 0 0 1 -0.59219,13.95561z"/>
      <path stroke="null" fill="#f0997a" d="m74.02904,64.42301c-4.61463,-0.15643 -14.52546,-2.23469 -17.03948,-4.75988s-3.6984,-7.74318 -3.6984,-7.74318s0.52515,6.62584 2.49167,9.51976s6.82696,4.05595 9.76558,4.71519s8.57002,1.11734 8.57002,1.11734l-0.08939,-2.84922z"/>
      <path stroke="null" fill="#263238" d="m69.92839,40.07611a1.89948,1.89948 0 1 1 -3.79897,0.08939a1.92183,1.92183 0 0 1 1.84362,-2.01122a1.94418,1.94418 0 0 1 1.95535,1.92183z"/>
      <path stroke="null" fill="#263238" d="m85.03486,35.11511l-4.63697,-0.64806a2.23469,2.23469 0 0 1 2.55871,-2.02239a2.45815,2.45815 0 0 1 2.07826,2.67045z"/>
      <path stroke="null" fill="#263238" d="m69.03451,34.81343l-4.46937,1.54193a2.23469,2.23469 0 0 1 1.35198,-2.97213a2.46933,2.46933 0 0 1 3.11739,1.4302z"/>
      <path stroke="null" fill="#263238" d="m84.44267,39.38336a1.92183,1.92183 0 0 1 -1.84362,2.01122a1.9777,1.9777 0 1 1 1.84362,-2.01122z"/>
      <polygon stroke="null" fill="#f0997a" points="74.65473175048828,35.64026641845703 76.34192657470703,49.27184295654297 83.62702941894531,46.89189910888672 74.65473175048828,35.64026641845703 "/>
      <path stroke="null" fill="#b16668" d="m69.34737,50.92551a3.4079,3.4079 0 1 0 6.36885,2.43581l-6.36885,-2.43581z"/>
      <path stroke="null" fill="#f0997a" d="m69.93956,52.69091a3.35203,3.35203 0 0 1 3.35203,2.72632a3.35203,3.35203 0 0 1 -4.0783,-2.61458a3.9107,3.9107 0 0 1 0.72627,-0.11173z"/>
      <path stroke="null" fill="#37474F" d="m74.64357,68.9259s7.18451,6.23477 4.94983,12.29077s-12.42485,7.22921 -20.50324,1.64249s-7.46385,-12.08965 -7.46385,-12.08965l-0.08939,-0.98326s2.35759,2.16764 4.7934,4.01126c1.56428,1.17321 16.1456,7.35212 16.50315,9.15104c0,0 2.23469,-4.39116 2.83805,-6.03365s-0.83801,-6.98339 -0.83801,-6.98339l-0.18995,-1.00561z"/>
      <path stroke="null" opacity="0.55" fill="#fff" d="m74.64357,68.9259s7.18451,6.23477 4.94983,12.29077s-12.42485,7.22921 -20.50324,1.64249s-7.46385,-12.08965 -7.46385,-12.08965l-0.08939,-0.98326s2.35759,2.16764 4.7934,4.01126c1.56428,1.17321 16.1456,7.35212 16.50315,9.15104c0,0 2.23469,-4.39116 2.83805,-6.03365s-0.83801,-6.98339 -0.83801,-6.98339l-0.18995,-1.00561z"/>
      <path stroke="null" fill="#37474F" d="m72.85583,82.94855c-2.30173,-1.32964 -6.87166,-4.27942 -9.02813,-1.37433s-3.6984,6.23477 -5.36325,5.78784s-7.8214,-4.46937 -9.98904,-8.83818a17.56463,17.56463 0 0 1 -1.8101,-6.894a18.34677,18.34677 0 0 0 2.23469,-3.58667c0.8827,-1.85479 1.11734,-3.59784 2.55871,-3.73192l0.07821,4.64815s1.25142,2.60341 6.11186,4.35764c6.44707,2.32407 12.05613,3.32968 15.20703,9.63149z"/>
      <path stroke="null" opacity="0.7" fill="#fff" d="m72.85583,82.94855c-2.30173,-1.32964 -6.87166,-4.27942 -9.02813,-1.37433s-3.6984,6.23477 -5.36325,5.78784s-7.8214,-4.46937 -9.98904,-8.83818a17.56463,17.56463 0 0 1 -1.8101,-6.894a18.34677,18.34677 0 0 0 2.23469,-3.58667c0.8827,-1.85479 1.11734,-3.59784 2.55871,-3.73192l0.07821,4.64815s1.25142,2.60341 6.11186,4.35764c6.44707,2.32407 12.05613,3.32968 15.20703,9.63149z"/>
      <path stroke="null" fill="#37474F" d="m72.85583,82.94855c1.31846,-1.2626 2.23469,-3.41907 4.46937,-2.84922s5.49733,5.51967 5.53085,4.34646s-1.5978,-9.54211 -3.35203,-11.98909s-3.86601,-6.90518 -5.37442,-6.7711l0.13408,4.7934a15.6428,15.6428 0 0 1 0.92739,5.37442c-0.31286,1.98887 -2.16764,5.16212 -2.33525,7.09513z"/>
      <path stroke="null" opacity="0.7" fill="#fff" d="m72.85583,82.94855c1.31846,-1.2626 2.23469,-3.41907 4.46937,-2.84922s5.49733,5.51967 5.53085,4.34646s-1.5978,-9.54211 -3.35203,-11.98909s-3.86601,-6.90518 -5.37442,-6.7711l0.13408,4.7934a15.6428,15.6428 0 0 1 0.92739,5.37442c-0.31286,1.98887 -2.16764,5.16212 -2.33525,7.09513z"/>
      <g stroke="null" id="svg_4">
       <polygon stroke="null" fill="#37474F" points="55.50349426269531,246.03590393066406 55.53701400756836,200.7611541748047 4.3515472412109375,173.97845458984375 5.446537971496582,217.30899047851562 55.50349426269531,246.03590393066406 "/>
       <polygon stroke="null" opacity="0.2" points="55.50349426269531,246.03590393066406 55.53701400756836,200.7611541748047 4.3515472412109375,173.97845458984375 5.446537971496582,217.30899047851562 55.50349426269531,246.03590393066406 "/>
       <path stroke="null" opacity="0.2" d="m22.36311,183.42001l-0.60337,2.99448l0,0c0,0.81566 0,1.63132 0,2.44698c0,1.34081 0,2.68162 -0.07821,4.02243c0,0.30168 0,0.60337 0,0.90505a3.35203,3.35203 0 0 1 -0.2123,0.86035a7.45268,7.45268 0 0 0 -0.15643,1.32964c0,0.45811 0,0.91622 0,1.3855a16.33555,16.33555 0 0 0 1.03913,5.37442a6.34651,6.34651 0 0 0 2.13412,3.10621c0.69275,0.46928 1.51959,0.70393 2.23469,1.11734a31.75488,31.75488 0 0 1 2.89392,2.1453a3.97774,3.97774 0 0 0 3.35203,0.81566c0.3352,-0.10056 0.64806,-0.27934 0.98326,-0.36872a3.028,3.028 0 0 1 2.53637,0.73745c0.7151,0.55867 1.28494,1.29612 1.9777,1.87714a2.23469,2.23469 0 0 0 1.24025,0.61454a1.7654,1.7654 0 0 0 1.63132,-1.11734a4.22356,4.22356 0 0 0 0.17877,-2.11178c-0.53632,-5.32972 -3.44142,-10.05608 -5.39677,-15.05061a10.44715,10.44715 0 0 1 -0.48046,-1.40785c-0.05587,-0.24582 -0.08939,-0.5028 -0.13408,-0.74862a2.49167,2.49167 0 0 1 0,-0.86035c0,-0.06704 0.26816,-1.0503 0.36872,-0.99444l-13.50867,-7.07278z"/>
       <path stroke="null" opacity="0.15" d="m51.0006,231.58865l1.58663,0.79331c0.87153,0.43576 1.5978,-2.03356 1.60897,-5.5085l0,-6.70406c0,-3.48611 -0.68158,-6.70406 -1.55311,-7.09513l-1.58663,-0.78214l-0.05587,19.29651z"/>
       <path stroke="null" fill="#263238" d="m56.53145,236.18093c0.53632,0.27934 0.97209,-0.69275 0.94974,-2.15647l0,-2.6481s3.41907,1.68719 3.65371,-4.11182s-3.55315,-8.07839 -3.55315,-8.07839s0,-1.2626 -0.05587,-2.82688s-0.48046,-3.09504 -1.00561,-3.41907l-0.96091,-0.59219l0,23.31894l0.97209,0.51398z"/>
       <path stroke="null" fill="#263238" d="m55.53701,232.70599c0,-2.12295 0,-3.01683 -1.34081,-3.68723c-1.54193,-0.77097 -2.70397,-1.22908 -2.70397,-1.22908l0,-10.32425s1.933,1.00561 2.70397,1.37433s1.34081,0.15643 1.34081,-1.48607l0.67041,0l-0.11173,16.16795l-0.55867,-0.81566z"/>
       <path stroke="null" fill="#37474f" d="m50.76596,231.81212l1.58663,0.79331c0.87153,0.43576 1.5978,-2.03356 1.60897,-5.5085l0,-6.70406c0,-3.47494 -0.68158,-6.64819 -1.55311,-7.08395l-1.58663,-0.79331l-0.05587,19.29651z"/>
       <path stroke="null" fill="#ffbda7" d="m13.55845,175.37514c-1.48607,-7.39681 -3.028,-13.86622 -4.13417,-20.33564c-2.70397,-15.91096 -2.75984,-19.74345 -1.57545,-26.46985a226.08312,226.08312 0 0 1 9.22925,-36.57063c4.2906,-13.18464 5.0057,-13.40811 18.22386,-17.10652c5.81018,5.70962 5.5085,22.73792 1.78775,31.97835c-4.23473,13.76566 -9.83262,34.23538 -9.83262,34.23538c0.23464,3.20677 0.36872,23.78823 2.46933,33.03982a10.58124,10.58124 0 0 0 4.17886,6.24595c3.26264,2.59224 5.89957,8.54767 6.75992,12.59245l-5.78784,-3.01683a3.78779,3.78779 0 0 0 -0.83801,-0.69275c-1.03913,-0.62571 -1.11734,0.46928 -0.99444,1.2626a15.96683,15.96683 0 0 0 1.44137,5.38559c0.65923,1.39668 1.22908,2.82688 1.85479,4.23473l0.10056,0.25699c1.30729,2.98331 2.63693,6.04482 2.80453,9.29629a2.43581,2.43581 0 0 1 -0.58102,2.04474a1.92183,1.92183 0 0 1 -1.98887,0.13408a11.30751,11.30751 0 0 1 -1.73188,-1.18438a7.8214,7.8214 0 0 0 -2.82688,-1.2626a9.66501,9.66501 0 0 1 -2.1006,-0.53632c-1.03913,-0.49163 -1.72071,-1.53076 -2.71514,-2.11178a12.35781,12.35781 0 0 0 -2.23469,-0.83801a9.01696,9.01696 0 0 1 -5.1733,-4.58111c-2.37994,-5.24034 -4.87161,-12.0673 -5.28503,-17.87748c-0.23464,-2.49167 -0.60337,-5.30738 -1.0503,-8.12308z"/>
       <path stroke="null" fill="#37474F" d="m28.21798,140.21237l10.93879,-36.12369s5.76549,-21.67645 -3.17325,-29.77718c-8.01135,2.23469 -12.29077,2.63693 -15.70984,7.26273s-7.74318,22.05635 -9.69853,29.6878c-0.77097,3.00565 -1.64249,6.86048 -2.43581,10.57006c-2.15647,9.82144 -2.1006,12.87179 -1.03913,21.8664a153.96983,153.96983 0 0 0 3.79897,19.06187s5.83253,-4.53641 10.33542,-5.11743s6.70406,1.30729 6.70406,1.30729l0.27934,-18.73784z"/>
       <path stroke="null" opacity="0.55" fill="#fff" d="m28.21798,140.21237l10.93879,-36.12369s5.76549,-21.67645 -3.17325,-29.77718c-8.01135,2.23469 -12.29077,2.63693 -15.70984,7.26273s-7.74318,22.05635 -9.69853,29.6878c-0.77097,3.00565 -1.64249,6.86048 -2.43581,10.57006c-2.15647,9.82144 -2.1006,12.87179 -1.03913,21.8664a153.96983,153.96983 0 0 0 3.79897,19.06187s5.83253,-4.53641 10.33542,-5.11743s6.70406,1.30729 6.70406,1.30729l0.27934,-18.73784z"/>
       <path stroke="null" opacity="0.35" fill="#37474F" d="m18.89935,150.78243a19.58702,19.58702 0 0 0 -5.79901,1.82127a18.21269,18.21269 0 0 0 -4.00009,2.6481c0.11173,0.5028 0.22347,0.98326 0.32403,1.45255c0.08939,-0.08939 0.1676,-0.20112 0.26816,-0.29051a17.87748,17.87748 0 0 1 4.46937,-3.03917a20.54793,20.54793 0 0 1 5.49733,-1.77657a27.17377,27.17377 0 0 1 5.2962,-0.42459s0.07821,-0.10056 0,-0.10056a15.6428,15.6428 0 0 0 -6.056,-0.29051z"/>
      </g>
     </g>
    </g>
   </g>
  </g>
 </g>

</svg>