<svg xmlns="http://www.w3.org/2000/svg" viewBox="0 0 500 500"><g id="freepik--Cursor--inject-80"><g id="freepik--text-cursor--inject-80"><path id="freepik--Selection--inject-80" d="M347.34,470.51l-3.09-1.78a.59.59,0,0,0-.81.21.59.59,0,0,0,.22.82l3.09,1.78a.51.51,0,0,0,.29.08.6.6,0,0,0,.52-.3A.59.59,0,0,0,347.34,470.51Zm8.25,4.76-3.1-1.78a.59.59,0,0,0-.81.21.61.61,0,0,0,.22.82L355,476.3a.67.67,0,0,0,.3.08.6.6,0,0,0,.51-.3A.59.59,0,0,0,355.59,475.27ZM353.45,423a.59.59,0,0,0-.81-.22l-3.09,1.79a.58.58,0,0,0-.22.81.6.6,0,0,0,.51.3.61.61,0,0,0,.3-.08l3.09-1.79A.58.58,0,0,0,353.45,423Zm18,44.72-3.09,1.79a.59.59,0,0,0,.3,1.1.51.51,0,0,0,.29-.08l3.09-1.78a.59.59,0,0,0-.59-1Zm-1.54-54.24a.59.59,0,0,0-.81-.22L366,415a.59.59,0,0,0-.21.81.6.6,0,0,0,.51.3.67.67,0,0,0,.3-.08l3.09-1.79A.59.59,0,0,0,369.94,413.44Zm-8.25,4.76a.59.59,0,0,0-.81-.22l-3.09,1.79a.59.59,0,0,0,.3,1.11.67.67,0,0,0,.3-.08l3.09-1.79A.59.59,0,0,0,361.69,418.2Zm1.55,54.24-3.1,1.79a.59.59,0,0,0,.3,1.1.56.56,0,0,0,.3-.08l3.09-1.78a.59.59,0,0,0,.22-.81A.59.59,0,0,0,363.24,472.44Zm-18-44.72a.61.61,0,0,0-.82-.22l-3.09,1.79a.59.59,0,0,0,.3,1.11.67.67,0,0,0,.3-.08l3.09-1.79A.6.6,0,0,0,345.21,427.72ZM320.47,442a.6.6,0,0,0-.81-.22l-3.09,1.79a.59.59,0,0,0-.22.81.59.59,0,0,0,.81.22l3.1-1.79A.59.59,0,0,0,320.47,442Zm18.63,23.75L336,464a.6.6,0,0,0-.82.21.61.61,0,0,0,.22.82l3.09,1.78a.56.56,0,0,0,.3.08.6.6,0,0,0,.3-1.11Zm-24.73-14.28-3.1-1.78a.59.59,0,0,0-.81.21.6.6,0,0,0,.22.82l3.09,1.78a.54.54,0,0,0,.3.08.6.6,0,0,0,.3-1.11Zm-2.14-4.71a.59.59,0,0,0-.81-.22l-3.09,1.79a.58.58,0,0,0-.22.81.6.6,0,0,0,.51.3.64.64,0,0,0,.3-.08l3.09-1.79A.59.59,0,0,0,312.23,446.76Zm10.38,9.47-3.09-1.78a.59.59,0,0,0-.81.21.6.6,0,0,0,.21.82l3.09,1.78a.56.56,0,0,0,.3.08.59.59,0,0,0,.3-1.11ZM337,432.48a.6.6,0,0,0-.81-.22l-3.09,1.79a.59.59,0,0,0-.22.81.59.59,0,0,0,.81.22l3.09-1.79A.58.58,0,0,0,337,432.48ZM330.85,461l-3.09-1.78a.59.59,0,0,0-.81.21.59.59,0,0,0,.22.82l3.09,1.78a.54.54,0,0,0,.3.08.6.6,0,0,0,.51-.3A.59.59,0,0,0,330.85,461Zm-2.13-23.75a.6.6,0,0,0-.81-.22l-3.1,1.79a.59.59,0,0,0-.21.81.6.6,0,0,0,.51.3.64.64,0,0,0,.3-.08l3.09-1.79A.59.59,0,0,0,328.72,437.24Zm65.44-33.3a.6.6,0,0,0,.51-.3.58.58,0,0,0-.22-.81l-.55-.33c.9-.76.76-1.81-.42-2.49a5.34,5.34,0,0,0-4.83,0c-1.33.77-1.33,2,0,2.79a5.43,5.43,0,0,0,4,.35l1.23.71A.61.61,0,0,0,394.16,403.94ZM421,439.12l-3.1,1.79a.6.6,0,0,0,.3,1.11.67.67,0,0,0,.3-.08l3.09-1.79a.6.6,0,0,0,.22-.81A.59.59,0,0,0,421,439.12Zm-2.06-20.9a.6.6,0,0,0,.51-.3.59.59,0,0,0-.21-.81l-3.1-1.79a.59.59,0,0,0-.59,1l3.09,1.79A.64.64,0,0,0,418.89,418.22Zm8.24,4.76a.6.6,0,0,0,.52-.3.59.59,0,0,0-.22-.81l-3.09-1.79a.6.6,0,0,0-.6,1l3.1,1.79A.6.6,0,0,0,427.13,423Zm-14.43,20.9-3.09,1.79a.59.59,0,0,0-.22.81.59.59,0,0,0,.81.22l3.1-1.79a.6.6,0,0,0-.6-1Zm-34.52-35.2a.6.6,0,0,0-.81-.22l-3.09,1.79a.59.59,0,0,0-.22.81.59.59,0,0,0,.81.22l3.09-1.79A.58.58,0,0,0,378.18,408.68Zm57.2,19.06a.6.6,0,0,0,.51-.3.58.58,0,0,0-.22-.81l-3.09-1.79a.59.59,0,0,0-.59,1l3.09,1.79A.64.64,0,0,0,435.38,427.74Zm-6.19,6.62-3.09,1.79a.59.59,0,0,0-.22.81.6.6,0,0,0,.52.3.52.52,0,0,0,.29-.09l3.09-1.78a.59.59,0,0,0-.59-1Zm9.06-4.54a.59.59,0,0,0-.82-.22l-3.09,1.79a.59.59,0,0,0,.3,1.11.58.58,0,0,0,.3-.09l3.09-1.78A.6.6,0,0,0,438.25,429.82Zm-51.82-25.9a.61.61,0,0,0-.82-.22l-3.09,1.79a.6.6,0,0,0,.3,1.11.67.67,0,0,0,.3-.08l3.09-1.79A.6.6,0,0,0,386.43,403.92ZM388,458.16,384.88,460a.58.58,0,0,0-.22.81.6.6,0,0,0,.51.3.61.61,0,0,0,.3-.08l3.09-1.79a.59.59,0,0,0-.59-1Zm-8.25,4.76-3.09,1.79a.6.6,0,0,0-.22.81.61.61,0,0,0,.52.3.58.58,0,0,0,.3-.09l3.09-1.78a.6.6,0,1,0-.6-1ZM402.4,408.7a.6.6,0,0,0,.3-1.11l-3.09-1.79a.6.6,0,1,0-.6,1l3.09,1.79A.67.67,0,0,0,402.4,408.7Zm2.06,39.94-3.1,1.79a.59.59,0,0,0-.21.81.6.6,0,0,0,.51.3.64.64,0,0,0,.3-.08l3.09-1.79a.59.59,0,0,0-.59-1Zm-8.25,4.76-3.09,1.79a.59.59,0,0,0,.3,1.11.67.67,0,0,0,.3-.08l3.09-1.79a.59.59,0,0,0,.21-.81A.58.58,0,0,0,396.21,453.4Zm14.43-39.94a.6.6,0,0,0,.52-.3.59.59,0,0,0-.22-.81l-3.09-1.79a.6.6,0,0,0-.6,1l3.1,1.79A.6.6,0,0,0,410.64,413.46Z" style="opacity:0.2"></path><path d="M385.59,451.46l-10.92,6.3a3.52,3.52,0,0,1-3.19,0L365,454l8-4.6c.59-.34.65-.86.13-1.15a2.19,2.19,0,0,0-2,.07l-8,4.6-21.5-12.41a1,1,0,0,1,0-1.84l10-5.76a.94.94,0,0,0,0-1.62.91.91,0,0,0-.93,0L339.05,438a1.26,1.26,0,0,0,0,2.16,3.71,3.71,0,0,0-3.73,0l-10.66,6.15a.94.94,0,0,0,0,1.62,1,1,0,0,0,.94,0l10.94-6.32a3.52,3.52,0,0,1,3.19,0L361.24,454l-8,4.62c-.59.34-.65.86-.13,1.15a2.19,2.19,0,0,0,2-.07l8-4.63,6.52,3.77a1,1,0,0,1,0,1.84l-10,5.78a.93.93,0,0,0,0,1.62.91.91,0,0,0,.93,0l11.59-6.69a1.24,1.24,0,0,0,.06-2.11,3.8,3.8,0,0,0,3.67,0l10.66-6.15a.94.94,0,0,0,0-1.62A1,1,0,0,0,385.59,451.46Z" style="opacity:0.2"></path></g><g id="freepik--Arrow--inject-80"><path d="M467,426.93l-61.64,4.82a2.54,2.54,0,0,0-2.3,2.49v4.08a4.07,4.07,0,0,0,2.07,3.33l39.19,19.27a1.56,1.56,0,0,0,2.37-1.28l.79-6.3a2.28,2.28,0,0,1,2.59-2l18.83,2.78a4.7,4.7,0,0,0,3.8-1.42l2.86-3.3a7.2,7.2,0,0,0,1.51-4.06v-4.07a2.76,2.76,0,0,0-2.29-2.65l-8.86-1.31,1.69-1a4,4,0,0,0,1.69-3.26v-4.07A2.11,2.11,0,0,0,467,426.93Z" style="fill:#BA68C8"></path><path d="M467,426.93l-61.64,4.82a2.54,2.54,0,0,0-2.3,2.49v4.08a4.07,4.07,0,0,0,2.07,3.33l39.19,19.27a1.56,1.56,0,0,0,2.37-1.28l.79-6.3a2.28,2.28,0,0,1,2.59-2l18.83,2.78a4.7,4.7,0,0,0,3.8-1.42l2.86-3.3a7.2,7.2,0,0,0,1.51-4.06v-4.07a2.76,2.76,0,0,0-2.29-2.65l-8.86-1.31,1.69-1a4,4,0,0,0,1.69-3.26v-4.07A2.11,2.11,0,0,0,467,426.93Z" style="fill:#fff;opacity:0.25"></path><path d="M470.74,445.25v8.69a4.14,4.14,0,0,1-1.85.21l-18.82-2.77a2.3,2.3,0,0,0-1.35.26v-8.75a2.29,2.29,0,0,1,1.35-.21l18.82,2.78A4.14,4.14,0,0,0,470.74,445.25Z" style="fill:#fff;opacity:0.2"></path><path d="M445.49,452.4v8.7a1.78,1.78,0,0,1-1.17-.18l-39.19-19.26a4.09,4.09,0,0,1-2.08-3.34v-4.07a2.58,2.58,0,0,1,1.4-2.25c-.28.23-.05.59.68,1l39.19,19.26A1.78,1.78,0,0,0,445.49,452.4Z" style="fill:#fff;opacity:0.2"></path><path d="M467,426.93l-61.64,4.82c-1.27.1-1.37.64-.23,1.2l39.19,19.27a1.56,1.56,0,0,0,2.37-1.28l.79-6.3a2.28,2.28,0,0,1,2.59-2l18.83,2.78a4.7,4.7,0,0,0,3.8-1.42l2.86-3.3c.83-1,.48-1.9-.78-2.08L456,435.88c-1.27-.18-1.39-.84-.27-1.47l11.61-6.52C468.4,427.26,468.27,426.83,467,426.93Z" style="fill:#fff;opacity:0.45"></path></g></g><g id="freepik--Character--inject-80"><g id="freepik--character--inject-80"><g id="freepik--Chair--inject-80"><path d="M203.92,343.17c.21-2.72-1.94-5.82-6.73-9.49-8.83-6.78-40.92-29.1-53.39-37.36a.14.14,0,0,0-.1-.12c-9.54-6.89-11.69-54.09-16.88-76.68a41.42,41.42,0,0,0-1.13-4.16c0-.11-.07-.2-.1-.31-.11-.3-.21-.61-.33-.93-.06-.15-.11-.31-.16-.46h0a21.46,21.46,0,0,0-4.1-7.07,10.39,10.39,0,0,0-2.15-1.78c-1.08-.72-3.71-2-4.27-2.43-6.49-4.62-23,7.1-34.59,12.32-7.24,3.24-13.51,7.29-17.78,15.42h0A48.83,48.83,0,0,0,57.55,245C55.63,256.53,56,295.24,57,312.25h0C58.2,340.62,62.39,341,68.1,346.19c9.83,8.93,38.69,27.19,48.32,31.9,17.47,8.53,33.08-1.23,44.5-5.78s33.05-15.15,38-18.14c2.9-1.78,4.48-3.69,4.63-5.82C203.55,347.51,203.85,344.06,203.92,343.17Z" style="fill:#263238"></path><path d="M161.34,367.08c11.41-4.55,33-15.15,37.94-18.14,6.61-4,6.41-8.73-2.09-15.26-11.8-9.06-60.23-41.89-60.23-41.89s-56.3,27.13-69.64,39c-2,1.79-2.1,5.58-1.4,6.46,7.31,9.14,39.87,30.24,50.92,35.63C134.31,381.39,149.92,371.63,161.34,367.08Z" style="fill:#455a64"></path><path d="M118.84,204.81l-.18-.11a10,10,0,0,0-4.83-1.5c-5.9-.48-15.22,3.65-29.17,12.66a76.83,76.83,0,0,0-12,9.14c-.07.07-.15.14-.21.21a27.29,27.29,0,0,0-3.06,3.42c-.16.2-.31.4-.46.61s-.18.23-.25.35l-.57.83c-.36.57-.72,1.16-1.07,1.77l-.11.19-.4.75h0l-4.34-3C66.47,222,73,217.81,79.78,213.66c11.63-7.13,24.59-16.4,32.84-12.4C113.25,201.56,117.76,204.09,118.84,204.81Z" style="fill:#455a64"></path><path d="M126.82,219.52c-.75-3-3.36-15.81-13-16.33-5.9-.47-15.22,3.66-29.17,12.67-6.49,4.2-14,9.57-17.69,16.52C61.5,241,60.65,265,61,288s1.81,45.17,4.93,49.24c5.48-15.36,70.22-45.62,77.8-41.05C134.16,289.31,132,242.11,126.82,219.52Z" style="fill:#37474f"></path></g><g id="freepik--Bottom--inject-80"><path d="M85.51,291.34c-.87,13-1.11,30,.43,36.26,1.88,7.7,6.57,17.15,21.27,25.8,20.92,12.31,35.46,20.47,35.46,20.47l69.27-45.13L161.6,299.42Z" style="fill:#BA68C8"></path><g style="opacity:0.30000000000000004"><path d="M85.51,291.34c-.87,13-1.11,30,.43,36.26,1.88,7.7,6.57,17.15,21.27,25.8,20.92,12.31,35.46,20.47,35.46,20.47l69.27-45.13L161.6,299.42Z"></path></g><path d="M109,339.39c-.56-.61-1.1-1.22-1.63-1.83,5.22-1.38,8.29-7.86,7.64-15.18a64.77,64.77,0,0,1-.23-13.46l-.91-.12a64.57,64.57,0,0,0,.23,13.66c.65,7.38-2.46,13.35-7.4,14.31-10-12-8.44-23.59-3.57-39l-.88-.28c-5.34,16.92-6.15,29.33,6.08,42.55,8,8.68,30,20.55,42.77,28.45l.86-.55C139.17,360.05,117.05,348.1,109,339.39Z" style="opacity:0.35000000000000003"></path><path d="M164.92,314.6a27.39,27.39,0,0,1-8.59,13.26c10.85,7.9,19.75,15.24,26,20.63l7.6-4.87-26.67-17.9C166.33,319.36,164.92,314.6,164.92,314.6Z" style="opacity:0.35000000000000003"></path></g><g id="freepik--Desk--inject-80"><polygon points="212.32 465.88 74.47 386.3 292.05 260.74 429.9 340.32 212.32 465.88" style="fill:#BA68C8"></polygon><polygon points="212.32 465.88 74.47 386.3 292.05 260.74 429.9 340.32 212.32 465.88" style="fill:#fff;opacity:0.8"></polygon><polygon points="74.47 386.3 74.47 396.25 212.32 475.83 212.32 465.88 74.47 386.3" style="fill:#BA68C8"></polygon><polygon points="74.47 386.3 74.47 396.25 212.32 475.83 212.32 465.88 74.47 386.3" style="fill:#fff;opacity:0.5"></polygon><polygon points="212.32 475.83 429.9 350.27 429.9 340.32 212.32 465.88 212.32 475.83" style="fill:#BA68C8"></polygon><polygon points="212.32 465.88 429.9 340.32 429.9 350.27 212.32 475.83 212.32 465.88" style="fill:#fff;opacity:0.65"></polygon></g><g id="freepik--Laptop--inject-80"><g id="freepik--Pot--inject-80"><g style="opacity:0.2"><path d="M223.14,433.7c7.63,4.41,7.63,11.55,0,15.95s-20,4.41-27.63,0-7.63-11.54,0-15.95S215.51,429.3,223.14,433.7Z" style="fill:#BA68C8"></path></g><path d="M197.18,442.66c-6.65-6.78-10.55-23.71-4.07-29.08h33c6.47,5.37,2.58,22.29-4.07,29.08l-.18.18c-.07.08-.15.15-.23.23a6.29,6.29,0,0,1-.6.53l-.16.12c-.16.13-.32.26-.5.38a8.89,8.89,0,0,1-.86.55c-5.46,3.16-14.32,3.16-19.79,0h0a8.89,8.89,0,0,1-.86-.55l-.47-.35-.2-.16c-.2-.17-.4-.34-.58-.51l-.26-.26A1.14,1.14,0,0,1,197.18,442.66Z" style="fill:#f0f0f0"></path><path d="M223.22,411.41c7.53,4.34,7.53,11.39,0,15.73s-19.72,4.34-27.25,0-7.52-11.39,0-15.73S215.7,407.07,223.22,411.41Z" style="fill:#fafafa"></path><path d="M217.89,414.49c4.57,2.64,4.57,6.93,0,9.57s-12,2.64-16.58,0-4.58-6.93,0-9.57S213.31,411.85,217.89,414.49Z" style="fill:#e0e0e0"></path><path d="M201.31,419c4.58-2.64,12-2.64,16.58,0a7.69,7.69,0,0,1,2.74,2.52,7.67,7.67,0,0,1-2.74,2.51c-4.58,2.64-12,2.64-16.58,0a7.58,7.58,0,0,1-2.74-2.51A7.6,7.6,0,0,1,201.31,419Z" style="fill:#455a64"></path><path d="M216.88,421.55a37.94,37.94,0,0,0,6-8c2.77-4.9,5.14-11.12,3.71-11.93s-9.12,5.39-9.12,5.39a35.46,35.46,0,0,0,.62-8.35c-.25-4.36-1.31-8.33-2.56-9.13s-4,4.71-5.24,8.69-1.68,6.47-1.68,6.47-1-4.59-2.38-8.38c-1.46-4.14-2.77-5.07-3.8-4.66s-1.69,2.34-2,7.85a55,55,0,0,0,.24,7.89s-2-2.26-4.33-4.45c-2.51-2.41-4.28-2.4-5-1.94s-.22,3.86,3.66,10.88a39.46,39.46,0,0,0,7.32,9.64S207.7,425,216.88,421.55Z" style="fill:#BA68C8"></path><g style="opacity:0.2"><path d="M216.88,421.55a37.94,37.94,0,0,0,6-8c2.77-4.9,5.14-11.12,3.71-11.93s-9.12,5.39-9.12,5.39a35.46,35.46,0,0,0,.62-8.35c-.25-4.36-1.31-8.33-2.56-9.13s-4,4.71-5.24,8.69-1.68,6.47-1.68,6.47-1-4.59-2.38-8.38c-1.46-4.14-2.77-5.07-3.8-4.66s-1.69,2.34-2,7.85a55,55,0,0,0,.24,7.89s-2-2.26-4.33-4.45c-2.51-2.41-4.28-2.4-5-1.94s-.22,3.86,3.66,10.88a39.46,39.46,0,0,0,7.32,9.64S207.7,425,216.88,421.55Z"></path></g><path d="M210.28,398.25c-1.2,4-1.68,6.47-1.68,6.47h0l.73,3.43s.75-7.51,1.81-12.34C210.81,396.64,210.51,397.48,210.28,398.25Z" style="opacity:0.2"></path><path d="M202,404.27a49.14,49.14,0,0,1-1.06-9.56,37.8,37.8,0,0,0-.5,4.82,55,55,0,0,0,.24,7.89L206,413A47.26,47.26,0,0,1,202,404.27Z" style="opacity:0.2"></path><path d="M214.12,410.3l3.34-3.26h0a35.46,35.46,0,0,0,.62-8.35,29.45,29.45,0,0,0-.68-4.94,23,23,0,0,1-.39,8A74.53,74.53,0,0,1,214.12,410.3Z" style="opacity:0.2"></path></g><g id="freepik--Computer--inject-80"><g id="freepik--Mouse--inject-80"><path d="M168.87,386.1c0-.13,0-.27,0-.4a.13.13,0,0,1,0-.06c-.39-10.55-14.16-20.42-25.84-22.38-11.85-2-18.85,6.52-18.85,11.94l0,0c-.27,4,3.48,8.57,10.66,12.16,11,5.53,24.88,7.2,30.9,3.73a5.64,5.64,0,0,0,3.09-5Z" style="fill:#BA68C8;opacity:0.2"></path><path d="M168.2,383.67c0-.13,0-.25,0-.38v-.06c-.38-10.06-13.5-19.46-24.64-21.33-11.3-1.9-18,6.21-18,11.38l0,0c-.25,3.77,3.32,8.16,10.17,11.59,10.54,5.28,23.73,6.87,29.46,3.55a5.34,5.34,0,0,0,3-4.78Z" style="fill:#37474f"></path><path d="M161.21,370.63c-10.57,2.58-15.71,11.69-17.3,17.5l1.15.32c1.54-5.66,6.62-14.65,17.18-16.85C161.91,371.27,161.57,371,161.21,370.63Z" style="fill:#BA68C8"></path><path d="M166.54,387.5a15.53,15.53,0,0,0-10.32-14.65l-.41,1.12a14.18,14.18,0,0,1,9.54,14.41A6.93,6.93,0,0,0,166.54,387.5Z" style="fill:#BA68C8"></path></g><g id="freepik--Keyboard--inject-80"><path id="freepik--shadow--inject-80" d="M164.55,361.66l32.69,18.95a3.92,3.92,0,0,0,3.56,0l93.81-54.08a1.09,1.09,0,0,0,0-2.06l-32.68-19a3.92,3.92,0,0,0-3.56,0l-93.81,54.09A1.08,1.08,0,0,0,164.55,361.66Z" style="fill:#BA68C8;opacity:0.2"></path><g id="freepik--keyboard--inject-80"><path d="M290.79,321.68a1.23,1.23,0,0,0-.72-1l-29.25-16.88a3.84,3.84,0,0,0-3.48,0l-89.23,51.6a1.23,1.23,0,0,0-.72,1v3.06a1.22,1.22,0,0,0,.73,1l29.22,16.88a3.87,3.87,0,0,0,3.49,0l89.24-51.51a1.22,1.22,0,0,0,.72-1Z" style="fill:#263238"></path><path d="M197.34,374.2l-29.22-16.8a1.06,1.06,0,0,1,0-2l89.23-51.6a3.84,3.84,0,0,1,3.48,0l29.25,16.88a1.06,1.06,0,0,1,0,2L200.83,374.2A3.84,3.84,0,0,1,197.34,374.2Z" style="fill:#37474f"></path><path d="M199,374.62v3.13a3.45,3.45,0,0,1-1.63-.4l-29.22-16.88a1.22,1.22,0,0,1-.72-1v-3.08a1.24,1.24,0,0,0,.72,1l29.22,16.81A3.7,3.7,0,0,0,199,374.62Z" style="fill:#263238"></path><path d="M258.87,306.45l.06,0,2.9,1.67-3.93,2.26-3-1.68,3.92-2.26Zm4.53,2.62h.06l2.9,1.67-3.09,1.78-3-1.68,3.08-1.78Zm-10,.55h.07l2.89,1.67-3.08,1.78-3-1.68,3.07-1.78Zm14.55,2.07H268l2.9,1.67-5,2.87-3-1.68,5-2.87Zm-9.17.06h.06l2.89,1.67-2.44,1.42-3-1.69,2.45-1.41Zm-10,.55h.07L251.7,314l-3.08,1.78-3-1.68,3.07-1.78Zm6,1.76.06,0,2.9,1.67-2.45,1.41-3-1.68,2.44-1.41Zm17.71.24h.06l2.9,1.67-3.93,2.27-3-1.68,3.92-2.27ZM244.1,315h.06l2.9,1.67-22.28,12.87-3-1.69L244.06,315Zm17.29.48h.06l2.9,1.67-2.45,1.42-3-1.68,2.44-1.42Zm-10.65.92h.07l2.89,1.67-2.45,1.41-3-1.68,2.44-1.41Zm26.25.54h.06l2.9,1.67L277.5,320l-3-1.68,2.45-1.41Zm-10,.55H267l2.89,1.67-2.45,1.41-3-1.68,2.45-1.41Zm-9.59.31h.07l2.89,1.67-2.45,1.41-3-1.68,2.44-1.41Zm-10.65.91h.07l2.89,1.67-2.45,1.42-3-1.68,2.44-1.41Zm26.25.54h.07l2.89,1.67-2.45,1.42-3-1.68,2.44-1.42Zm-10,.55H263l2.89,1.67-2.45,1.42-3-1.68,2.45-1.42Zm-9.59.31h.06l2.9,1.67-2.45,1.42-3-1.69,2.44-1.41Zm29.12,0h.06l2.9,1.67-3.09,1.78-3-1.68,3.08-1.78Zm-39.77.92h.07l2.89,1.67-2.45,1.41-3-1.68,2.45-1.41Zm26.25.54H269l2.89,1.67-2.45,1.41-3-1.68,2.44-1.41Zm-10,.55H259l2.9,1.67-2.45,1.41-3-1.68,2.45-1.41Zm-9.59.3a.1.1,0,0,1,.07,0l2.89,1.67-2.45,1.41-3-1.68,2.45-1.41Zm-10.65.92h.07l2.89,1.67-2.45,1.42-3-1.68,2.45-1.42Zm37.39.46h.07l2.89,1.67-2.45,1.41-3-1.68,2.44-1.41Zm-11.14.08H265l2.89,1.67L265.47,327l-3-1.69,2.45-1.41Zm-10,.55H255l2.9,1.67-2.45,1.42-3-1.68,2.45-1.42Zm-9.6.31h.07l2.89,1.67-2.45,1.41-3-1.68,2.45-1.41Zm-10.65.91a.1.1,0,0,1,.07,0l2.9,1.67-2.46,1.41-3-1.68,2.45-1.41Zm37.39.46h.07l2.89,1.67-2.45,1.42-3-1.68,2.45-1.42Zm-11.13.08H261l2.89,1.68-2.45,1.41-3-1.68,2.45-1.41Zm-10,.55.06,0,2.9,1.67-2.45,1.41-3-1.68,2.44-1.41Zm-9.59.31h.06l2.89,1.68-2.45,1.41-3-1.68,2.45-1.41ZM230.7,328h.06l2.9,1.67-2.45,1.42-3-1.69,2.44-1.41Zm37.38.46h.07l2.89,1.67-2.45,1.41-3-1.68,2.45-1.41Zm-11.13.08H257l2.9,1.67-2.46,1.41-3-1.68,2.45-1.41Zm-36.69.25.06,0,2.9,1.67-3.08,1.78-3-1.69,3.08-1.77Zm26.67.3H247l2.89,1.67-2.45,1.42-3-1.69,2.44-1.41Zm-9.59.31h.06l2.9,1.67-2.45,1.41-3-1.68,2.45-1.41Zm-10.65.91.07,0,2.89,1.67-2.45,1.41-3-1.68,2.44-1.41Zm37.39.46h.06L267,332.4l-2.44,1.42-3-1.69,2.45-1.41Zm-11.14.08H253l2.9,1.67-2.45,1.42-3-1.68,2.45-1.41Zm-10,.55H243l2.89,1.68-2.45,1.41-3-1.68,2.45-1.41Zm-27.3.07.07,0,2.89,1.67-3.08,1.78-3-1.69,3.08-1.77Zm17.71.24h.07l2.89,1.67-2.45,1.42-3-1.69,2.44-1.41Zm-10.65.92h.07l2.89,1.67-2.45,1.41-3-1.68,2.44-1.41Zm26.25.54H249l2.9,1.67-2.45,1.41-3-1.68,2.44-1.41Zm-10,.55H239l2.89,1.67-2.45,1.41-3-1.68,2.45-1.41Zm-9.59.3.07,0,2.89,1.67-2.45,1.41-3-1.68,2.44-1.41Zm29,.07h.07l2.89,1.67-2.45,1.42-3-1.68,2.45-1.42ZM211,334.1H211l2.9,1.68-3.09,1.78-3-1.69,3.08-1.77Zm7.69.79h.07l2.89,1.67L219.18,338l-3-1.68,2.45-1.42Zm26.25.54H245l2.89,1.67-2.45,1.42-3-1.69,2.44-1.41Zm-10,.55H235l2.9,1.67-2.46,1.42-3-1.68,2.45-1.42Zm-9.6.31h.07l2.89,1.67-2.45,1.42-3-1.69,2.45-1.41Zm29,.07h.06l2.89,1.67-2.45,1.41-3-1.68,2.45-1.41Zm-48,.42h.06l2.9,1.68-3.93,2.26-3-1.68,3.92-2.26Zm8.32.43h.07l2.89,1.67-7.72,4.46-3-1.68,7.72-4.46Zm26.25.53a.1.1,0,0,1,.07,0l2.89,1.67-2.45,1.41-3-1.68,2.45-1.41Zm-10,.56H231l2.9,1.67-2.45,1.41-3-1.68,2.45-1.41Zm-9.59.3h.06l2.89,1.68-2.45,1.41-3-1.68,2.45-1.41Zm29,.07h.06l2.9,1.67-2.45,1.42-3-1.69,2.45-1.41Zm-13.4,1.39H237l2.89,1.67-2.45,1.42-3-1.69,2.45-1.41Zm-36.9.38h.06l2.9,1.67-2.45,1.41-3-1.68,2.45-1.41Zm26.88.17H227l2.9,1.67-2.45,1.42-3-1.69,2.44-1.41Zm-9.59.31h.06l2.89,1.67L218,343.89a.46.46,0,0,0-.25.41.5.5,0,0,0,.26.43l3.8,2.19L219,348.58l-7.52-4.3,5.82-3.36Zm29,.06.06,0,2.9,1.67-2.45,1.41-3-1.68,2.44-1.41Zm-13.4,1.39H233l2.89,1.67-2.45,1.42-3-1.68,2.45-1.41Zm-36.9.38h.06l2.9,1.67-2.45,1.42-3-1.69,2.44-1.41Zm26.88.17.07,0,2.89,1.67L223.39,346l-3-1.68,2.44-1.41Zm17.67,1.39h.06l2.9,1.67-2.45,1.41-3-1.68,2.45-1.41Zm-11.66.38H229l2.89,1.67-2.45,1.41-3-1.68,2.45-1.41Zm-36.9.37.07,0,2.89,1.67-2.45,1.41-3-1.68,2.44-1.41Zm8.54.31h.07l2.89,1.67L201,348.46l-3-1.68,2.44-1.41Zm36,1.25h.06l2.9,1.67-2.45,1.42-3-1.69,2.44-1.41Zm-11.66.38H225l2.89,1.67-4.35,2.51-3-1.68,4.34-2.51Zm-37.74.87h.06l2.9,1.67-6.46,3.73-3-1.68,6.45-3.73Zm26.46.41.07,0,2.89,1.67-2.45,1.41-3-1.68,2.45-1.41Zm18.93.65.06,0,2.9,1.67L233,352l-3-1.68,2.44-1.41Zm-40.86,1.55h.07l2.89,1.67-2.45,1.42-3-1.68,2.44-1.42Zm17.92.12h.07l2.89,1.67-2.45,1.41-3-1.68,2.44-1.41Zm8.54.3h.06l2.9,1.67L218.64,354l-3-1.69,2.44-1.41Zm10.39.35h.07l2.89,1.67L229,354.34l-3-1.68,2.44-1.41Zm-49.4,1.24a.1.1,0,0,1,.07,0l2.89,1.67-2.45,1.41-3-1.68,2.45-1.41Zm8.54.31h.07l2.89,1.67-2.45,1.41-3-1.68,2.44-1.41Zm17.92.11h.07l2.89,1.67L206.09,356l-3-1.68,2.44-1.42Zm-9.38.19h.06l2.9,1.67-2.45,1.41-3-1.68,2.44-1.41Zm17.92.11.07,0,2.89,1.67-2.45,1.41-3-1.68,2.44-1.41Zm9.51.86.06,0,2.9,1.67-2.45,1.41-3-1.68,2.45-1.41Zm-48.52.74h.07l7.42,4.29-2.45,1.41-7.52-4.29,2.45-1.42Zm8.54.3h.07l2.89,1.67-2.45,1.42-3-1.68,2.45-1.42Zm8.54.3h.07l2.89,1.67-2.45,1.42-3-1.68,2.44-1.42Zm17.92.12h.07l2.89,1.67-2.45,1.41-3-1.68,2.45-1.41Zm-9.38.18h.06l2.9,1.68-2.45,1.41-3-1.68,2.44-1.41Zm18.89.68h.06l2.9,1.67-2.45,1.41-3-1.68,2.44-1.41Zm-31.44,1.34h.07l2.89,1.67-2.45,1.41-3-1.68,2.45-1.41Zm8.54.3s.06,0,.06,0l2.9,1.67-2.45,1.41-3-1.68,2.44-1.41Zm8.54.3h.06l2.9,1.67-2.45,1.42-3-1.69,2.44-1.41Zm10.35.37h.07l2.89,1.67-2.45,1.42-3-1.68,2.44-1.42ZM184.17,360h.07l7.42,4.29-2.45,1.41-7.52-4.29,2.45-1.42Zm8.54.3h.07l2.89,1.67-2.45,1.42-3-1.68,2.45-1.41Zm8.54.3h.06l2.9,1.67-2.45,1.42-3-1.68,2.45-1.41Zm10.67,1.54H212l1.25.71-2.45,1.41-1.34-.73,2.43-1.4Zm-14.68.78h.07l2.89,1.67-2.45,1.41-3-1.68,2.45-1.41Zm10.67,1.53H208l1.25.71-2.44,1.42-1.35-.73,2.44-1.41Zm-14.67.78h.06l2.89,1.67-2.45,1.42-3-1.68,2.45-1.42Zm10.66,1.53a.1.1,0,0,1,.07,0l1.26.7-2.45,1.42-1.35-.73,2.44-1.4Zm-4,2.32H200l1.26.71-2.45,1.41-1.35-.72,2.44-1.41Z" style="fill:#BA68C8"></path></g></g></g><path id="freepik--Hand--inject-80" d="M236,300.32a51.15,51.15,0,0,0-8.7-9.81c-3.93-3.22-5.54-4.2-12.62-7.59l-10.52,14.16,3.16.95c1.33.47,2,.6,2.55,1.83a32.19,32.19,0,0,1,.59,4.22A33.31,33.31,0,0,0,212,311c1.11,3.34,1.83,3.11,3.83,5.76,1.86,2.46,2.61,4.09,3.64,4s2.32-2.15,1.79-4.42-2.42-5.53-2.69-6.47-.63-2.33,1.81-1.56,7,6.36,9.21,8.65,3.58,5.79,5.65,7.33,5.18,1.47,4.31-1.88c.33-1.94,1.52-5.28,1.81-8.38S238.26,303.64,236,300.32Z" style="fill:#b16668"></path><path d="M369.62,354l-5.18-2.9a6.34,6.34,0,0,0-5.87-.07l-25.8,14.89-3.39-2a5.74,5.74,0,0,0-5.23,0l-31.32,18.2c-1.45.84-1.45,2.19,0,3l3.3,1.91-37.28,21.51c-1.64.95-1.63,2.49,0,3.43l5.19,3a6.57,6.57,0,0,0,5.92,0l37.28-21.53a5.82,5.82,0,0,0,5.24,0l31.2-18.14c1.41-.81,1.44-2.11.11-3l25.78-14.89C371.21,356.51,371.23,354.94,369.62,354Z" style="fill:#BA68C8;opacity:0.2"></path><path d="M357.68,327.32l6.6-78.44a6.7,6.7,0,0,0-2.93-5.88,7.47,7.47,0,0,0-6.73.13L256.05,300a8.62,8.62,0,0,0-3.81,6l-6.6,78.44a6.7,6.7,0,0,0,2.93,5.88,7.46,7.46,0,0,0,6.73-.12l98.58-56.92A8.59,8.59,0,0,0,357.68,327.32Z" style="fill:#263238"></path><path d="M357.68,327.32l6.6-78.44a6.7,6.7,0,0,0-2.93-5.88,7.47,7.47,0,0,0-6.73.13L256.05,300a7.8,7.8,0,0,0-2.53,2.55l12.08,7-.74,75.15,89-51.4A8.59,8.59,0,0,0,357.68,327.32Z" style="fill:#455a64"></path><path d="M252.16,388.24l6.6-78.44a8.57,8.57,0,0,1,3.8-6l97.37-56.27c1.92-1.1,2.72-.26,2.54,1.95l-4.79,77.84a8.59,8.59,0,0,1-3.8,6L255.3,390.24C253.38,391.34,252,390.45,252.16,388.24Z" style="fill:#37474f"></path><path d="M305.76,319.18c.3-3.63,2.85-7.92,5.69-9.56s4.91,0,4.61,3.6-2.85,7.91-5.69,9.56S305.46,322.81,305.76,319.18Z" style="fill:#BA68C8"></path><polygon points="305.1 349.45 326.17 337.21 322.58 335.13 301.52 347.38 305.1 349.45" style="fill:#455a64"></polygon><path d="M335.94,373.13l-25.65,14.81a3.12,3.12,0,0,1-1.65.37,3.18,3.18,0,0,1-1.39-.35l0,0-11.29-6.52-.06,0a3.29,3.29,0,0,1-1.46-2.61v-.6c0-1,.67-1.38,1.52-.89l6.82,3.93,1.52.88-.34-1.73-2.4-33,3.58,2.07,21.07-12.23,11,33.29A2.65,2.65,0,0,1,335.94,373.13Z" style="fill:#37474f"></path><polygon points="294.87 377.16 303.62 372.11 305.39 383.88 294.87 377.16"></polygon><path d="M305.1,349.45l-3.58-2.07,2.4,33c.2.95-.35,1.34-1.18.85l-6.82-3.93c-.85-.49-1.52-.09-1.52.89v.6a3.29,3.29,0,0,0,1.46,2.61l.06,0,11.29,6.52,0,0a3.18,3.18,0,0,0,1.39.35Z" style="fill:#263238"></path></g><g id="freepik--Body--inject-80"><path d="M157.5,208.05c5.53,1.31,11.21,5.91,14.77,17.09,4.25,13.35,8.31,42.94,8.31,42.94l34.07,14.84-10.52,14.16s-22.48-5.58-33.32-8.74c-11.7-3.41-11.31-6.92-15.05-26.23-2.42-12.5-5-27.86-5-27.86C152,223.74,157.5,208.05,157.5,208.05Z" style="fill:#b16668"></path><path d="M172.25,221.49c-1.32-5-3.76-12.77-17.33-14.42l-5.69,25.57s2.55,14.71,5,27.68c9.35-.54,17.6-1.3,24.3-7.82C176.28,241.15,174.41,229.67,172.25,221.49Z" style="fill:#263238"></path><g id="freepik--Chest--inject-80"><path d="M168,239.76c1.06-22-5.08-30.52-13-32.69-.21,0-15.6-1.43-24.57-1-10.92.53-23.31,3.21-27.28,5-6,2.67-9.53,11.41-11.78,26.81-1.59,10.93-3.44,24.05-5.79,44.83-1.44,12.7-2.61,17.66-1.6,31.55,14.61,7.25,68.06,6,80-13.69-1-4.67-.83-9.95-.83-19.15C163.67,265.36,167.61,246.68,168,239.76Z" style="fill:#f0f0f0"></path><g id="freepik--Head--inject-80"><path d="M124.48,196.58c-.14-6.51-5.47-14.06-7.5-20-2-5.74-3-10.12-1.93-15.09.63-2.94,3.09-6.69,5.42-7.21-.92-11.41,8.12-15.31,12.67-15.71a46.56,46.56,0,0,0,6.34-.8c2.54-.65,3.36-2.49,5.53-3.84,3.74-2.33,9.34-1.57,10.84,3,2.63-2.53,5.62-2,9-.62a6,6,0,0,1,3.54,7.35c5-1.91,8.78,2,8.8,4.77,0,2.06-.66,3.69.39,5.68,1.18,2.24,4,2.62,5.08,1.11,0,2.92-1.38,4.93-4.45,4.32a6.52,6.52,0,0,1,0,5.56,6,6,0,0,1-5.94,3.29c-.56,1.52-.84,2.94-2,4.15a10.44,10.44,0,0,1-4.13,2.74c-5,1.54-10.3,1.5-15.5,1.8l-6.17.36c-.36,0-2.18-.14-2.44.14Z" style="fill:#263238"></path><path d="M118,187.24c4.06,3.32,7.51.88,7.51.88L122.11,209c2.16,9.46,17.24,13.23,23.17,11.52s5.73-5.12,2.85-10.67l.89-3.36a63.29,63.29,0,0,0,7.6.78c5.07,0,9.41-3.43,11.63-8.61A56.62,56.62,0,0,0,172,177.4a19,19,0,0,1,.5-5.26c1.17-4.56.73-7.37.11-11.44-4.82-5.21-17.26-8.58-30.13-3.15.33,7.22-3.22,12.39-8.73,14.31,0,1.93-.51,6.76-3.61,6.21-2.24-.39-2-3.23-3.91-6.06s-7.23-4.28-9.85-.93C112.72,175.77,113.55,183.6,118,187.24Z" style="fill:#b16668"></path><polygon points="165.41 186.31 157.35 189.11 157.01 171.46 165.41 186.31" style="fill:#9a4a4d"></polygon><path d="M149,206.49c-7.75-2.1-13.62-3.84-16.88-10.17a49.86,49.86,0,0,1-3.38-10s-.22,7.11,1.66,12.22c1.44,3.94,5.66,7.86,17.88,10.75Z" style="fill:#9a4a4d"></path><path d="M150.85,176a2.24,2.24,0,1,1-2-2.55A2.28,2.28,0,0,1,150.85,176Z" style="fill:#263238"></path><path d="M150.89,166.63l-5,2.17a2.88,2.88,0,0,1,1.49-3.7A2.69,2.69,0,0,1,150.89,166.63Z" style="fill:#263238"></path><path d="M147.76,189.58l7.07,3.27a4.1,4.1,0,0,1-5.32,1.93A3.81,3.81,0,0,1,147.76,189.58Z" style="fill:#9a4a4d"></path><path d="M151.64,195.1a4.6,4.6,0,0,0-4.22-4.46,3.76,3.76,0,0,0,2.09,4.14A4,4,0,0,0,151.64,195.1Z" style="fill:#f28f8f"></path><path d="M169.77,170.89,165,168.18a2.64,2.64,0,0,1,3.68-1.12A2.89,2.89,0,0,1,169.77,170.89Z" style="fill:#263238"></path><path d="M168.08,177.07a2.24,2.24,0,1,1-1.77-2.71A2.28,2.28,0,0,1,168.08,177.07Z" style="fill:#263238"></path></g></g><g id="freepik--Arm--inject-80"><path d="M73.75,279.08C76.08,259.32,80.61,244.63,85,231c2.61-8,8.86-12.56,18.42-16.67,10.28,7.33,6,30.22,4.5,35.58l-7.58,33.06s8.28,6.58,17.65,13.45c7.92,5.81,13.25,9.3,22.6,10.4s13.14.79,18,2.91c2.6,1.12,8.52,3.74,10.54,4.76s5.64,4.67,9,7.13c3.16,2.51-.78,3.9-3.23,3.19a31.47,31.47,0,0,1-7.35-3.56,41.89,41.89,0,0,0-6.3-2.41,37.81,37.81,0,0,1,1.34,7.36c0,1.34.3,3-.87,4a10.49,10.49,0,0,1-2.81,1.16,2.05,2.05,0,0,1-.56,1.3,3.35,3.35,0,0,1-2.39.62,9.67,9.67,0,0,1-1.36-.21,2.49,2.49,0,0,1-1.51,1.94,10.79,10.79,0,0,1-5.74.21c-.28-.12-2.41-1.27-3-1.59-.9-.48-1.71-.74-2.11-1.33s.84-2.31,1.94-2.49a11.23,11.23,0,0,1,3.65.23,12.92,12.92,0,0,1-1.07-3.14c-1-1.59-8.17,0-14.54-1.07-4.82-.83-8.3-5.4-10.46-6.37-13.87-6.24-24.21-11-38.44-19C71.64,293.77,72.59,288.93,73.75,279.08Z" style="fill:#b16668"></path><path d="M162.51,319.22c-.74-1.81-1.88-4-3.26-4.48a16.73,16.73,0,0,1,2,4.05C161.68,319,162.1,319.09,162.51,319.22Z" style="fill:#9a4a4d"></path><path d="M158.93,331.27a15,15,0,0,0,.12-4,37,37,0,0,0-.51-3.93,17.14,17.14,0,0,0-1.08-3.85,7.16,7.16,0,0,0-2.38-3.17,5.52,5.52,0,0,1,1.09,1.61,11.46,11.46,0,0,1,.75,1.77,27.68,27.68,0,0,1,.87,3.78c.25,1.28.46,2.57.68,3.86A33.57,33.57,0,0,1,158.93,331.27Z" style="fill:#9a4a4d"></path><path d="M154.62,333a18.73,18.73,0,0,0,0-3.89,33.12,33.12,0,0,0-.59-3.85,27.67,27.67,0,0,0-1.06-3.76,7.57,7.57,0,0,0-2-3.33,5.12,5.12,0,0,1,.87,1.69c.21.59.4,1.2.56,1.82.32,1.24.62,2.48.88,3.74C153.82,327.9,154.31,330.41,154.62,333Z" style="fill:#9a4a4d"></path><path d="M144.16,329.72a6.65,6.65,0,0,1,1.61.23c.52.12.89.38,1.54.59l-.26-.42a1.57,1.57,0,0,0,.1.77,2,2,0,0,0,.37.6,2.28,2.28,0,0,0,1.09.71,6.38,6.38,0,0,1-.66-1,3.6,3.6,0,0,1-.16-.5,1.82,1.82,0,0,1,0-.45l0-.3-.3-.12a4.78,4.78,0,0,0-1.52-.32A3.28,3.28,0,0,0,144.16,329.72Z" style="fill:#9a4a4d"></path><path d="M103.07,211.07c-14.32,3.21-17,11.6-19.27,18.67-2.4,7.56-4,14.46-7.72,29.58,6.32,5.54,16.36,7.66,29.24,7.15,2-8.28,4.16-17.47,5-21C112.08,238.53,113.77,217,103.07,211.07Z" style="fill:#263238"></path></g></g></g></g></svg>