<?xml version="1.0" encoding="utf-8"?>
<svg version="1.1" id="Layer_1" xmlns="http://www.w3.org/2000/svg" xmlns:xlink="http://www.w3.org/1999/xlink" x="0px" y="0px"
	 viewBox="0 0 178.1 383.4" style="enable-background:new 0 0 178.1 383.4;" xml:space="preserve">
 <style type="text/css">.st0{fill:#FFA8A7;}
	.st1{fill:#003366;}
	.st2{opacity:0.35;enable-background:new    ;}
	.st3{opacity:0.45;enable-background:new    ;}
	.st4{opacity:0.7;fill:#FFFFFF;enable-background:new    ;}
	.st5{opacity:0.55;enable-background:new    ;}
	.st6{fill:#455A64;}
	.st7{fill:#263238;}
	.st8{fill:#37474F;}
	.st9{fill:#F28F8F;}
	.st10{opacity:0.1;enable-background:new    ;}
	.st11{opacity:0.5;enable-background:new    ;}
	.st12{opacity:0.8;enable-background:new    ;}
	.st13{opacity:0.3;enable-background:new    ;}
	.st14{opacity:0.2;enable-background:new    ;}
	.st15{opacity:0.6;fill:#003366;enable-background:new    ;}</style>
 <g class="layer">
  <title>Layer 1</title>
  <g id="svg_66">
   <g id="svg_67">
    <g id="svg_68">
     <path d="m87,320.8l-1.85,-17.25l19.71,1.29s-0.31,9.35 -0.59,14.64c-0.16,3.13 4.06,8.93 4.06,8.93s-9.2,4.96 -14.22,3.22s-7.58,-7.9 -7.51,-9.2s0.4,-1.63 0.4,-1.63z" fill="#ffa8a7" id="svg_69"/>
     <path d="m134.45,347.69c0.31,0 0.83,3.2 -0.84,4.6c-1.92,1.61 -7.6,4.29 -15.18,3.45s-11.71,-2.9 -14.76,-5.22s-7.36,-5.59 -10.8,-6.23c-3.19,-0.6 -6.66,-1.89 -7.68,-2.79s-0.97,-4.99 -0.97,-4.99l50.23,11.19z" fill="#263238" id="svg_70"/>
     <path d="m86.99,320.77a1.15,1.15 0 0 0 -1.15,0.98c-0.22,1.15 -0.41,4.4 -0.89,6.26a31.3,31.3 0 0 0 -0.57,9.95c0.45,2.08 5.65,3.45 8.98,4.6a42.82,42.82 0 0 1 10.82,6.15c3.6,2.68 11.12,5.4 16.04,5.29c5.83,-0.14 12.37,-2.01 13.8,-4.6c1.81,-3.15 3.1,-6.82 -5.6,-10.42c-1.64,-0.68 -7.44,-3.76 -9.42,-4.89c-5.36,-3.02 -9.13,-5.83 -11.66,-11.31a3.19,3.19 0 0 0 -1.26,-1.67a3.01,3.01 0 0 0 -1.69,-0.11c-1.44,0.22 -7.16,1.06 -8.47,1.67s-2.78,1.15 -2.74,2.55a4.39,4.39 0 0 0 0.34,1.41c0.11,0.28 0.2,0.66 -0.07,0.83s-0.57,0 -0.8,-0.2a21.77,21.77 0 0 1 -2.31,-2.62a8.68,8.68 0 0 0 -1.39,-1.29a14.56,14.56 0 0 1 -1.49,-0.87c-0.56,-0.44 -0.43,-1.05 -0.46,-1.7z" fill="#455a64" id="svg_71"/>
     <path d="m104.2,348.67c-1.53,-1.15 -3.14,-2.23 -4.77,-3.21l0,0s10.27,5.61 14.33,2.92c2.62,-1.74 1.33,-3.77 1.25,-4.43s9.2,-5.45 11.76,-5.75l0,0c0.72,0.37 1.32,0.66 1.7,0.8c8.7,3.6 7.41,7.27 5.6,10.42c-1.46,2.56 -6.19,4.6 -13.72,4.75c-4.93,0.03 -12.56,-2.83 -16.16,-5.51z" fill="#37474f" id="svg_72"/>
     <path d="m114.27,342.04c5.4,1.92 3.13,2.9 1.62,3.12s-10.62,-4.6 -16.21,-8.54c-5.82,-4.16 -9.53,-8.76 -11.69,-10.29c-0.8,-0.57 -1.68,-1.28 -2.45,-1.93c0.13,-1.15 0.22,-2.12 0.32,-2.64a1.15,1.15 0 0 1 1.15,-0.98c0,0.66 -0.08,1.26 0.46,1.74a14.56,14.56 0 0 0 1.49,0.87a8.68,8.68 0 0 1 1.37,1.25a21.77,21.77 0 0 0 2.37,2.58c4.78,5.47 16.16,12.91 21.57,14.83z" fill="#37474f" id="svg_73"/>
     <path d="m115.5,344.43a0.52,0.52 0 0 1 -0.33,-0.11a0.46,0.46 0 0 1 -0.09,-0.69c1.49,-1.77 8.61,-6.01 12.58,-5.68a0.49,0.49 0 1 1 -0.1,0.99c-3.7,-0.3 -10.46,3.91 -11.64,5.3a0.59,0.59 0 0 1 -0.41,0.2z" fill="#263238" id="svg_74"/>
     <path d="m110.77,341.81a0.53,0.53 0 0 1 -0.33,-0.11a0.47,0.47 0 0 1 -0.09,-0.69c1.49,-1.77 8.61,-6.01 12.58,-5.68a0.53,0.53 0 0 1 0.48,0.54a0.53,0.53 0 0 1 -0.59,0.46c-3.69,-0.31 -10.45,3.9 -11.64,5.29a0.53,0.53 0 0 1 -0.41,0.2z" fill="#263238" id="svg_75"/>
     <path d="m106.04,339.33a0.49,0.49 0 0 1 -0.34,-0.1a0.47,0.47 0 0 1 -0.08,-0.7c1.48,-1.76 8.61,-6.01 12.57,-5.67a0.49,0.49 0 0 1 0.48,0.54a0.52,0.52 0 0 1 -0.57,0.45c-3.7,-0.31 -10.46,3.9 -11.65,5.3a0.53,0.53 0 0 1 -0.4,0.18z" fill="#263238" id="svg_76"/>
     <path d="m101.65,336.49a0.63,0.63 0 0 1 -0.34,-0.1a0.47,0.47 0 0 1 -0.08,-0.7c1.48,-1.77 8.62,-6.01 12.57,-5.67a0.49,0.49 0 0 1 0.48,0.53a0.52,0.52 0 0 1 -0.57,0.46c-3.7,-0.31 -10.46,3.9 -11.65,5.29a0.53,0.53 0 0 1 -0.4,0.2z" fill="#263238" id="svg_77"/>
     <path d="m97.34,333.64a0.54,0.54 0 0 1 -0.32,-0.1a0.47,0.47 0 0 1 -0.1,-0.69c2.05,-2.51 9.52,-6.08 13.48,-5.75a0.49,0.49 0 0 1 0.48,0.54a0.53,0.53 0 0 1 -0.57,0.45c-3.56,-0.3 -10.73,3.13 -12.54,5.35a0.52,0.52 0 0 1 -0.41,0.21z" fill="#263238" id="svg_78"/>
     <path d="m48.03,330.19l4.51,-16.3l-20.06,-3.05l-0.9,15.78s-2.14,5.63 -0.91,7.72s14.56,4.43 15.8,3.07s1.56,-7.21 1.56,-7.21z" fill="#ffa8a7" id="svg_79"/>
     <path d="m45.97,365.75c-0.66,5.05 -1.76,8.31 -3.99,11.02s-6.13,3.13 -9.97,1.72s-8.68,-4.42 -9.52,-9.01s-0.43,-7.53 0.76,-12.14l22.72,8.42z" fill="#263238" id="svg_80"/>
     <path d="m31.58,326.55c-1.61,-0.1 -1.3,6.84 -2.66,13.57c-1.45,7.21 -4.12,9.91 -5.37,15.81c-1.45,6.74 -1.24,9.88 1.22,14.41s11.82,9.92 16.94,4.6c4.16,-4.32 4.67,-9.69 4.75,-16.62a154.43,154.43 0 0 1 0.74,-17.54c0.63,-5.12 2.2,-9.65 0.83,-10.41c-0.15,0.74 -0.31,1.68 -0.47,2.41c-0.13,0.55 -0.46,3.32 -1.37,3.23a10.9,10.9 0 0 1 0.1,-1.94a2.18,2.18 0 0 0 -0.33,-1.72a7.57,7.57 0 0 0 -2.58,-1.36c-1.55,-0.49 -4.35,-1.15 -5.94,-1.46c-0.79,-0.17 -1.6,-0.32 -2.4,-0.43a7.19,7.19 0 0 0 -2.05,0a1.25,1.25 0 0 0 -0.91,0.59a1.91,1.91 0 0 0 -0.14,0.77a5.16,5.16 0 0 1 -0.29,1.39c-0.07,0.2 -0.24,0.41 -0.47,0.33s-0.24,-0.28 -0.24,-0.45c0,-0.83 0.21,-1.41 0.31,-2.38c0,-0.44 0.17,-1.03 0.21,-1.48s0.07,-0.9 0.13,-1.33z" fill="#455a64" id="svg_81"/>
     <path d="m24.03,354.02c-0.22,0.98 -1.58,7.42 0.37,8.88s3.62,-3.45 3.62,-3.45s5.21,-0.69 12.48,3.22c-0.45,1.01 0.48,4.69 2.58,4.23s3.35,-7.9 3.37,-7.99c-0.1,6.63 -0.69,11.82 -4.74,16.02c-5.12,5.31 -14.48,-0.08 -16.94,-4.6s-2.67,-7.67 -1.22,-14.41c0.09,-0.67 0.3,-1.29 0.48,-1.9z" fill="#37474f" id="svg_82"/>
     <path d="m28.58,360c-0.18,2.47 -2.9,1.26 -2.81,-2.3s2.79,-11.57 3.15,-17.62c0.59,-8.3 1.05,-13.67 2.66,-13.57c0,0.09 0,0.17 0,0.25l-0.44,3.45c-0.07,0.49 -0.15,0.93 -0.18,1.47c-0.36,5.07 -0.55,14.95 -1.35,19.55a73.02,73.02 0 0 0 -1.03,8.76z" fill="#37474f" id="svg_83"/>
     <path d="m39.64,362.51a70.66,70.66 0 0 0 2.08,-8.52c0.84,-4.52 3.68,-13.57 5.09,-18.4a11.5,11.5 0 0 0 0.74,-2.75c0.15,-0.68 0.3,-1.54 0.45,-2.3l0,-0.15c0.98,0.57 0.59,4.5 0,6.52s-1.22,4.21 -1.91,7.12c-1.75,5.75 -2.02,14.36 -3.15,17.66s-3.98,3.19 -3.3,0.82z" fill="#37474f" id="svg_84"/>
     <path d="m40.65,362.92a0.74,0.74 0 0 1 -0.22,-0.09a22.1,22.1 0 0 0 -12.29,-2.83a0.64,0.64 0 0 1 -0.7,-0.47a0.48,0.48 0 0 1 0.46,-0.59a23.14,23.14 0 0 1 13.14,3.02a0.52,0.52 0 0 1 0.21,0.75a0.57,0.57 0 0 1 -0.6,0.21z" fill="#263238" id="svg_85"/>
     <path d="m42.33,357.7a0.59,0.59 0 0 1 -0.2,-0.08a27.27,27.27 0 0 0 -13.8,-3.15a0.68,0.68 0 0 1 -0.69,-0.49a0.49,0.49 0 0 1 0.48,-0.57a28.44,28.44 0 0 1 14.55,3.33a0.54,0.54 0 0 1 0.23,0.75a0.55,0.55 0 0 1 -0.57,0.22z" fill="#263238" id="svg_86"/>
     <path d="m29.08,349.39a0.64,0.64 0 0 1 -0.48,-0.43a0.48,0.48 0 0 1 0.41,-0.62c7.34,-1.15 14.24,3.05 14.52,3.22a0.52,0.52 0 0 1 0.21,0.75a0.61,0.61 0 0 1 -0.82,0.11c-0.07,0 -6.77,-4.13 -13.59,-3.02a0.63,0.63 0 0 1 -0.25,-0.01z" fill="#263238" id="svg_87"/>
     <path d="m29.79,344.62a0.67,0.67 0 0 1 -0.47,-0.41a0.47,0.47 0 0 1 0.39,-0.63a21.36,21.36 0 0 1 14.83,3.22a0.52,0.52 0 0 1 0.15,0.75a0.63,0.63 0 0 1 -0.83,0.07a20.34,20.34 0 0 0 -13.8,-2.99a0.68,0.68 0 0 1 -0.28,0z" fill="#263238" id="svg_88"/>
     <path d="m30.62,339.25a0.66,0.66 0 0 1 -0.47,-0.41a0.48,0.48 0 0 1 0.39,-0.63c7.57,-1.45 14.63,3.19 14.95,3.38a0.52,0.52 0 0 1 0.17,0.75a0.6,0.6 0 0 1 -0.82,0.09c-0.07,0 -6.9,-4.52 -13.91,-3.17a0.56,0.56 0 0 1 -0.31,0z" fill="#263238" id="svg_89"/>
     <path d="m41.53,158.19c-3.77,39.99 -5.34,93.35 -5.34,93.35c-0.32,3.04 -2.63,12.08 -4.6,27.02c-1.77,13.33 0,40.98 0,42.65c0,0 9.45,6.61 18.24,3.78c0,0 10.88,-41.14 15.68,-59.72c4.6,-17.57 10.61,-45.82 10.61,-45.82l3.45,28.75s-0.83,11.6 -0.63,19.55c0.22,9.3 6.75,46.27 6.75,46.27s10.54,5.96 19.74,-1.01c0,0 3.94,-53.92 4.39,-65.08c0.87,-21.92 0,-65.24 -0.3,-93.55l-68,3.83z" fill="#455a64" id="svg_90"/>
     <path d="m76.11,219.45l5.02,-28.41s10.61,-1.39 16.1,-6.3c0,0 -3.62,6.55 -13.65,8.97l-4.93,25.86l0.9,28.62l-3.44,-28.73z" fill="#263238" id="svg_91"/>
     <path d="m31.04,321.58c2.15,3.01 11.21,5.75 19.09,3.2l1.78,-6.54c-5.94,1.81 -16.1,0.56 -20.87,-3.45l0,6.8z" fill="#FFC100" id="svg_92"/>
     <path d="m85.54,314.42c2.62,2.59 12.65,4.01 20.02,0.07l0.4,-6.3c-5.54,2.84 -16.1,3.09 -21.49,0l1.07,6.23z" fill="#FFC100" id="svg_93"/>
    </g>
    <g id="svg_94">
     <path d="m96.08,77.9c9.98,2.3 11.74,4.2 15.07,9.88s11.67,23.54 11.67,23.54s1.08,-0.74 3.51,5.01s1.67,6.53 1.67,6.53a13.06,13.06 0 0 0 -9.49,3.35c-4.42,3.93 -8.28,11.59 -8.28,11.59s-1.03,-0.57 -3.59,-4.21s-19.34,-30.36 -19.34,-30.36l8.77,-25.33z" fill="#f0f0f0" id="svg_95"/>
     <path d="m111.53,116.91a26.94,26.94 0 0 1 4.54,-2.77a21.85,21.85 0 0 1 2.38,-1.03a21.61,21.61 0 0 0 2.71,-0.94c0.23,-0.13 0,-0.54 -0.21,-0.53a10.35,10.35 0 0 0 -2.92,0.74a25.96,25.96 0 0 0 -2.81,1.15a23,23 0 0 0 -4.99,3.16c-2.76,2.3 -5.27,5.75 -4.91,9.53c0,0.16 0.22,0.36 0.29,0.1a16.83,16.83 0 0 1 2.18,-5.44a15.98,15.98 0 0 1 3.73,-3.97zm10.85,-0.2a8.37,8.37 0 0 0 -2.54,0.44a22.09,22.09 0 0 0 -2.43,0.78a21.53,21.53 0 0 0 -4.66,2.47a15.43,15.43 0 0 0 -3.59,3.45a8.69,8.69 0 0 0 -1.21,2.37a11.57,11.57 0 0 0 -0.64,2.7c0,0.08 0.09,0.21 0.16,0.1a23.22,23.22 0 0 0 1.01,-2.47a12.1,12.1 0 0 1 1.37,-2.3a16.1,16.1 0 0 1 3.69,-3.37a22.3,22.3 0 0 1 4.28,-2.24c0.76,-0.3 1.53,-0.57 2.3,-0.8a12.49,12.49 0 0 0 2.3,-0.72c0.16,-0.14 0.1,-0.4 -0.05,-0.4z" id="svg_96" opacity="0.1"/>
     <path d="m139.78,84.54c-0.17,5.52 -1.78,7.38 -5.13,11.6l16.76,3.78c5.27,-5.63 7.28,-11.11 2.96,-18.69l-8.84,-10.87s-5.75,10.76 -5.75,14.17z" fill="#ffa8a7" id="svg_97"/>
     <g id="svg_98">
      <path d="m159.2,93.24a7.35,7.35 0 0 0 5.09,-4.28a2.3,2.3 0 0 0 -0.2,-2.38l-16.49,-19.63l-7.2,6.05l16.48,19.63a2.3,2.3 0 0 0 2.31,0.61z" fill="#FFC100" id="svg_99"/>
      <path d="m143.37,75.17a8.44,8.44 0 0 0 5.86,-4.92a2.68,2.68 0 0 0 -0.22,-2.74l-1.05,-1.24l-8.28,6.97l1.02,1.23a2.67,2.67 0 0 0 2.66,0.7z" fill="#FFC100" id="svg_100"/>
      <path d="m143.37,75.17a8.44,8.44 0 0 0 5.86,-4.92a2.68,2.68 0 0 0 -0.22,-2.74l-1.05,-1.24l-8.28,6.97l1.02,1.23a2.67,2.67 0 0 0 2.66,0.7z" fill="#fff" id="svg_101" opacity="0.2"/>
      <path d="m148.17,68.99c0.84,-2.3 -0.44,-3.82 -2.84,-3.39a8.45,8.45 0 0 0 -5.86,4.93c-0.84,2.3 0.44,3.81 2.84,3.38a8.46,8.46 0 0 0 5.86,-4.92z" fill="#FFC100" id="svg_102"/>
      <path d="m143.15,71.56a3.67,3.67 0 0 0 2.56,-2.15a1.15,1.15 0 0 0 -0.09,-1.15l-22.16,-26.45l-3.62,3.05l22.15,26.45a1.15,1.15 0 0 0 1.16,0.25z" fill="#455a64" id="svg_103"/>
      <path d="m122.29,42.79l1.15,-0.99l22.16,26.45a1.15,1.15 0 0 1 0.09,1.15a2.85,2.85 0 0 1 -0.45,0.78l-22.95,-27.39z" fill="#37474f" id="svg_104"/>
      <path d="m107.66,37.78a5.28,5.28 0 0 1 1.41,-2.18a9.66,9.66 0 0 1 5.37,-2.71c0.36,-0.08 0.94,-0.17 1.3,-0.24l4.81,-0.85a2.96,2.96 0 0 1 1.26,0.11l0.78,0.28a2.77,2.77 0 0 0 1.26,0.11l2.53,-0.22a0.94,0.94 0 0 1 0.94,0.48l1.22,2.62a0.51,0.51 0 0 1 0,0.4c0,0.15 -2.08,5.63 -2.09,5.75a0.48,0.48 0 0 1 -0.43,0.39l-1.15,0.21a1.25,1.25 0 0 0 -0.87,0.74l-0.39,1.08a1.25,1.25 0 0 1 -0.87,0.74l-6.03,1.07a1.49,1.49 0 0 1 -1.15,-0.36a9.66,9.66 0 0 0 -3.77,-2.44a5.89,5.89 0 0 0 -6.31,3.68a4.5,4.5 0 0 1 0,-2.96c0.33,-0.68 1.68,-4.15 2.17,-5.7z" fill="#455a64" id="svg_105"/>
      <path d="m126.07,41.77l-1.15,0.21a1.25,1.25 0 0 0 -0.87,0.74l-0.39,1.08a1.25,1.25 0 0 1 -0.87,0.74l-6.03,1.07a1.49,1.49 0 0 1 -1.15,-0.36a9.66,9.66 0 0 0 -3.77,-2.44a5.89,5.89 0 0 0 -6.31,3.68a4.69,4.69 0 0 1 1.4,-5a9.75,9.75 0 0 1 5.37,-2.73l1.3,-0.23l4.79,-0.85a2.99,2.99 0 0 1 1.28,0.1l0.78,0.29a2.93,2.93 0 0 0 1.26,0.11l2.53,-0.22a0.93,0.93 0 0 1 0.94,0.47l1.22,2.63a0.46,0.46 0 0 1 -0.33,0.7z" fill="#37474f" id="svg_106"/>
      <path d="m124.93,41.11a8.96,8.96 0 0 1 -1.41,-8.05a2.84,2.84 0 0 1 2.04,-2.07l4.6,-0.8l1.99,11.29l-4.6,0.8a2.82,2.82 0 0 1 -2.61,-1.17z" fill="#263238" id="svg_107"/>
      <path d="m128.13,32.31c0.89,-2.44 2.96,-2.79 4.6,-0.82a8.95,8.95 0 0 1 1.41,8.05c-0.89,2.44 -2.94,2.79 -4.6,0.82a8.96,8.96 0 0 1 -1.41,-8.05z" fill="#455a64" id="svg_108"/>
      <path d="m114.87,36.48a2.3,2.3 0 0 0 1.63,-1.37a0.75,0.75 0 0 0 -0.07,-0.76l-0.78,-0.93l-2.3,1.93l0.78,0.93a0.7,0.7 0 0 0 0.74,0.2z" fill="#263238" id="svg_109"/>
      <path d="m115.71,34.17c0.23,-0.63 -0.13,-1.06 -0.79,-0.93a2.3,2.3 0 0 0 -1.62,1.37c-0.24,0.63 0.11,1.06 0.78,0.93a2.3,2.3 0 0 0 1.63,-1.37z" fill="#37474f" id="svg_110"/>
      <path d="m106.59,40.8a10.97,10.97 0 0 1 3.76,-3.45a6.11,6.11 0 0 0 -3.17,1.85l-0.59,1.6z" fill="#37474f" id="svg_111"/>
      <path d="m161.1,90.33l0,0a0.87,0.87 0 0 0 0.1,-1.24l-12.44,-14.82a0.89,0.89 0 0 0 -1.24,-0.1l0,0a0.89,0.89 0 0 0 -0.1,1.24l12.45,14.82a0.87,0.87 0 0 0 1.23,0.1z" id="svg_112" opacity="0.2"/>
      <path d="m158.46,91.85l0,0a0.51,0.51 0 0 0 0.26,-0.85l-12.65,-15.01a1.15,1.15 0 0 0 -1.25,-0.3l0,0a0.51,0.51 0 0 0 -0.26,0.85l12.65,14.95a1.15,1.15 0 0 0 1.25,0.36z" id="svg_113" opacity="0.2"/>
      <path d="m163.05,87.99l0,0a0.51,0.51 0 0 1 -0.89,0.11l-12.65,-14.95a1.15,1.15 0 0 1 -0.08,-1.29l0,0a0.51,0.51 0 0 1 0.89,-0.11l12.65,14.95a1.21,1.21 0 0 1 0.08,1.29z" id="svg_114" opacity="0.2"/>
     </g>
     <path d="m139.78,84.54a38.69,38.69 0 0 1 0.21,-4a38.81,38.81 0 0 1 1,-4.6a4.21,4.21 0 0 1 0.75,-1.67a4.93,4.93 0 0 1 0.95,-0.79q3.73,-2.58 7.46,-5.13a2.15,2.15 0 0 1 1.67,-0.56c0.78,0.18 1.09,1.15 1.03,1.95c-0.17,2.84 -2.98,4.88 -3.58,7.66a21.18,21.18 0 0 0 -0.13,3.73a4.13,4.13 0 0 1 -1.4,3.32a4.4,4.4 0 0 1 -2.3,0.66a9.69,9.69 0 0 1 -3.45,-0.23a7.75,7.75 0 0 0 -2.22,-0.33z" fill="#ffa8a7" id="svg_115"/>
     <path d="m149.56,69.3c2.15,-0.59 6.62,-1.31 7.69,1.33l0,0.11a5.84,5.84 0 0 0 0.52,1.26c0.4,0.62 1.15,0.99 1.56,1.56a9.93,9.93 0 0 1 1.08,2.53c0.44,1.02 1.15,1.87 1.67,2.86a6.39,6.39 0 0 1 0.64,2.76a11.97,11.97 0 0 1 -0.85,3.89a2.04,2.04 0 0 1 -2.2,1.36a2.91,2.91 0 0 1 -1.29,-0.64a6.9,6.9 0 0 1 -0.71,-1.09a3.45,3.45 0 0 1 -1.45,-0.1a2.1,2.1 0 0 1 -1.15,-1.15a4.4,4.4 0 0 1 -0.29,-1.63c-1.46,0.15 -2.02,-1.38 -1.95,-2.58c0.11,-1.92 1.41,-4.79 0,-6.51c0.05,-0.02 -3.28,-3.97 -3.28,-3.97z" fill="#ffa8a7" id="svg_116"/>
     <path d="m134.59,96.15c-11.25,12.81 -16.88,17.79 -22.01,26.07c-4.5,7.26 -3.37,15.68 -1.07,17.25c3.35,2.36 12.65,1.43 20.2,-4.99c6.98,-5.97 10.44,-19.72 19.64,-34.6l-16.76,-3.73z" fill="#ffa8a7" id="svg_117"/>
     <path d="m62.05,75.24c-4.02,0.83 -16.27,5.75 -20.92,8.32c0,0 -5.37,11.22 -2.64,37.22c0.44,4.15 1.54,15.37 2.06,24.03a135.6,135.6 0 0 1 -0.15,21.17s10.94,9.57 39.43,7.42c22.38,-1.68 29.09,-10.88 29.09,-10.88s-0.09,-30.17 -0.68,-46.67c-0.76,-21.66 -7.32,-34.16 -12.15,-37.95l-14.68,-2.44l-19.35,-0.23z" fill="#f0f0f0" id="svg_118"/>
     <path d="m55.29,77.41l-6.73,2.6c4.86,4.31 9.85,19.41 11.35,29.11l6.9,-2.3c-1.46,-9.7 -6.66,-25.07 -11.52,-29.41z" fill="#455a64" id="svg_119"/>
     <path d="m93.78,77.5l-7.82,-1.23c4.86,4.3 9.93,19.38 11.44,29.07l7.14,0.37c-1.51,-9.74 -5.94,-23.89 -10.76,-28.21z" fill="#455a64" id="svg_120"/>
     <path d="m52.3,171.05c3,0.7 8.12,-1.46 7.58,-16.65s-3.54,-44.2 -3.54,-44.2s14.95,-5.67 29.52,-6.9s21.23,0.2 21.23,0.2c2.04,10.27 2.2,46.12 1.84,64.24c-19.38,12.02 -50.43,7.87 -56.62,3.31z" fill="#455a64" id="svg_121"/>
     <path d="m70.68,115.59a49.66,49.66 0 0 1 6.83,-2.04a60.29,60.29 0 0 1 7.04,-1.15a54.72,54.72 0 0 1 7.13,-0.34a44.36,44.36 0 0 1 7.09,0.66c-1.15,0 -2.37,-0.09 -3.55,0l-1.77,0l-1.76,0.07c-2.36,0.1 -4.7,0.25 -7.05,0.53s-4.67,0.59 -7,0.97c-1.15,0.2 -2.3,0.41 -3.45,0.64s-2.35,0.44 -3.51,0.67z" fill="#263238" id="svg_122"/>
     <path d="m98.77,112.69a24.38,24.38 0 0 1 0.13,5.65a10.74,10.74 0 0 1 -2.01,5.34a9.89,9.89 0 0 1 -4.77,3.21a24.15,24.15 0 0 1 -5.61,1.08a21.59,21.59 0 0 1 -5.75,-0.31a13.61,13.61 0 0 1 -5.31,-2.17a11.04,11.04 0 0 1 -3.66,-4.37a14.13,14.13 0 0 1 -1.15,-5.52a14.61,14.61 0 0 0 1.55,5.32a10.44,10.44 0 0 0 3.65,4a16.89,16.89 0 0 0 10.57,2.16a22.69,22.69 0 0 0 5.42,-0.97a9.65,9.65 0 0 0 4.5,-2.86a10.35,10.35 0 0 0 2.12,-4.98a28.13,28.13 0 0 0 0.34,-5.58z" fill="#263238" id="svg_123"/>
     <path d="m66.26,112.64a2.02,2.02 0 1 1 -2.01,-2.02a2.01,2.01 0 0 1 2.01,2.02z" fill="#263238" id="svg_124"/>
     <path d="m103.68,107.68a2.02,2.02 0 1 1 -2.02,-2.02a2.02,2.02 0 0 1 2.02,2.02z" fill="#263238" id="svg_125"/>
     <path d="m59.43,75.35l0,1.44s5.37,12.89 5.82,38.3s0,77.21 0,77.21s-12.22,2.3 -27.19,-4.09c0,0 2.02,-24.8 1.77,-34.9s-2.3,-27.99 -3.17,-42.61a73.66,73.66 0 0 1 3.96,-27.47l18.82,-7.88z" fill="#FFC100" id="svg_126"/>
     <path d="m51.24,175.15a76.26,76.26 0 0 0 14.2,0.85c0,-1.15 0,-2.24 0,-3.45a75.8,75.8 0 0 1 -14.2,-0.85a77.04,77.04 0 0 1 -11.86,-2.64c-0.06,1.15 -0.13,2.37 -0.2,3.54a85.56,85.56 0 0 0 12.05,2.55z" fill="#fff" id="svg_127"/>
     <path d="m65.35,185.66c0,-1.02 0,-2.17 0,-3.45a74.21,74.21 0 0 1 -14.29,-0.87a76.47,76.47 0 0 1 -12.23,-2.74c-0.09,1.26 -0.17,2.45 -0.25,3.53a83.84,83.84 0 0 0 12.44,2.68a74.84,74.84 0 0 0 14.34,0.85z" fill="#fff" id="svg_128"/>
     <path d="m81.7,74.52l14.38,3.38s8.59,5.37 11.64,25.3s2.82,81.52 2.82,81.52a16.57,16.57 0 0 1 -6.68,2.21s-0.25,-35.82 -1.51,-57.73c-1.53,-26.45 -5.12,-42.94 -20.44,-53.71l-0.21,-0.97z" fill="#FFC100" id="svg_129"/>
     <path d="m110.54,179.5c0,-1.06 0,-2.24 0,-3.56c-2.22,0.67 -4.48,1.26 -6.77,1.75c0,1.26 0,2.43 0,3.45c2.3,-0.43 4.55,-0.98 6.77,-1.63z" fill="#fff" id="svg_130"/>
     <path d="m103.6,167.85c0,1.15 0,2.3 0,3.45q3.45,-0.78 6.83,-1.84c0,-1.15 0,-2.3 0,-3.56c-2.22,0.76 -4.51,1.41 -6.83,1.95z" fill="#fff" id="svg_131"/>
     <path d="m78.25,124.71c4.36,-2.69 6.52,-3.69 8.47,-4.06s8.9,-2.58 11.5,-2.99c1.66,-0.26 2.09,2.38 -0.14,3.98c-1.71,1.23 -6.03,2.67 -7.92,3.45s-5.86,4.86 -5.86,4.86l-6.05,-5.24z" fill="#f28f8f" id="svg_132"/>
     <path d="m30.17,91.33c3.71,-4.31 5.46,-5.21 10.19,-6.75c13.61,7.08 4.98,33.54 4.98,33.54l-7.51,21.85s20.08,-0.59 23,-2.12s11.05,-8.85 13.8,-11.03c3.68,-2.97 5.32,-2.38 7.03,-1.97c5.57,1.33 6.76,1.92 7.89,2.78a2.59,2.59 0 0 1 0.91,2.3c1.48,0.31 3.73,0.46 3.79,2.96a6.58,6.58 0 0 1 -0.08,1.98a1.64,1.64 0 0 1 0.93,0.64c1.15,1.55 -1.46,6.36 -2.93,7.46c-1.02,0.77 -2.39,0.76 -4.15,0.37c-1.51,-0.34 -0.67,-1.83 -0.67,-1.83l-2.13,-0.06c-4.88,2.85 -5.68,9.29 -11.87,10.19a40.52,40.52 0 0 0 -7.53,0.79c-13.45,3.24 -34.5,10.76 -46.24,10.74c-11.5,0 -8.52,-12.95 -7.01,-21.26c1.07,-6.13 11.36,-43.35 17.6,-50.59z" fill="#ffa8a7" id="svg_133"/>
     <path d="m90.4,129.94l-6.59,-1.93l6.53,1a2.92,2.92 0 0 1 0.06,0.93z" fill="#f28f8f" id="svg_134"/>
     <path d="m94.12,134.91l-7.62,-1.68l7.72,0.78a4.94,4.94 0 0 1 -0.09,0.9z" fill="#f28f8f" id="svg_135"/>
     <path d="m91.62,138.79a8.19,8.19 0 0 1 -1.06,0.21a26.55,26.55 0 0 1 -2.7,-0.06a3.17,3.17 0 0 1 -1.15,1.4a18.1,18.1 0 0 1 -1.6,1.15l2.13,0.06a3.33,3.33 0 0 1 2.3,-1.06a1.56,1.56 0 0 1 1.01,0.28a2.41,2.41 0 0 1 0.71,0.91a2.09,2.09 0 0 0 -0.57,-1.06a1.52,1.52 0 0 0 -0.78,-0.38l0.53,-0.91a5.38,5.38 0 0 0 1.15,-0.31a2.61,2.61 0 0 0 1.15,-0.8a3.15,3.15 0 0 1 -1.12,0.57z" fill="#f28f8f" id="svg_136"/>
     <path d="m40.66,83.22c-8.68,3.02 -11.8,5.47 -14.95,13.05c-3.93,9.44 -9.28,30.15 -10.62,34.05c-3.33,4.77 -2.55,11.6 -2.55,11.6s13.02,-8.96 25.3,-1.95c0,0 6.7,-17.51 8.15,-20.86s7.82,-28.54 -5.32,-35.89z" fill="#f0f0f0" id="svg_137"/>
     <path d="m37.44,133.92a16.32,16.32 0 0 0 -8.98,-4.43a21.53,21.53 0 0 0 -11.05,1.08s0,0.11 0,0.1a36.93,36.93 0 0 1 5.59,-0.89a23.11,23.11 0 0 1 5.75,0.33a20.06,20.06 0 0 1 4.6,1.52a21.93,21.93 0 0 1 3.93,2.51c0.16,0.09 0.16,-0.15 0.16,-0.23zm-7.3,-0.44a14.55,14.55 0 0 0 -7.27,-0.15s0,0.07 0,0.07a22.19,22.19 0 0 1 7.34,0.64a18.18,18.18 0 0 1 3.45,1.35c1.06,0.54 2,1.24 3.01,1.84c0.09,0 0.13,-0.14 0.08,-0.18a14.04,14.04 0 0 0 -6.63,-3.56l0.02,0z" id="svg_138" opacity="0.1"/>
     <g id="svg_139">
      <path d="m56.3,29.31s-4.13,0 -6.2,3.09s-3.45,8.72 -1.31,15.22c2.4,7.16 7.37,14.18 8.44,16.2a5.61,5.61 0 0 0 3.24,2.6l-0.22,-8.7l-0.32,-6.06s4.89,-4.44 5.3,-8.8a13.94,13.94 0 0 0 -1.64,-8.77l-7.29,-4.78z" fill="#37474f" id="svg_140"/>
      <path d="m94.39,30.27c-3.91,-12.22 -10.46,-12.5 -20.26,-11.98c-11.96,0.64 -18.17,6.49 -19.02,11.37l8.34,8.3l30.79,2.01a21.5,21.5 0 0 0 0.15,-9.7z" fill="#37474f" id="svg_141"/>
      <path d="m52.3,60.27c4.51,2.18 6.57,-1.38 6.57,-1.38l0.68,17.94c8.65,11.58 31.75,7.39 22.27,-1.28l0,-4.09a27.6,27.6 0 0 0 3.9,-0.38c3.99,-0.63 6.5,-3.81 7.68,-8.12c1.76,-6.39 2.45,-16.63 0,-27.52c-0.46,-2.1 -1.37,-4.39 -3.3,-5.35c-4.78,-2.37 -9.2,1.05 -15.89,3.65c-2.76,1.08 -9.46,1.55 -11.23,0.72c2.3,2.56 2.3,10.68 -1.15,13.98a7.43,7.43 0 0 1 -1.72,2.24c-1.46,1.26 -2.66,-2.01 -3.88,-3.29a5.02,5.02 0 0 0 -7.82,1.79a8.19,8.19 0 0 0 3.9,11.07z" fill="#ffa8a7" id="svg_142"/>
      <path d="m81.8,71.46c-5.24,0 -9.89,-0.68 -12.98,-1.98s-5.83,-5.48 -6.73,-9.62c0,3.33 1.47,9.2 6.15,11.71s10.14,2.59 13.57,2.67l-0.01,-2.77z" fill="#f28f8f" id="svg_143"/>
      <path d="m74.24,40.41l-4.43,1.86a2.53,2.53 0 0 1 1.33,-3.22a2.3,2.3 0 0 1 3.09,1.36z" fill="#37474f" id="svg_144"/>
      <path d="m90.81,40.31l-4.5,-1.79a2.3,2.3 0 0 1 3.07,-1.4a2.54,2.54 0 0 1 1.43,3.2z" fill="#37474f" id="svg_145"/>
      <path d="m71.55,45.98a1.97,1.97 0 1 0 1.89,-2.02a1.97,1.97 0 0 0 -1.89,2.02z" fill="#263238" id="svg_146"/>
      <path d="m87.05,45.22a1.95,1.95 0 1 0 3.91,-0.14a1.97,1.97 0 0 0 -2.02,-1.89a1.78,1.78 0 0 0 -1.89,2.02z" fill="#263238" id="svg_147"/>
      <path d="m79.7,41.63l1.61,12.46l6.58,-2.44a29.32,29.32 0 0 0 -8.19,-10.03z" fill="#f28f8f" id="svg_148"/>
      <path d="m75.62,56.26l7.89,2.61a4.08,4.08 0 0 1 -5.17,2.78a4.36,4.36 0 0 1 -2.71,-5.39z" fill="#b16668" id="svg_149"/>
      <path d="m76.46,57.67a5.06,5.06 0 0 0 -1,-0.09a4.31,4.31 0 0 0 2.87,4.07a4.37,4.37 0 0 0 1.32,0.18a3.82,3.82 0 0 0 -3.2,-4.16z" fill="#f28f8f" id="svg_150"/>
     </g>
     <path d="m72.87,30.64c4.45,-1.54 12.02,-1.83 16.1,-1.24c-0.83,-2.9 -0.99,-6.59 -8.28,-6.08s-8.46,3.68 -7.82,7.32z" fill="#37474f" id="svg_151"/>
     <path d="m46.56,40.87a24.51,24.51 0 0 0 2.23,6.75a23.24,23.24 0 0 1 1.55,-2.04a41.39,41.39 0 0 1 11.34,-9.2l0,0c9.93,-5.65 22.43,-8.28 32.77,-6.29a23.66,23.66 0 0 0 -2.3,-5.63a24.58,24.58 0 0 0 -45.58,16.44l-0.01,-0.03z" fill="#FFC100" id="svg_152"/>
     <path d="m55.19,15.64c1.15,-0.69 7.21,-3.04 7.68,-3.22c3.13,-1.23 8.27,-1.59 13.9,2.3a25.02,25.02 0 0 1 9.34,12.65l-6.4,2.58l-2.08,0.37c-1.15,-4.75 -8.35,-14.64 -17.32,-14.32a9.41,9.41 0 0 0 -1.25,0.11a11.5,11.5 0 0 0 -3.45,0.99a33.17,33.17 0 0 0 -3.24,3.05a5.5,5.5 0 0 1 2.83,-4.51z" fill="#FFC100" id="svg_153"/>
     <path d="m55.19,15.64c1.15,-0.69 7.21,-3.04 7.68,-3.22c3.13,-1.23 8.27,-1.59 13.9,2.3a25.02,25.02 0 0 1 9.34,12.65l-6.4,2.58l-2.08,0.37c-1.15,-4.75 -8.35,-14.64 -17.32,-14.32a9.41,9.41 0 0 0 -1.25,0.11a11.5,11.5 0 0 0 -3.45,0.99a33.17,33.17 0 0 0 -3.24,3.05a5.5,5.5 0 0 1 2.83,-4.51z" fill="#fff" id="svg_154" opacity="0.45"/>
     <path d="m77.69,30.41c-1.37,-5.54 -10.98,-18.14 -21.99,-13.23a33.47,33.47 0 0 0 -3.25,3.06a5.53,5.53 0 0 1 2.79,-4.6c2.83,-1.66 8.68,-2.82 15.19,1.71a24.91,24.91 0 0 1 9.33,12.65l-2.07,0.41z" fill="#FFC100" id="svg_155"/>
     <path d="m77.69,30.41c-1.37,-5.54 -10.98,-18.14 -21.99,-13.23a33.47,33.47 0 0 0 -3.25,3.06a5.53,5.53 0 0 1 2.79,-4.6c2.83,-1.66 8.68,-2.82 15.19,1.71a24.91,24.91 0 0 1 9.33,12.65l-2.07,0.41z" id="svg_156" opacity="0.3"/>
     <path d="m61.36,34.44a27.6,27.6 0 0 1 10.14,-10.57c4.82,-3.08 15.11,-4.05 19.74,-4.33c8.05,-0.52 10.18,1.05 10.35,2.23c0,0.28 0.26,1.59 0.32,1.87a1.15,1.15 0 0 1 -0.1,0.78c-1.07,1.93 -7.36,5.63 -7.36,5.63c-10.35,-1.99 -22.84,0.64 -32.77,6.29l-0.32,-1.91z" fill="#FFC100" id="svg_157"/>
     <path d="m61.36,34.44a27.6,27.6 0 0 1 10.14,-10.57c4.82,-3.08 15.11,-4.05 19.74,-4.33c8.05,-0.52 10.18,1.05 10.35,2.23c0,0.28 0.26,1.59 0.32,1.87a1.15,1.15 0 0 1 -0.1,0.78c-1.07,1.93 -7.36,5.63 -7.36,5.63c-10.35,-1.99 -22.84,0.64 -32.77,6.29l-0.32,-1.91z" id="svg_158" opacity="0.15"/>
     <path d="m61.7,36.35c9.93,-5.65 22.43,-8.28 32.77,-6.29c0,0 6.29,-3.7 7.36,-5.63c0.56,-1.07 -0.23,-3.62 -10.26,-2.98c-4.6,0.3 -14.95,1.25 -19.74,4.33a27.6,27.6 0 0 0 -10.13,10.57z" fill="#FFC100" id="svg_159"/>
     <path d="m61.7,36.35c9.93,-5.65 22.43,-8.28 32.77,-6.29c0,0 6.29,-3.7 7.36,-5.63c0.56,-1.07 -0.23,-3.62 -10.26,-2.98c-4.6,0.3 -14.95,1.25 -19.74,4.33a27.6,27.6 0 0 0 -10.13,10.57z" id="svg_160" opacity="0.3"/>
    </g>
   </g>
  </g>
 </g>
</svg>