<?xml version="1.0" encoding="utf-8"?>
<svg version="1.1" id="Layer_1" xmlns="http://www.w3.org/2000/svg" xmlns:xlink="http://www.w3.org/1999/xlink" x="0px" y="0px"
	 viewBox="0 0 178.1 383.4" style="enable-background:new 0 0 178.1 383.4;" xml:space="preserve">
 <style type="text/css">.st0{fill:#FFA8A7;}
	.st1{fill:#003366;}
	.st2{opacity:0.35;enable-background:new    ;}
	.st3{opacity:0.45;enable-background:new    ;}
	.st4{opacity:0.7;fill:#FFFFFF;enable-background:new    ;}
	.st5{opacity:0.55;enable-background:new    ;}
	.st6{fill:#455A64;}
	.st7{fill:#263238;}
	.st8{fill:#37474F;}
	.st9{fill:#F28F8F;}
	.st10{opacity:0.1;enable-background:new    ;}
	.st11{opacity:0.5;enable-background:new    ;}
	.st12{opacity:0.8;enable-background:new    ;}
	.st13{opacity:0.3;enable-background:new    ;}
	.st14{opacity:0.2;enable-background:new    ;}
	.st15{opacity:0.6;fill:#003366;enable-background:new    ;}</style>
 <g class="layer">
  <title>Layer 1</title>
  <g id="svg_64">
   <g id="svg_65">
    <g id="svg_66">
     <polygon id="svg_67" points="85.34033966064453,324.1626892089844 90.78480529785156,322.1654052734375 88.98649597167969,318.6222229003906 85.63838195800781,321.6468811035156 85.34033966064453,324.1626892089844 "/>
     <path d="m79.64,314.73s-0.19,3.41 -0.25,4.49s4.73,4.4 5.96,4.94l0.29,-2.51a20.31,19.63 0 0 1 2.76,4.07c0.93,1.54 2.1,4.42 4.63,6.4c3.77,2.89 9.61,4.39 15.58,4.57s9.37,-1.24 11.07,-2.49s2.22,-2.71 1.79,-4.16s-41.86,-15.29 -41.86,-15.29l0.02,0l0,-0.01z" fill="#263238" id="svg_68"/>
     <path d="m95.54,303l0.06,-1.99c1.11,0 1.24,2.89 2.86,5.35a53.3,51.5 0 0 0 8.45,10.28c6.07,5.25 11.49,8.57 14.18,10.94c3.62,3.18 -2.7,8.27 -12.42,7.8c-4.84,-0.25 -13.43,-2.53 -15.84,-5.27s-3.98,-7 -5.88,-8.99s-6.1,-3.98 -7.31,-6.38c-0.67,-1.33 -0.33,-4.44 0.05,-7.06c0.34,-2.43 0.41,-6.13 1.83,-5.84l0.11,1.24c0.58,1.06 1.94,2.8 5.83,3.41c1.94,0.29 7.75,0.44 8.08,-3.49l0,0.02z" fill="#37474f" id="svg_69"/>
     <path d="m90.6,306.55c1.86,-0.16 3.85,-0.75 4.63,-2.37c0,0 0,0 0,-0.06a4.69,4.52 0 0 0 1.27,3.84c1.75,1.93 12.81,15.7 12.81,15.7s-10.3,-11.34 -12.25,-13.45c-2.92,-3.16 -3.85,-3.53 -6.5,-3.61l0.04,-0.06l0,0.02l0,-0.01z" id="svg_70"/>
     <path d="m93.04,310.21a0.6,0.57 0 1 1 -0.52,-0.62a0.57,0.56 0 0 1 0.52,0.62z" id="svg_71"/>
     <path d="m95.93,313.24a0.6,0.58 0 0 1 -0.65,0.5a0.6,0.57 0 0 1 0.11,-1.14a0.6,0.58 0 0 1 0.54,0.64z" id="svg_72"/>
     <path d="m98.82,316.28a0.58,0.57 0 0 1 -0.65,0.5a0.58,0.57 0 1 1 0.13,-1.12a0.57,0.56 0 0 1 0.52,0.62z" id="svg_73"/>
     <path d="m101.71,319.33a0.6,0.58 0 0 1 -0.65,0.5a0.6,0.57 0 1 1 0.13,-1.14a0.6,0.57 0 0 1 0.52,0.64z" id="svg_74"/>
     <path d="m104.6,322.36a0.6,0.57 0 1 1 -0.54,-0.62a0.6,0.57 0 0 1 0.54,0.62z" id="svg_75"/>
     <path d="m92.44,310.37a0.33,0.31 0 0 1 -0.16,-0.06a0.25,0.23 0 0 1 0,-0.33a9.8,9.48 0 0 1 6.73,-2.59l0,0a0.25,0.23 0 0 1 0.21,0.25a0.23,0.23 0 0 1 -0.25,0.23a9.41,9.11 0 0 0 -6.35,2.47a0.29,0.29 0 0 1 -0.18,0.06l0,-0.02l-0.01,-0.01z" fill="#263238" id="svg_76"/>
     <path d="m95.36,313.41a0.25,0.23 0 0 1 -0.16,-0.06a0.25,0.25 0 0 1 0,-0.33a9.82,9.48 0 0 1 6.73,-2.58l0,0a0.25,0.23 0 1 1 0,0.46c-3.54,-0.18 -6.33,2.43 -6.36,2.47a0.21,0.21 0 0 1 -0.19,0.06l0,-0.02l-0.01,0z" fill="#263238" id="svg_77"/>
     <path d="m98.2,316.46a0.27,0.25 0 0 1 -0.15,-0.06a0.23,0.23 0 0 1 0,-0.33a9.8,9.48 0 0 1 6.73,-2.59l0,0a0.25,0.25 0 0 1 0.23,0.25a0.25,0.23 0 0 1 -0.27,0.23a9.45,9.14 0 0 0 -6.35,2.47a0.27,0.25 0 0 1 -0.19,0.06l0,-0.02l0,-0.01z" fill="#263238" id="svg_78"/>
     <path d="m101.11,319.49a0.25,0.23 0 0 1 -0.16,-0.06a0.25,0.25 0 0 1 0,-0.33a9.82,9.48 0 0 1 6.73,-2.58l0,0a0.23,0.23 0 0 1 0.21,0.25a0.25,0.23 0 0 1 -0.25,0.21c-3.54,-0.18 -6.33,2.43 -6.36,2.47a0.21,0.21 0 0 1 -0.16,0.06l0,-0.02l-0.01,0z" fill="#263238" id="svg_79"/>
     <path d="m103.98,322.52a0.29,0.29 0 0 1 -0.15,-0.06a0.25,0.23 0 0 1 0,-0.33a9.8,9.48 0 0 1 6.73,-2.59l0,0a0.25,0.23 0 0 1 0.23,0.25a0.25,0.25 0 0 1 -0.27,0.23c-3.53,-0.18 -6.31,2.43 -6.35,2.47a0.27,0.25 0 0 1 -0.19,0.06l0,-0.02l0,-0.01z" fill="#263238" id="svg_80"/>
     <path d="m40.73,340.67c-0.83,4.47 -1.93,7.37 -3.92,9.84s-5.56,2.72 -8.22,2.18a11.34,10.96 0 0 1 -8.83,-8.37c-0.85,-3.09 -0.27,-6.61 1,-10.71l19.96,7.06l0.02,-0.02l-0.01,0.01z" fill="#263238" id="svg_81"/>
     <path d="m30.37,306.29c-1.31,-0.06 -2.45,5.94 -3.98,11.92c-1.62,6.4 -4.13,9.79 -5.35,14.08c-1.68,5.96 -1.58,8.73 0.18,12.66s10.94,8.73 15.43,3.9c3.69,-3.93 4.4,-8.65 4.86,-14.78a159.62,154.27 0 0 1 1.62,-15.49c0.81,-4.52 1.7,-8.89 0.62,-9.53c-0.16,0.67 -0.36,1.5 -0.54,2.14c-0.13,0.5 -0.57,2.95 -1.31,2.89a9.03,8.73 0 0 1 0.19,-1.71a2.1,2.04 0 0 0 -0.18,-1.5a2.48,2.4 0 0 0 -1.37,-0.79a39.74,38.41 0 0 0 -3.82,-1.03c-0.65,-0.13 -1.29,-0.23 -1.99,-0.29a21.3,20.6 0 0 0 -3.44,-0.27a1.18,1.12 0 0 0 -0.79,0.54a2.16,2.07 0 0 0 -0.16,0.69a5.07,4.92 0 0 1 -0.31,1.22c-0.06,0.18 -0.21,0.39 -0.41,0.31a0.37,0.36 0 0 1 -0.16,-0.39c0.08,-0.73 0.25,-1.26 0.39,-2.1c0.06,-0.39 0.19,-0.96 0.25,-1.33s0.16,-0.73 0.25,-1.16l0.02,0.02l-0.02,0z" fill="#37474f" id="svg_82"/>
     <path d="m25.68,334.39a0.46,0.44 0 0 0 0.34,0.52a0.48,0.46 0 1 0 -0.34,-0.52z" id="svg_83"/>
     <path d="m26.65,330.25a0.46,0.44 0 0 0 0.34,0.52a0.48,0.46 0 0 0 0.56,-0.34a0.48,0.46 0 0 0 -0.36,-0.52a0.46,0.44 0 0 0 -0.54,0.34z" id="svg_84"/>
     <path d="m27.54,326.33a0.46,0.44 0 0 0 0.34,0.52a0.48,0.46 0 0 0 0.56,-0.34a0.48,0.46 0 0 0 -0.36,-0.52a0.46,0.44 0 0 0 -0.54,0.34z" id="svg_85"/>
     <path d="m28.44,322.48a0.46,0.44 0 0 0 0.34,0.52a0.46,0.44 0 1 0 -0.34,-0.52z" id="svg_86"/>
     <path d="m38.74,324.27a0.48,0.46 0 0 0 0.9,0.19a0.46,0.44 0 0 0 -0.34,-0.52a0.48,0.46 0 0 0 -0.56,0.34l0,-0.02z" id="svg_87"/>
     <path d="m37.82,328.15a0.46,0.44 0 0 0 0.9,0.19a0.46,0.44 0 1 0 -0.9,-0.19z" id="svg_88"/>
     <path d="m36.91,332.07a0.46,0.44 0 0 0 0.9,0.19a0.46,0.44 0 1 0 -0.9,-0.19z" id="svg_89"/>
     <path d="m35.95,336.22a0.48,0.46 0 0 0 0.36,0.52a0.48,0.46 0 0 0 0.54,-0.34a0.46,0.44 0 0 0 -0.34,-0.52a0.48,0.46 0 0 0 -0.56,0.34z" id="svg_90"/>
     <polygon id="svg_91" points="31.859500885009766,337.7594299316406 39.00289535522461,308.8855895996094 37.31389617919922,308.65509033203125 31.859500885009766,337.7594299316406 "/>
     <path d="m26.09,334.71l0.06,0c3.1,-0.29 8.22,0.58 10.13,1.76a0.21,0.21 0 0 0 0.31,-0.06a0.23,0.23 0 0 0 -0.06,-0.31c-1.99,-1.24 -7.18,-2.16 -10.43,-1.85a0.25,0.25 0 0 0 -0.21,0.25a0.25,0.25 0 0 0 0.19,0.19l0,0.02l0.01,0z" fill="#263238" id="svg_92"/>
     <path d="m27.04,330.56a0.29,0.27 0 0 0 0.13,0c2.43,-0.79 7.89,0.42 10.07,1.78a0.25,0.23 0 0 0 0.33,-0.06a0.25,0.25 0 0 0 -0.06,-0.31c-2.27,-1.41 -7.95,-2.66 -10.48,-1.83a0.21,0.21 0 0 0 -0.15,0.27a0.27,0.27 0 0 0 0.16,0.15z" fill="#263238" id="svg_93"/>
     <path d="m27.96,326.64l0.13,0c2.43,-0.79 7.89,0.42 10.07,1.78a0.23,0.23 0 1 0 0.25,-0.37c-2.27,-1.42 -7.89,-2.66 -10.48,-1.83a0.25,0.23 0 0 0 -0.15,0.29a0.23,0.23 0 0 0 0.16,0.15l0.02,-0.02z" fill="#263238" id="svg_94"/>
     <path d="m28.8,322.79a0.25,0.25 0 0 0 0.11,0c2.45,-0.79 7.95,0.42 10.09,1.78a0.23,0.23 0 0 0 0.31,-0.06a0.25,0.23 0 0 0 -0.06,-0.31c-2.27,-1.41 -7.95,-2.66 -10.48,-1.83a0.21,0.21 0 0 0 -0.15,0.27a0.21,0.19 0 0 0 0.16,0.15l0.02,0z" fill="#263238" id="svg_95"/>
     <path d="m38.13,160.07c-3.07,37.21 -5.6,86.92 -5.6,86.92c-0.27,2.84 -3.1,14.88 -4.52,28.8c-1.49,14.7 -2.71,42.25 -2.71,42.25s10.71,5.52 19.39,2.76c0,0 9.28,-46.37 13.74,-63.7c4.21,-16.4 10.78,-47.49 10.78,-47.49l4.49,30.73s-0.6,10.55 -0.27,18.03c0.39,8.65 6.1,50.1 6.1,50.1s11.63,6.59 20.64,0c0,0 1.56,-57.19 1.81,-67.57c0.42,-17.34 -2.72,-55.84 -3.53,-83.06l-60.32,2.22l-0.02,0.02z" fill="#455a64" id="svg_96"/>
     <path d="m53.19,201.96q-1.22,13.38 -2.71,26.73c-0.48,4.46 -1,8.89 -1.52,13.35l-0.79,6.67l-0.41,3.33c-0.13,1.11 -0.36,2.2 -0.54,3.31c-1.54,8.83 -3.86,24.87 -5.55,33.66s-3.44,17.59 -5.32,26.35q1.79,-13.31 3.98,-26.56c1.43,-8.83 3.69,-24.87 5.25,-33.68c0.18,-1.11 0.42,-2.2 0.56,-3.31l0.42,-3.33l0.88,-6.66q0.88,-6.66 1.81,-13.3q1.83,-13.3 3.93,-26.56l-0.02,0l0.01,-0.01z" fill="#37474f" id="svg_97"/>
     <path d="m96.06,199.43c1,8.32 1.49,16.69 1.86,25.04s0.7,16.74 0.37,25.1s-0.42,22.39 -0.75,30.73s-0.72,16.73 -1.24,25.06q-0.21,-12.54 -0.08,-25.1c0.06,-8.35 0.21,-22.37 0.39,-30.73l0.16,-6.27l0,-1.56l0,-1.55l0,-3.13l-0.16,-12.54l-0.27,-12.54c0,-4.18 -0.16,-8.35 -0.29,-12.54l0,0.02l0.01,0z" fill="#37474f" id="svg_98"/>
     <path d="m69.19,209.63l3.77,-20.38s10.51,-1.47 15.89,-6.12c0,0 -3.47,6.15 -13.38,8.55l-3.76,18l1.99,30.73l-4.52,-30.79l0,0.02l0.01,0z" fill="#37474f" id="svg_99"/>
    </g>
    <g id="svg_100">
     <g id="svg_101">
      <path d="m104.58,104.48c3.36,4 16.05,17.77 16.05,17.77c2.92,-3.97 6.36,-8.84 9.28,-13.06c3.85,-5.53 5.46,-6.77 6.95,-14.98a25.83,24.96 0 0 1 2.39,-5.76a18.1,17.49 0 0 0 1.62,-6.12c0,-1.04 2.76,-0.96 3.59,2.27c0.5,1.68 0.08,3.41 0.27,5.11c0.05,0.52 -0.13,1.64 0.52,1.49c3.98,-0.96 6.54,-5.67 11.07,-9.26c1.64,-1.29 5.96,-2.89 7.18,-0.5c0.15,0.58 -0.27,1.04 -0.37,1.58a0.88,0.85 0 0 0 0,0.23a4.84,4.69 0 0 0 0.15,0.73c0.16,0.48 0.42,0.96 0.57,1.42a3.69,3.55 0 0 1 -0.05,2.25a9.14,8.83 0 0 0 -0.65,1.64a5.88,5.68 0 0 1 -0.13,3.1a12.34,11.93 0 0 1 -1.31,2.53a8.84,8.55 0 0 0 -0.65,1.75a10.38,10.03 0 0 1 -1.71,2.72a40.94,39.57 0 0 1 -8.11,7.91c-1.41,0.96 -2.93,1.83 -4.24,2.95a12.92,12.48 0 0 0 -2.55,2.8a29.07,28.08 0 0 0 -2.16,4.26l0,0.08c-5.42,11.52 -5.6,15.55 -11.59,24.79c-5.09,7.43 -9.4,4.86 -18.88,-2.43c-11.69,-8.97 -17.98,-14.2 -17.98,-14.2l-5.86,-32.81c6.52,1.45 13.22,7.78 16.59,11.77l0.02,-0.05l0.01,0.01z" fill="#ffbda7" id="svg_102"/>
      <path d="m145.05,94.08a11.6,11.21 0 0 1 -2.04,9.89c3.59,-1.37 4.63,-6.1 2.04,-9.89z" fill="#f0997a" id="svg_103"/>
      <path d="m84.61,92c6.04,0.42 10.94,2.27 19.31,11.15s16.68,18.62 16.68,18.62l5.38,-6.92c-1.79,1.24 -0.67,9.37 2.76,12.76a13.08,12.65 0 0 0 8.01,3.59a85.03,82.19 0 0 1 -4.96,9.86c-2.66,4.32 -4.53,5.55 -7.15,5.76s-5.65,-0.96 -13.08,-6.61s-19.31,-14.68 -19.31,-14.68l-7.64,-33.53l0,0.02z" fill="#BA68C8" id="svg_104"/>
      <path d="m84.61,92c6.04,0.42 10.94,2.27 19.31,11.15s16.68,18.62 16.68,18.62l5.38,-6.92c-1.79,1.24 -0.67,9.37 2.76,12.76a13.08,12.65 0 0 0 8.01,3.59a85.03,82.19 0 0 1 -4.96,9.86c-2.66,4.32 -4.53,5.55 -7.15,5.76s-5.65,-0.96 -13.08,-6.61s-19.31,-14.68 -19.31,-14.68l-7.64,-33.53l0,0.02z" fill="#fff" id="svg_105" opacity="0.55"/>
      <path d="m119.22,120.19c-3.61,4.8 -4.32,10.98 -2.64,14.41c-0.52,-3.03 1.12,-9.17 3.98,-12.86l-1.33,-1.55zm15.32,15.6a12.56,12.14 0 0 1 -6.38,-2.55a13.62,13.17 0 0 1 -4.71,-7.15c0,-0.15 -0.19,-0.08 -0.16,0a12.54,12.13 0 0 0 4.73,7.83a13.6,13.15 0 0 0 4.36,2.1a12.76,12.34 0 0 0 1.99,0.39l0.33,-0.67l-0.15,0.04l0,0.01z" fill="#BA68C8" id="svg_106" opacity="0.35"/>
     </g>
     <path d="m56.28,89.57c-9.45,2.04 -12.29,2.89 -16.74,3.92c0,0 -7.44,21.13 -3.44,36.92c0.93,3.62 1.83,16.63 1.81,23.3c0,6.36 -0.15,8.04 -0.85,17.07c0,0 13.02,9.07 39.44,6.46c20.74,-2.04 22.44,-7.08 22.44,-7.08s0.75,-28.05 -0.27,-42.77c-1.22,-18.03 -3.82,-31.58 -11.65,-35.11c-0.75,-0.41 -13.33,-2.1 -13.33,-2.1l-17.42,-0.58l0.02,-0.02l-0.01,-0.01z" fill="#37474f" id="svg_107"/>
     <path d="m85.19,58.26l0.11,-0.16a15.66,15.14 0 0 0 1.62,-3.13c0.9,-2.14 2.84,-8.57 -1.39,-8.81c0.9,-0.96 2.18,-2.89 0.65,-3.84c-1.27,-0.83 -3.15,-0.05 -4.57,-0.06a6.61,6.4 0 0 0 1.49,-1.93a5.17,4.99 0 0 0 0.49,-2.2c-0.75,0.15 -1.45,0.48 -2.2,0.64a19.56,18.91 0 0 1 -5.76,0.18c-2.16,-0.13 -4.21,-0.81 -6.36,-0.96a39.97,38.62 0 0 0 -6.36,0.08c-7.02,0.57 -13.85,3.54 -14.99,10.55c-5.6,1.75 -4.75,10.69 -3.26,14.6c3.03,7.95 8.8,14.8 9.01,18.91c0.57,-0.44 1.16,-0.88 1.75,-1.31l8.78,-6.58l11.36,-8.49l4.92,-3.67c1.58,-1.24 3.51,-2.32 4.71,-3.86l0.04,0.04l-0.01,0z" fill="#263238" id="svg_108"/>
     <path d="m85.83,77.26c-1,3.9 -3.28,6.77 -6.95,7.43a31.23,30.19 0 0 1 -5.32,0.29l0.16,5.19c2.61,3.41 1.12,10.38 -0.06,11.98a3.38,3.26 0 0 1 -1.87,0.1c-4.71,-6.29 -14.9,-7.39 -18.25,-11.77l-0.29,-15.91s-2.22,2.53 -5.96,0.27a8.14,7.89 0 0 1 -2.76,-9.59c1.76,-3.84 5.5,-2.33 6.67,-1.21s2.55,3.24 3.49,2.89a3.46,3.34 0 0 0 2.25,-2.32a21.28,20.56 0 0 0 1,-7.35a8.37,8.1 0 0 0 2.58,-2.04c1.56,-1.75 1.64,-3.84 1.66,-5.67c7.95,-2.59 18.17,-1.83 21.55,0.57c1.99,3.22 2.24,10.78 2.66,15.14a37.07,35.84 0 0 1 -0.52,12l-0.05,0z" fill="#ffbda7" id="svg_109"/>
     <path d="m73.56,84.96c-4.09,-0.13 -12.92,-1.93 -15.16,-4.09s-3.3,-6.66 -3.3,-6.66s0.48,5.69 2.22,8.18s6.07,3.49 8.68,4.05s7.62,0.96 7.62,0.96l-0.08,-2.45l0.02,0.02l0,-0.01z" fill="#f0997a" id="svg_110"/>
     <path d="m69.9,64.04a1.7,1.64 0 1 1 -3.38,0.08a1.71,1.64 0 0 1 1.64,-1.73a1.73,1.66 0 0 1 1.75,1.64l-0.01,0.01z" fill="#263238" id="svg_111"/>
     <path d="m83.35,59.78l-4.13,-0.56a1.99,1.93 0 0 1 2.27,-1.75a2.18,2.1 0 0 1 1.85,2.3l0.02,0l-0.01,0.01z" fill="#263238" id="svg_112"/>
     <path d="m69.12,59.52l-3.98,1.33a1.99,1.93 0 0 1 1.21,-2.56a2.2,2.12 0 0 1 2.78,1.22l0,0.02l-0.01,0z" fill="#263238" id="svg_113"/>
     <path d="m82.82,63.43a1.71,1.64 0 0 1 -1.64,1.73a1.76,1.7 0 1 1 1.64,-1.73z" fill="#263238" id="svg_114"/>
     <polygon fill="#f0997a" id="svg_115" points="74.1136474609375,60.226715087890625 75.61385345458984,71.94140625 82.09156036376953,69.89613342285156 74.1136474609375,60.226715087890625 "/>
     <path d="m69.4,73.36a3.03,2.92 0 1 0 5.67,2.09l-5.67,-2.09z" fill="#b16668" id="svg_116"/>
     <path d="m69.92,74.87a2.99,2.89 0 0 1 2.99,2.35a2.99,2.89 0 0 1 -3.62,-2.25a3.47,3.36 0 0 1 0.65,-0.1l-0.02,0z" fill="#f0997a" id="svg_117"/>
     <path d="m74.1,88.83s6.38,5.35 4.4,10.55s-11.05,6.21 -18.23,1.42s-6.64,-10.4 -6.64,-10.4l-0.08,-0.85s2.09,1.86 4.26,3.44c1.39,1.01 14.36,6.31 14.67,7.87c0,0 1.99,-3.77 2.53,-5.19s-0.75,-6 -0.75,-6l-0.16,-0.87l0,0.02z" fill="#BA68C8" id="svg_118"/>
     <path d="m74.1,88.83s6.38,5.35 4.4,10.55s-11.05,6.21 -18.23,1.42s-6.64,-10.4 -6.64,-10.4l-0.08,-0.85s2.09,1.86 4.26,3.44c1.39,1.01 14.36,6.31 14.67,7.87c0,0 1.99,-3.77 2.53,-5.19s-0.75,-6 -0.75,-6l-0.16,-0.87l0,0.02z" fill="#fff" id="svg_119" opacity="0.55"/>
     <path d="m72.52,100.89c-2.04,-1.14 -6.1,-3.67 -8.03,-1.18s-3.3,5.35 -4.76,4.98s-6.95,-3.84 -8.88,-7.58a15.62,15.09 0 0 1 -1.62,-5.92a16.32,15.76 0 0 0 1.99,-3.09c0.79,-1.6 1,-3.09 2.27,-3.22l0.06,4s1.11,2.24 5.44,3.74c5.73,1.99 10.72,2.86 13.53,8.27z" fill="#BA68C8" id="svg_120"/>
     <path d="m72.52,100.89c-2.04,-1.14 -6.1,-3.67 -8.03,-1.18s-3.3,5.35 -4.76,4.98s-6.95,-3.84 -8.88,-7.58a15.62,15.09 0 0 1 -1.62,-5.92a16.32,15.76 0 0 0 1.99,-3.09c0.79,-1.6 1,-3.09 2.27,-3.22l0.06,4s1.11,2.24 5.44,3.74c5.73,1.99 10.72,2.86 13.53,8.27z" fill="#fff" id="svg_121" opacity="0.7"/>
     <path d="m72.52,100.89c1.18,-1.08 1.99,-2.93 3.98,-2.45s4.9,4.75 4.92,3.74s-1.42,-8.2 -2.99,-10.3s-3.44,-5.94 -4.78,-5.83l0.11,4.11a13.91,13.45 0 0 1 0.83,4.61c-0.27,1.71 -1.93,4.44 -2.07,6.1l0,0.01z" fill="#BA68C8" id="svg_122"/>
     <path d="m72.52,100.89c1.18,-1.08 1.99,-2.93 3.98,-2.45s4.9,4.75 4.92,3.74s-1.42,-8.2 -2.99,-10.3s-3.44,-5.94 -4.78,-5.83l0.11,4.11a13.91,13.45 0 0 1 0.83,4.61c-0.27,1.71 -1.93,4.44 -2.07,6.1l0,0.01z" fill="#fff" id="svg_123" opacity="0.7"/>
     <g id="svg_124">
      <polygon fill="#BA68C8" id="svg_125" points="57.084815979003906,241.03634643554688 57.114601135253906,202.128173828125 11.601774215698242,179.11167907714844 12.575416564941406,216.34902954101562 57.084815979003906,241.03634643554688 "/>
      <polygon id="svg_126" opacity="0.2" points="57.084815979003906,241.03634643554688 57.114601135253906,202.128173828125 11.601774215698242,179.11167907714844 12.575416564941406,216.34902954101562 57.084815979003906,241.03634643554688 "/>
      <path d="m27.61,187.22l-0.54,2.58l0,0c0,0.7 0,1.41 0,2.1c0,1.16 0,2.3 -0.06,3.46c0,0.27 0,0.52 0,0.79a2.99,2.89 0 0 1 -0.19,0.73a6.62,6.4 0 0 0 -0.15,1.14c0,0.39 0,0.79 0,1.19a14.52,14.03 0 0 0 0.93,4.61a5.65,5.45 0 0 0 1.89,2.68c0.62,0.41 1.35,0.6 1.99,0.96a28.23,27.28 0 0 1 2.58,1.85a3.54,3.41 0 0 0 2.99,0.7c0.29,-0.08 0.57,-0.25 0.88,-0.31a2.7,2.59 0 0 1 2.25,0.64c0.64,0.48 1.14,1.11 1.76,1.62a1.99,1.93 0 0 0 1.11,0.52a1.56,1.52 0 0 0 1.45,-0.96a3.76,3.62 0 0 0 0.16,-1.81c-0.48,-4.59 -3.07,-8.65 -4.8,-12.94a9.28,8.97 0 0 1 -0.42,-1.21c-0.05,-0.21 -0.08,-0.42 -0.11,-0.64a2.22,2.14 0 0 1 0,-0.73c0,-0.06 0.25,-0.9 0.33,-0.85l-12.01,-6.07l-0.04,-0.05l0.01,0.01z" id="svg_127" opacity="0.2"/>
      <path d="m53.08,228.62l1.41,0.69c0.77,0.37 1.42,-1.75 1.43,-4.73l0,-5.76c0,-3.01 -0.6,-5.76 -1.39,-6.1l-1.41,-0.67l-0.05,16.57l0.01,0z" id="svg_128" opacity="0.15"/>
      <path d="m57.99,232.57c0.48,0.25 0.87,-0.58 0.85,-1.86l0,-2.27s3.03,1.45 3.24,-3.54s-3.16,-6.94 -3.16,-6.94s0,-1.08 -0.05,-2.43s-0.42,-2.66 -0.9,-2.93l-0.85,-0.5l0,20.04l0.87,0.44l0.01,0z" fill="#263238" id="svg_129"/>
      <path d="m57.11,229.58c0,-1.83 0,-2.59 -1.19,-3.16c-1.37,-0.67 -2.4,-1.06 -2.4,-1.06l0,-8.88s1.71,0.87 2.4,1.18s1.19,0.13 1.19,-1.27l0.6,0l-0.1,13.89l-0.49,-0.7l-0.02,0.02l0,-0.01z" fill="#263238" id="svg_130"/>
      <path d="m52.87,228.81l1.41,0.69c0.77,0.37 1.42,-1.75 1.43,-4.73l0,-5.76c0,-2.99 -0.6,-5.71 -1.39,-6.09l-1.41,-0.69l-0.05,16.57l0.01,0.01z" fill="#37474f" id="svg_131"/>
      <path d="m19.8,180.32c-1.33,-6.36 -2.7,-11.92 -3.67,-17.48c-2.4,-13.68 -2.45,-16.97 -1.41,-22.75a201.03,194.29 0 0 1 8.2,-31.43c3.82,-11.32 4.46,-11.52 16.2,-14.7c5.17,4.92 4.9,19.55 1.58,27.47c-3.77,11.83 -8.74,29.42 -8.74,29.42c0.21,2.76 0.33,20.45 2.2,28.39a9.41,9.09 0 0 0 3.72,5.37c2.91,2.24 5.24,7.35 6,10.82l-5.14,-2.59a3.36,3.24 0 0 0 -0.75,-0.58c-0.93,-0.54 -1,0.41 -0.88,1.08a14.2,13.72 0 0 0 1.29,4.63c0.58,1.21 1.1,2.43 1.64,3.64l0.08,0.23c1.16,2.56 2.35,5.19 2.49,7.99a2.17,2.09 0 0 1 -0.52,1.76a1.71,1.64 0 0 1 -1.76,0.11a10.05,9.72 0 0 1 -1.54,-1.01a6.95,6.73 0 0 0 -2.51,-1.08a8.6,8.31 0 0 1 -1.86,-0.46c-0.93,-0.42 -1.54,-1.33 -2.41,-1.81a10.98,10.63 0 0 0 -1.99,-0.72a8.01,7.75 0 0 1 -4.61,-3.93c-2.12,-4.5 -4.32,-10.38 -4.7,-15.37c-0.21,-2.14 -0.54,-4.57 -0.93,-6.98l-0.02,-0.04l0.01,0z" fill="#ffbda7" id="svg_132"/>
      <path d="m32.84,150.1l9.72,-31.04s5.13,-18.63 -2.82,-25.58c-7.13,1.93 -10.94,2.27 -13.97,6.23s-6.89,18.96 -8.62,25.52c-0.69,2.58 -1.47,5.89 -2.17,9.09c-1.93,8.43 -1.86,11.07 -0.93,18.79a136.9,132.32 0 0 0 3.38,16.38s5.19,-3.9 9.18,-4.4s5.96,1.12 5.96,1.12l0.25,-16.11l0.02,-0.02l0,0.01z" fill="#BA68C8" id="svg_133"/>
      <path d="m32.84,150.1l9.72,-31.04s5.13,-18.63 -2.82,-25.58c-7.13,1.93 -10.94,2.27 -13.97,6.23s-6.89,18.96 -8.62,25.52c-0.69,2.58 -1.47,5.89 -2.17,9.09c-1.93,8.43 -1.86,11.07 -0.93,18.79a136.9,132.32 0 0 0 3.38,16.38s5.19,-3.9 9.18,-4.4s5.96,1.12 5.96,1.12l0.25,-16.11l0.02,-0.02l0,0.01z" fill="#fff" id="svg_134" opacity="0.55"/>
      <path d="m24.54,159.17a17.41,16.84 0 0 0 -5.15,1.56a16.19,15.65 0 0 0 -3.55,2.27c0.1,0.42 0.19,0.85 0.29,1.24c0.08,-0.08 0.15,-0.18 0.25,-0.25a15.89,15.37 0 0 1 3.98,-2.61a18.27,17.65 0 0 1 4.9,-1.54a24.17,23.35 0 0 1 4.71,-0.36s0.06,-0.08 0,-0.08a13.91,13.45 0 0 0 -5.38,-0.25l-0.04,0l0,0.01z" fill="#BA68C8" id="svg_135" opacity="0.35"/>
     </g>
    </g>
   </g>
  </g>
 </g>
</svg>