<svg width="340" height="340" viewBox="0 0 340 340" fill="none" xmlns="http://www.w3.org/2000/svg">
<path opacity="0.1" d="M76.3297 84.9187C109.82 41.3984 167.705 18.7552 218.902 46.0036C239.516 56.9583 248.752 81.0791 252.965 96.9064C253.344 140.145 265.64 164.748 277.548 179.516C290.947 196.096 303.917 200.201 308.701 217.917C313.861 237.185 306.921 263.464 291.37 277.138C267.21 298.379 234.862 275.907 159.269 266.275C78.8358 256.043 74.6723 277.279 42.1164 253.358C9.60385 229.44 42.8427 128.393 76.3297 84.9187Z" fill="#848484"/>
<path d="M159.366 245.368V71.0379C159.366 66.5519 157.14 65.3156 155.127 64.1712C153.114 63.0267 149.885 62.3344 147.074 63.9593L75.1148 105.534C73.6334 106.5 72.4009 107.802 71.5171 109.334C70.6333 110.866 70.1232 112.584 70.0283 114.35V288.666C70.0283 291.916 72.0629 293.823 74.041 294.968C76.019 296.112 79.4665 297.363 82.2781 295.745L154.265 254.185C155.859 253.344 157.183 252.071 158.085 250.511C158.988 248.951 159.432 247.169 159.366 245.368Z" fill="#37474F"/>
<path d="M154.774 247.014L80.7521 289.747V114.682L71.4906 109.334C70.5723 110.851 70.059 112.578 70 114.35V288.666C70 291.916 72.0346 293.823 74.0126 294.968C75.9907 296.112 79.4381 297.363 82.2498 295.745L154.237 254.185C156.238 253.102 157.795 251.352 158.638 249.239L158.355 249.07L154.774 247.014Z" fill="#263238"/>
<path d="M154.13 69.5402L81.9379 111.221C80.8987 111.9 80.0337 112.814 79.4128 113.889C78.7919 114.964 78.4324 116.17 78.3633 117.409V290.305C78.3633 293.795 80.8429 295.215 83.8594 293.47L154.13 252.906C155.307 252.135 156.287 251.099 156.99 249.881C157.693 248.662 158.1 247.296 158.178 245.891V71.8785C158.178 69.3071 156.355 68.2545 154.13 69.5402Z" fill="#455A64"/>
<path d="M154.653 80.144V241.765C154.58 243.1 154.194 244.399 153.527 245.558C152.859 246.716 151.928 247.702 150.81 248.434L85.7318 286.01C83.6124 287.239 81.8887 286.25 81.8887 283.792V120.977C82.0069 118.77 82.9738 116.694 84.5873 115.184L84.9476 114.852C85.1949 114.655 85.4571 114.478 85.7318 114.322L104.036 103.725L105.23 103.019C105.887 102.637 106.424 102.941 106.424 103.725C106.424 104.509 106.996 104.778 107.695 104.361L129.03 92.0476C129.395 91.8198 129.701 91.5092 129.923 91.1409C130.145 90.7727 130.277 90.3572 130.309 89.9283C130.34 89.5487 130.452 89.1801 130.635 88.8466C130.819 88.513 131.071 88.222 131.375 87.9926L131.495 87.922L149.404 77.5584L149.785 77.3323C152.47 75.7852 154.653 77.0497 154.653 80.144Z" fill="black"/>
<path d="M145.236 244.118C146.357 243.388 147.29 242.404 147.958 241.245C148.626 240.085 149.01 238.785 149.079 237.449V77.7491L131.495 87.8937L131.375 87.9643C131.064 88.2006 130.807 88.5017 130.623 88.8469C130.438 89.192 130.331 89.573 130.309 89.9636C130.277 90.3925 130.145 90.808 129.923 91.1762C129.701 91.5445 129.395 91.8551 129.03 92.0829L107.695 104.396C106.989 104.813 106.424 104.516 106.424 103.761C106.424 103.005 105.887 102.687 105.23 103.054L104.036 103.761L85.7318 114.357C85.4571 114.513 85.1949 114.69 84.9476 114.887L84.5873 115.219C82.9738 116.729 82.0069 118.805 81.8887 121.012V280.683L145.236 244.118Z" fill="#263238"/>
<path d="M110.939 97.8829L120.716 92.2313C121.302 91.8993 121.775 92.1324 121.775 92.7682C121.75 93.1232 121.64 93.467 121.456 93.7715C121.272 94.076 121.018 94.3326 120.716 94.5202L110.939 100.172C110.352 100.511 109.879 100.271 109.879 99.642C109.905 99.2861 110.014 98.9413 110.198 98.6356C110.382 98.33 110.636 98.0721 110.939 97.8829Z" fill="#263238"/>
<path d="M125.732 88.8756C126.389 88.5012 126.926 88.805 126.926 89.5821C126.902 89.9953 126.781 90.3971 126.574 90.7553C126.366 91.1136 126.078 91.4182 125.732 91.6449C125.075 92.0193 124.545 91.7156 124.545 90.9385C124.567 90.5256 124.686 90.1238 124.892 89.7654C125.098 89.4071 125.386 89.1023 125.732 88.8756Z" fill="#263238"/>
<path d="M76.7105 135.261C76.6873 134.587 76.5049 133.927 76.1784 133.337C75.8518 132.746 75.3902 132.241 74.8314 131.863C74.6462 131.729 74.4282 131.648 74.2006 131.628C73.9729 131.608 73.7442 131.65 73.5386 131.75C73.3054 131.898 72.3729 132.414 72.1257 132.562C71.922 132.716 71.7616 132.92 71.6601 133.154C71.5586 133.388 71.5194 133.644 71.5464 133.898V148.097C71.5697 148.773 71.752 149.433 72.0785 150.025C72.405 150.616 72.8665 151.123 73.4255 151.502C73.6042 151.629 73.8122 151.707 74.0298 151.731C74.2474 151.754 74.4673 151.722 74.6689 151.637C74.9303 151.495 75.884 150.93 76.1242 150.803C76.3319 150.649 76.4954 150.444 76.5984 150.207C76.7013 149.97 76.74 149.71 76.7105 149.454V135.261Z" fill="#455A64"/>
<path d="M75.2986 136.066V150.273C75.2986 151.552 74.4579 152.103 73.4124 151.502C72.8533 151.123 72.3918 150.616 72.0653 150.025C71.7388 149.433 71.5565 148.773 71.5332 148.097V133.912C71.5332 132.633 72.3739 132.082 73.4124 132.683C73.9707 133.059 74.4324 133.561 74.7601 134.149C75.0879 134.737 75.2723 135.394 75.2986 136.066Z" fill="#37474F"/>
<path d="M76.7105 160.121C76.6873 159.447 76.5049 158.787 76.1783 158.197C75.8518 157.606 75.3902 157.101 74.8314 156.723C74.6462 156.589 74.4282 156.508 74.2006 156.488C73.9729 156.468 73.7442 156.51 73.5386 156.61C73.3054 156.758 72.3729 157.274 72.1257 157.422C71.922 157.576 71.7616 157.78 71.6601 158.014C71.5586 158.248 71.5194 158.504 71.5464 158.758V172.957C71.5697 173.633 71.752 174.293 72.0785 174.885C72.405 175.476 72.8665 175.982 73.4255 176.362C73.6042 176.489 73.8122 176.567 74.0298 176.591C74.2474 176.614 74.4673 176.582 74.6689 176.496C74.9303 176.355 75.884 175.79 76.1242 175.663C76.3296 175.511 76.4918 175.307 76.5947 175.073C76.6975 174.839 76.7374 174.582 76.7105 174.328V160.121Z" fill="#455A64"/>
<path d="M75.2986 160.926V175.133C75.2986 176.412 74.4579 176.963 73.4124 176.362C72.8533 175.983 72.3918 175.476 72.0653 174.885C71.7388 174.293 71.5565 173.633 71.5332 172.957V158.758C71.5332 157.479 72.3739 156.928 73.4124 157.528C73.9725 157.906 74.4355 158.41 74.7633 159.001C75.0911 159.592 75.2745 160.251 75.2986 160.926Z" fill="#37474F"/>
<path d="M160.143 79.1267C159.239 78.604 158.024 78.6746 156.611 79.4658L156.222 79.699L137.855 90.2957L137.728 90.3734C137.406 90.6156 137.141 90.9249 136.95 91.2799C136.76 91.6349 136.649 92.0271 136.626 92.4292C136.59 92.8662 136.454 93.289 136.227 93.6642C136 94.0394 135.689 94.3567 135.319 94.5909L113.419 107.243H113.369C113.379 107.098 113.35 106.953 113.287 106.822C113.224 106.691 113.128 106.578 113.009 106.495L111.744 105.788C111.606 105.723 111.454 105.697 111.302 105.712C111.15 105.727 111.005 105.783 110.883 105.873L109.653 106.579L90.8406 117.466C90.5598 117.631 90.2907 117.815 90.0353 118.017C89.9081 118.123 89.788 118.243 89.6609 118.356C88.007 119.911 87.0154 122.044 86.8916 124.311V291.57C86.8916 292.827 87.3296 293.689 88.0431 294.12L89.3218 294.827C90.0282 295.243 91.0173 295.18 92.1052 294.551L158.963 255.951C160.114 255.199 161.071 254.187 161.757 252.996C162.443 251.806 162.839 250.47 162.912 249.098V83.0829C162.912 81.5004 162.354 80.3842 161.45 79.8614L160.143 79.1267Z" fill="#0279B1"/>
<path opacity="0.3" d="M92.4513 294.035V294.36L92.0769 294.579C91.6798 294.869 91.2127 295.048 90.7235 295.098C90.2343 295.148 89.7407 295.066 89.2935 294.862L88.0148 294.12C87.3083 293.71 86.8633 292.827 86.8633 291.57V124.311C86.9215 122.8 87.3931 121.334 88.2267 120.073L89.7315 120.941C88.9276 122.157 88.4708 123.569 88.4104 125.025V292.298C88.3748 292.976 88.5662 293.647 88.9544 294.205C89.1159 294.409 89.3225 294.572 89.5578 294.682C89.7932 294.793 90.0509 294.847 90.3108 294.841C90.8875 294.816 91.4477 294.641 91.9356 294.332L92.4513 294.035Z" fill="black"/>
<path opacity="0.3" d="M138.611 91.8993C138.333 92.2697 138.173 92.7153 138.152 93.178C138.132 93.7041 137.963 94.2137 137.664 94.6474L136.152 93.7714C136.428 93.381 136.587 92.9205 136.612 92.4433C136.636 91.9355 136.805 91.4452 137.099 91.0304L138.611 91.8993Z" fill="black"/>
<path d="M90.311 294.841C90.051 294.848 89.7929 294.794 89.5574 294.684C89.3219 294.573 89.1155 294.409 88.9547 294.205C88.5655 293.648 88.374 292.976 88.4107 292.298V125.039C88.538 122.849 89.4986 120.792 91.0952 119.288L91.2153 119.182L91.4625 118.956C91.7033 118.768 91.9557 118.596 92.2184 118.441L111.024 107.582L112.253 106.876C112.376 106.798 112.517 106.751 112.663 106.742C113.016 106.742 113.059 107.159 113.059 107.335C113.041 107.475 113.053 107.617 113.093 107.753C113.134 107.888 113.202 108.013 113.294 108.12C113.386 108.227 113.499 108.314 113.626 108.375C113.754 108.435 113.892 108.469 114.034 108.473C114.302 108.464 114.563 108.384 114.789 108.239L136.689 95.587C137.111 95.3332 137.466 94.982 137.724 94.5629C137.982 94.1437 138.136 93.6688 138.173 93.178C138.196 92.8215 138.296 92.4741 138.465 92.1596C138.635 91.8451 138.87 91.5708 139.155 91.3553C139.187 91.3291 139.223 91.3077 139.261 91.2918L157.628 80.695L158.024 80.4619C158.649 80.0732 159.365 79.854 160.101 79.8261C161.641 79.8261 162.602 81.0836 162.602 83.104V249.119C162.531 250.443 162.149 251.731 161.486 252.879C160.823 254.027 159.898 255.002 158.787 255.725L91.9288 294.325C91.4436 294.635 90.886 294.813 90.311 294.841Z" fill="#FAFAFA"/>
<path d="M160.108 79.8049C159.373 79.8329 158.657 80.052 158.031 80.4407L157.636 80.6739L139.268 91.2706L139.162 91.3342C138.873 91.5512 138.635 91.8286 138.464 92.147C138.294 92.4654 138.194 92.8173 138.173 93.178C138.142 93.6661 137.994 94.1395 137.742 94.5587C137.49 94.9778 137.141 95.3305 136.725 95.587L114.825 108.239C114.599 108.384 114.338 108.464 114.069 108.473C113.928 108.47 113.79 108.437 113.662 108.377C113.535 108.318 113.422 108.231 113.33 108.125C113.238 108.018 113.169 107.893 113.129 107.759C113.088 107.624 113.076 107.482 113.094 107.342C113.094 107.159 113.052 106.742 112.699 106.742C112.553 106.751 112.412 106.798 112.289 106.876L111.06 107.582L92.254 118.441C91.9897 118.596 91.7371 118.771 91.4981 118.963C91.4134 119.034 91.3286 119.105 91.2509 119.182L91.1308 119.288C89.536 120.793 88.5757 122.85 88.4463 125.039V151.078L162.623 108.232V83.0899C162.609 81.0624 161.648 79.8049 160.108 79.8049Z" fill="#0279B1"/>
<g opacity="0.3">
<path d="M160.108 79.8049C159.373 79.8329 158.657 80.052 158.031 80.4407L157.636 80.6739L139.268 91.2706L139.162 91.3342C138.873 91.5512 138.635 91.8286 138.464 92.147C138.294 92.4654 138.194 92.8173 138.173 93.178C138.142 93.6661 137.994 94.1395 137.742 94.5587C137.49 94.9778 137.141 95.3305 136.725 95.587L114.825 108.239C114.599 108.384 114.338 108.464 114.069 108.473C113.928 108.47 113.79 108.437 113.662 108.377C113.535 108.318 113.422 108.231 113.33 108.125C113.238 108.018 113.169 107.893 113.129 107.759C113.088 107.624 113.076 107.482 113.094 107.342C113.094 107.159 113.052 106.742 112.699 106.742C112.553 106.751 112.412 106.798 112.289 106.876L111.06 107.582L92.254 118.441C91.9897 118.596 91.7371 118.771 91.4981 118.963C91.4134 119.034 91.3286 119.105 91.2509 119.182L91.1308 119.288C89.536 120.793 88.5757 122.85 88.4463 125.039V151.078L162.623 108.232V83.0899C162.609 81.0624 161.648 79.8049 160.108 79.8049Z" fill="white"/>
</g>
<path d="M93.765 125.095C93.7733 125.133 93.7733 125.171 93.765 125.208C93.7518 125.24 93.7297 125.267 93.7014 125.286L93.546 125.371C93.5356 125.378 93.5233 125.382 93.5107 125.382C93.4981 125.382 93.4858 125.378 93.4754 125.371C93.4707 125.36 93.4683 125.348 93.4683 125.335C93.4683 125.323 93.4707 125.311 93.4754 125.3V122.609L92.882 123.548C92.8661 123.58 92.8417 123.607 92.8113 123.626C92.8002 123.631 92.7882 123.634 92.776 123.634C92.7638 123.634 92.7517 123.631 92.7407 123.626L92.6559 123.527C92.6485 123.514 92.6445 123.499 92.6445 123.485C92.6445 123.47 92.6485 123.455 92.6559 123.442C92.6567 123.402 92.6689 123.363 92.6912 123.329L93.4824 122.072C93.4956 122.046 93.515 122.024 93.539 122.008L93.5955 121.966L93.7509 121.881C93.7598 121.873 93.771 121.869 93.7827 121.869C93.7943 121.869 93.8056 121.873 93.8145 121.881C93.82 121.892 93.823 121.904 93.823 121.916C93.823 121.929 93.82 121.941 93.8145 121.952L93.765 125.095Z" fill="#FAFAFA"/>
<path d="M95.305 124.205C95.3146 124.24 95.3146 124.276 95.305 124.311C95.2912 124.344 95.2662 124.372 95.2344 124.389L95.086 124.481C95.0755 124.488 95.0633 124.491 95.0507 124.491C95.0381 124.491 95.0258 124.488 95.0154 124.481C95.0092 124.469 95.0059 124.455 95.0059 124.442C95.0059 124.428 95.0092 124.415 95.0154 124.403V121.711L94.4219 122.651C94.4152 122.668 94.4047 122.683 94.3912 122.695C94.3778 122.708 94.3617 122.717 94.3442 122.722C94.3353 122.729 94.3241 122.733 94.3124 122.733C94.3008 122.733 94.2896 122.729 94.2806 122.722L94.1959 122.623C94.1885 122.609 94.1846 122.593 94.1846 122.577C94.1846 122.561 94.1885 122.545 94.1959 122.531C94.198 122.493 94.2102 122.456 94.2312 122.425L94.9377 121.196C94.9552 121.169 94.9766 121.145 95.0012 121.125H95.0577L95.2061 121.033C95.2165 121.026 95.2288 121.023 95.2414 121.023C95.254 121.023 95.2663 121.026 95.2767 121.033C95.2829 121.045 95.2862 121.059 95.2862 121.072C95.2862 121.086 95.2829 121.099 95.2767 121.111L95.305 124.205Z" fill="#FAFAFA"/>
<path d="M96.1746 121.528C96.185 121.521 96.1973 121.517 96.2099 121.517C96.2225 121.517 96.2348 121.521 96.2452 121.528C96.2514 121.54 96.2547 121.553 96.2547 121.567C96.2547 121.58 96.2514 121.593 96.2452 121.606V121.902C96.2548 121.939 96.2548 121.978 96.2452 122.015C96.2294 122.047 96.2049 122.074 96.1746 122.093L95.9273 122.234C95.9169 122.241 95.9046 122.245 95.892 122.245C95.8794 122.245 95.8671 122.241 95.8567 122.234C95.852 122.223 95.8496 122.211 95.8496 122.199C95.8496 122.187 95.852 122.175 95.8567 122.164V121.832C95.8503 121.797 95.8503 121.761 95.8567 121.726C95.8726 121.692 95.8969 121.663 95.9273 121.641L96.1746 121.528ZM96.1746 123.244C96.185 123.237 96.1973 123.234 96.2099 123.234C96.2225 123.234 96.2348 123.237 96.2452 123.244C96.2508 123.255 96.2537 123.268 96.2537 123.28C96.2537 123.292 96.2508 123.304 96.2452 123.315V123.647C96.2549 123.682 96.2549 123.718 96.2452 123.753C96.2293 123.787 96.205 123.816 96.1746 123.838L95.9273 123.979C95.9169 123.986 95.9046 123.99 95.892 123.99C95.8794 123.99 95.8671 123.986 95.8567 123.979C95.8475 123.954 95.8475 123.927 95.8567 123.901V123.577C95.8502 123.539 95.8502 123.501 95.8567 123.463C95.8725 123.431 95.897 123.405 95.9273 123.386L96.1746 123.244Z" fill="#FAFAFA"/>
<path d="M97.0212 122.453C97.0302 122.51 97.0548 122.563 97.0922 122.607C97.1296 122.65 97.1784 122.683 97.2331 122.7C97.3642 122.721 97.498 122.69 97.6075 122.616C97.6904 122.567 97.7664 122.508 97.8336 122.439C97.9064 122.367 97.9705 122.286 98.0244 122.199C98.0783 122.106 98.1187 122.006 98.1444 121.902C98.1786 121.795 98.1953 121.683 98.1939 121.57C98.1979 121.471 98.181 121.373 98.1444 121.28C98.1248 121.217 98.0814 121.164 98.0234 121.133C97.9654 121.101 97.8973 121.093 97.8336 121.111C97.753 121.123 97.6759 121.152 97.6075 121.196C97.5281 121.243 97.4546 121.3 97.3886 121.365C97.3353 121.416 97.2879 121.473 97.2473 121.535L97.1554 121.676C97.1299 121.716 97.0961 121.749 97.0565 121.775L96.8728 121.881C96.8651 121.888 96.855 121.892 96.8446 121.892C96.8342 121.892 96.8241 121.888 96.8163 121.881C96.8163 121.881 96.8163 121.881 96.8163 121.817L96.9294 120.122C96.9204 120.085 96.9204 120.046 96.9294 120.009C96.9452 119.977 96.9696 119.95 97 119.931L98.2928 119.182C98.3033 119.175 98.3156 119.172 98.3281 119.172C98.3407 119.172 98.353 119.175 98.3634 119.182C98.3696 119.194 98.3729 119.208 98.3729 119.221C98.3729 119.235 98.3696 119.248 98.3634 119.26V119.437C98.3731 119.471 98.3731 119.508 98.3634 119.543C98.3475 119.576 98.3232 119.606 98.2928 119.627L97.2261 120.242L97.1978 121.125C97.2486 121.061 97.3054 121.002 97.3674 120.948C97.4471 120.872 97.5375 120.808 97.6358 120.758C97.7449 120.688 97.8678 120.642 97.9961 120.624C98.0985 120.608 98.2031 120.628 98.2928 120.68C98.3857 120.739 98.4574 120.825 98.4977 120.927C98.5503 121.067 98.5743 121.216 98.5683 121.365C98.5701 121.542 98.5463 121.718 98.4977 121.888C98.4494 122.056 98.3806 122.217 98.2928 122.368C98.2101 122.514 98.1105 122.649 97.9961 122.771C97.8896 122.881 97.7683 122.977 97.6358 123.054C97.5282 123.122 97.4081 123.167 97.2826 123.188C97.1882 123.217 97.0873 123.217 96.9929 123.188C96.9064 123.151 96.8344 123.086 96.7881 123.004C96.7334 122.902 96.7066 122.788 96.7104 122.672C96.7046 122.642 96.7046 122.611 96.7104 122.58C96.7235 122.555 96.7429 122.533 96.7669 122.517L96.9364 122.418H96.9929C96.9929 122.418 97.0141 122.418 97.0212 122.453Z" fill="#FAFAFA"/>
<path d="M99.198 121.259C99.209 121.304 99.2256 121.346 99.2475 121.386C99.2695 121.425 99.3045 121.455 99.3464 121.471C99.4044 121.486 99.465 121.486 99.523 121.471C99.6237 121.445 99.7192 121.402 99.8056 121.344C99.8841 121.303 99.9576 121.254 100.025 121.196C100.089 121.128 100.148 121.054 100.201 120.977C100.251 120.892 100.292 120.802 100.321 120.708C100.356 120.611 100.373 120.508 100.371 120.404C100.375 120.322 100.36 120.24 100.328 120.164C100.317 120.139 100.3 120.117 100.28 120.099C100.259 120.08 100.235 120.067 100.208 120.058C100.151 120.041 100.089 120.041 100.032 120.058C99.952 120.081 99.8759 120.114 99.8056 120.157L99.5018 120.334C99.4913 120.341 99.4791 120.345 99.4665 120.345C99.4539 120.345 99.4416 120.341 99.4312 120.334C99.425 120.322 99.4217 120.309 99.4217 120.295C99.4217 120.281 99.425 120.268 99.4312 120.256V120.08C99.4283 120.049 99.4283 120.018 99.4312 119.988L99.4735 119.903L100.138 118.575L99.0779 119.182C99.0675 119.189 99.0552 119.193 99.0426 119.193C99.03 119.193 99.0177 119.189 99.0073 119.182C99.0011 119.17 98.9979 119.157 98.9979 119.143C98.9979 119.13 99.0011 119.117 99.0073 119.105V118.928C98.9977 118.893 98.9977 118.857 99.0073 118.822C99.0211 118.789 99.0461 118.761 99.0779 118.744L100.526 117.904C100.535 117.896 100.546 117.892 100.558 117.892C100.57 117.892 100.581 117.896 100.59 117.904C100.601 117.913 100.611 117.925 100.617 117.938C100.623 117.952 100.626 117.967 100.625 117.981V118.158C100.631 118.188 100.631 118.219 100.625 118.25L100.576 118.363L99.9257 119.67C100.032 119.612 100.146 119.572 100.265 119.55C100.356 119.538 100.448 119.558 100.526 119.606C100.604 119.657 100.663 119.731 100.696 119.818C100.736 119.941 100.755 120.07 100.752 120.2C100.753 120.365 100.729 120.529 100.682 120.687C100.636 120.844 100.569 120.993 100.484 121.132C100.403 121.269 100.306 121.394 100.194 121.507C100.09 121.617 99.9715 121.712 99.8409 121.789C99.7097 121.868 99.5666 121.926 99.417 121.959C99.3169 121.978 99.2132 121.965 99.1203 121.923C99.0442 121.887 98.9839 121.824 98.9508 121.747C98.9103 121.658 98.8886 121.562 98.8872 121.464C98.8787 121.434 98.8787 121.402 98.8872 121.372C98.9003 121.347 98.9198 121.325 98.9437 121.309L99.1133 121.217C99.1172 121.212 99.1221 121.209 99.1276 121.206C99.1331 121.204 99.139 121.203 99.1451 121.203C99.1511 121.203 99.157 121.204 99.1625 121.206C99.168 121.209 99.1729 121.212 99.1768 121.217C99.1868 121.229 99.194 121.244 99.198 121.259Z" fill="#FAFAFA"/>
<path d="M104.927 115.495L103.796 119.359V117.663L102.539 118.37L104.927 115.459M104.927 115.17C104.876 115.169 104.827 115.184 104.785 115.212C104.763 115.225 104.744 115.241 104.729 115.262L102.341 118.165C102.3 118.217 102.277 118.282 102.277 118.349C102.277 118.415 102.3 118.48 102.341 118.532C102.37 118.564 102.405 118.589 102.444 118.606C102.483 118.623 102.525 118.632 102.567 118.631C102.613 118.644 102.662 118.644 102.708 118.631L103.535 118.151V119.338C103.536 119.407 103.561 119.473 103.607 119.525C103.652 119.576 103.714 119.61 103.782 119.62H103.825C103.886 119.62 103.946 119.6 103.996 119.563C104.046 119.526 104.082 119.475 104.1 119.415L105.223 115.579C105.231 115.545 105.231 115.508 105.223 115.474C105.222 115.398 105.192 115.327 105.139 115.273C105.087 115.219 105.016 115.187 104.941 115.184L104.927 115.17Z" fill="#FAFAFA"/>
<path d="M144.177 96.0815L143.562 96.4347V95.2338L144.177 94.8806V96.0815Z" fill="#FAFAFA"/>
<path d="M145.153 95.5164L144.538 95.8766V94.1529L145.153 93.7997V95.5164Z" fill="#FAFAFA"/>
<path d="M146.127 94.9583L145.513 95.3115V92.9378L146.127 92.5846V94.9583Z" fill="#FAFAFA"/>
<path d="M147.103 94.3931L146.488 94.7463V91.751L147.103 91.3907V94.3931Z" fill="#0279B1"/>
<path d="M151.383 88.8404C150.688 89.2918 150.127 89.9212 149.758 90.663L150.168 90.9809C150.44 90.4239 150.861 89.9523 151.383 89.6175C151.56 89.4891 151.772 89.4164 151.991 89.4089C152.21 89.4013 152.426 89.4592 152.612 89.5751L153.015 88.7768C152.767 88.6239 152.48 88.5483 152.189 88.5596C151.898 88.5709 151.617 88.6687 151.383 88.8404ZM150.323 91.1081L150.697 91.4048C150.86 91.0896 151.104 90.8238 151.404 90.6348C151.508 90.564 151.631 90.5262 151.757 90.5262C151.883 90.5262 152.006 90.564 152.11 90.6348L152.485 89.9283C152.323 89.8257 152.133 89.7748 151.941 89.7824C151.749 89.79 151.564 89.8556 151.411 89.9707C150.953 90.2453 150.577 90.6382 150.323 91.1081ZM150.888 91.5249L151.397 91.9346L151.92 90.9244C151.843 90.8713 151.752 90.8428 151.658 90.8428C151.565 90.8428 151.474 90.8713 151.397 90.9244C151.174 91.0724 150.997 91.2806 150.888 91.5249Z" fill="#FAFAFA"/>
<path d="M158.801 84.6371C159.027 84.5099 159.203 84.6371 159.203 84.9408V86.8765C159.202 87.0266 159.165 87.1742 159.095 87.3069C159.025 87.4397 158.924 87.5537 158.801 87.6395L155.346 89.6316C155.127 89.7588 154.95 89.6316 154.95 89.3349V87.3993C154.952 87.25 154.989 87.1032 155.057 86.9707C155.126 86.8382 155.225 86.7236 155.346 86.6363L158.801 84.6371ZM158.801 84.4746L155.346 86.4667C155.187 86.5815 155.056 86.732 154.965 86.9062C154.875 87.0804 154.826 87.2735 154.823 87.4699V89.4056C154.823 89.7871 155.056 89.9637 155.346 89.8012L158.801 87.8019C158.96 87.6887 159.09 87.5395 159.181 87.3664C159.272 87.1933 159.321 87.0013 159.323 86.8058V84.8702C159.323 84.4816 159.09 84.305 158.801 84.4746Z" fill="#0279B1"/>
<path d="M157.403 87.9927L155.46 89.1159C155.369 89.1654 155.298 89.1159 155.298 88.9958V87.3639C155.298 87.3029 155.313 87.2428 155.341 87.1887C155.37 87.1346 155.41 87.0881 155.46 87.0531L157.403 85.9298C157.495 85.8804 157.566 85.9298 157.566 86.0499V87.6536C157.57 87.7193 157.557 87.7851 157.529 87.8445C157.501 87.904 157.457 87.955 157.403 87.9927Z" fill="#FAFAFA"/>
<path d="M159.699 86.1489L159.558 86.2266V85.1669L159.699 85.0821C159.777 85.0397 159.833 85.2376 159.833 85.5272C159.86 85.7436 159.812 85.9627 159.699 86.1489Z" fill="#0279B1"/>
<path d="M157.564 102.955C157.354 103.083 157.176 103.258 157.044 103.466C156.913 103.675 156.832 103.911 156.809 104.156C156.809 104.573 157.148 104.721 157.564 104.474C157.777 104.349 157.957 104.176 158.089 103.969C158.222 103.761 158.303 103.525 158.327 103.28C158.327 102.828 157.988 102.715 157.564 102.955ZM157.564 97.1765C157.353 97.3036 157.175 97.4784 157.044 97.687C156.912 97.8956 156.832 98.1321 156.809 98.3774C156.809 98.7942 157.148 98.9355 157.564 98.6953C157.777 98.5706 157.957 98.3974 158.089 98.1899C158.222 97.9824 158.303 97.7465 158.327 97.5014C158.327 97.0776 157.988 96.9363 157.564 97.1765ZM157.564 100.066C157.354 100.193 157.176 100.368 157.044 100.577C156.913 100.785 156.832 101.022 156.809 101.267C156.809 101.684 157.148 101.832 157.564 101.585C157.777 101.46 157.957 101.287 158.089 101.079C158.222 100.872 158.303 100.636 158.327 100.391C158.327 100.002 157.988 99.8256 157.564 100.066Z" fill="#FAFAFA"/>
<path d="M109.265 128.006L110.939 123.167L111.059 122.905C111.111 122.778 111.206 122.673 111.328 122.609L111.928 122.262C111.951 122.244 111.98 122.233 112.01 122.233C112.039 122.233 112.068 122.244 112.091 122.262C112.117 122.285 112.137 122.314 112.149 122.346C112.161 122.378 112.165 122.412 112.162 122.446V130.04C112.161 130.132 112.136 130.222 112.091 130.302C112.058 130.381 112.001 130.448 111.928 130.493L111.222 130.902C111.198 130.921 111.168 130.931 111.137 130.931C111.107 130.931 111.077 130.921 111.052 130.902C111.027 130.88 111.007 130.851 110.994 130.819C110.982 130.787 110.978 130.753 110.982 130.719V126.141L109.837 129.447C109.804 129.541 109.761 129.63 109.71 129.716C109.666 129.805 109.597 129.881 109.512 129.935L109.053 130.196C109.023 130.216 108.987 130.227 108.951 130.227C108.914 130.227 108.879 130.216 108.848 130.196C108.8 130.163 108.759 130.119 108.728 130.069L107.577 128.084V132.683C107.577 132.774 107.552 132.865 107.506 132.944C107.474 133.023 107.417 133.09 107.344 133.135L106.637 133.552C106.612 133.569 106.583 133.578 106.552 133.578C106.522 133.578 106.492 133.569 106.468 133.552C106.442 133.529 106.422 133.5 106.41 133.468C106.397 133.436 106.393 133.402 106.397 133.368V125.802C106.397 125.708 106.421 125.615 106.468 125.533C106.509 125.458 106.567 125.392 106.637 125.343L107.238 124.996C107.351 124.935 107.435 124.935 107.492 124.996L107.612 125.117L109.265 128.006Z" fill="#FAFAFA"/>
<path d="M114.859 128.486L113.114 124.113C113.11 124.088 113.11 124.061 113.114 124.036C113.115 123.944 113.14 123.854 113.185 123.774C113.218 123.695 113.275 123.628 113.348 123.584L114.012 123.202C114.039 123.184 114.071 123.174 114.104 123.174C114.136 123.174 114.168 123.184 114.195 123.202C114.245 123.23 114.283 123.275 114.301 123.329L115.474 126.282L116.647 121.973C116.668 121.885 116.703 121.801 116.753 121.726C116.793 121.643 116.857 121.574 116.936 121.528L117.6 121.146C117.623 121.127 117.652 121.117 117.682 121.117C117.711 121.117 117.74 121.127 117.763 121.146C117.789 121.169 117.809 121.197 117.821 121.229C117.833 121.261 117.838 121.296 117.834 121.33C117.838 121.358 117.838 121.387 117.834 121.415L115.354 130.507C115.333 130.596 115.3 130.681 115.255 130.761C115.208 130.841 115.143 130.909 115.064 130.959L114.407 131.34C114.382 131.358 114.353 131.367 114.323 131.367C114.292 131.367 114.263 131.358 114.238 131.34C114.212 131.317 114.193 131.289 114.181 131.257C114.168 131.225 114.164 131.191 114.167 131.157C114.167 131.121 114.167 131.093 114.167 131.065L114.859 128.486Z" fill="#FAFAFA"/>
<path d="M123.338 119.995L122.575 123.944C122.552 124.065 122.516 124.183 122.469 124.297C122.429 124.392 122.36 124.471 122.272 124.523L121.565 124.933C121.473 124.982 121.41 124.989 121.36 124.933C121.299 124.873 121.262 124.792 121.254 124.707L120.124 117.946C120.124 117.946 120.124 117.875 120.124 117.854C120.124 117.762 120.149 117.672 120.195 117.593C120.232 117.515 120.291 117.448 120.364 117.402L121.014 117.021C121.04 117.007 121.069 117 121.099 117C121.128 117 121.158 117.007 121.184 117.021C121.233 117.021 121.268 117.098 121.29 117.204L122.031 121.761L122.681 118.229C122.705 118.14 122.733 118.053 122.766 117.967C122.809 117.858 122.889 117.768 122.992 117.713L123.699 117.296C123.805 117.233 123.882 117.233 123.925 117.296C123.962 117.345 123.991 117.4 124.009 117.459L124.659 120.221L125.401 114.809C125.409 114.698 125.446 114.591 125.507 114.499C125.546 114.431 125.602 114.375 125.67 114.336L126.327 113.955C126.35 113.937 126.379 113.927 126.408 113.927C126.437 113.927 126.466 113.937 126.489 113.955C126.515 113.977 126.535 114.006 126.547 114.038C126.559 114.07 126.564 114.104 126.56 114.138C126.563 114.171 126.563 114.204 126.56 114.237L125.458 122.305C125.444 122.425 125.411 122.542 125.359 122.651C125.314 122.745 125.243 122.823 125.154 122.877L124.447 123.294C124.356 123.343 124.292 123.343 124.25 123.294C124.192 123.23 124.153 123.152 124.137 123.068L123.338 119.995Z" fill="#FAFAFA"/>
<path d="M127.252 117.049C127.286 116.835 127.34 116.624 127.414 116.42C127.627 115.873 127.946 115.373 128.354 114.951C128.585 114.71 128.849 114.503 129.138 114.336C129.388 114.185 129.663 114.08 129.95 114.025C130.164 113.992 130.382 114.03 130.572 114.131C130.765 114.257 130.908 114.447 130.975 114.668C131.076 114.985 131.124 115.317 131.116 115.65V119.076C131.112 119.17 131.088 119.262 131.045 119.345C131.006 119.422 130.948 119.488 130.876 119.536L130.205 119.917C130.182 119.936 130.153 119.946 130.123 119.946C130.094 119.946 130.065 119.936 130.042 119.917C130.016 119.894 129.997 119.866 129.984 119.834C129.972 119.802 129.968 119.767 129.971 119.733V119.345C129.832 119.664 129.652 119.963 129.435 120.235C129.189 120.539 128.89 120.795 128.552 120.991C128.334 121.119 128.094 121.205 127.845 121.245C127.672 121.274 127.495 121.241 127.343 121.153C127.196 121.057 127.085 120.916 127.026 120.751C126.949 120.535 126.913 120.308 126.92 120.08C126.918 119.543 127.067 119.017 127.351 118.561C127.659 118.07 128.049 117.636 128.502 117.275L129.915 116.116C129.915 115.791 129.83 115.615 129.675 115.572C129.466 115.542 129.254 115.593 129.081 115.714C128.953 115.785 128.838 115.878 128.742 115.989C128.652 116.105 128.571 116.227 128.502 116.357C128.46 116.432 128.411 116.503 128.354 116.569C128.312 116.614 128.264 116.655 128.212 116.689L127.393 117.162C127.37 117.174 127.345 117.18 127.319 117.18C127.293 117.18 127.268 117.174 127.245 117.162C127.259 117.183 127.245 117.134 127.252 117.049ZM128.728 119.514C128.923 119.397 129.101 119.254 129.258 119.091C129.41 118.933 129.543 118.757 129.654 118.568C129.755 118.39 129.833 118.2 129.887 118.003C129.941 117.833 129.969 117.657 129.971 117.48V117.36L128.771 118.335C128.568 118.486 128.391 118.67 128.248 118.879C128.146 119.031 128.092 119.211 128.092 119.394C128.092 119.557 128.156 119.649 128.283 119.649C128.441 119.648 128.596 119.602 128.728 119.514Z" fill="#FAFAFA"/>
<path d="M133.432 117.769C133.432 117.861 133.407 117.951 133.361 118.031C133.324 118.109 133.265 118.175 133.192 118.222L132.521 118.61C132.497 118.628 132.469 118.638 132.439 118.638C132.41 118.638 132.382 118.628 132.358 118.61C132.333 118.589 132.313 118.562 132.3 118.531C132.288 118.5 132.284 118.467 132.288 118.434V110.719C132.288 110.627 132.313 110.537 132.358 110.458C132.391 110.378 132.448 110.312 132.521 110.267L133.227 109.893C133.252 109.875 133.282 109.866 133.312 109.866C133.342 109.866 133.372 109.875 133.397 109.893C133.422 109.915 133.442 109.944 133.455 109.976C133.467 110.008 133.471 110.042 133.467 110.076L133.432 117.769Z" fill="#FAFAFA"/>
<path d="M135.792 116.406C135.792 116.498 135.768 116.588 135.722 116.667C135.689 116.747 135.632 116.813 135.559 116.858L134.888 117.247C134.863 117.264 134.834 117.273 134.803 117.273C134.773 117.273 134.743 117.264 134.719 117.247C134.693 117.226 134.673 117.198 134.661 117.167C134.648 117.137 134.644 117.103 134.648 117.07V109.356C134.649 109.264 134.673 109.174 134.719 109.094C134.756 109.016 134.815 108.95 134.888 108.904L135.559 108.515C135.583 108.497 135.611 108.488 135.64 108.488C135.67 108.488 135.698 108.497 135.722 108.515C135.747 108.538 135.767 108.566 135.78 108.598C135.792 108.63 135.796 108.665 135.792 108.699V116.406Z" fill="#FAFAFA"/>
<path d="M136.761 113.1C136.762 112.206 136.96 111.323 137.34 110.514C137.529 110.128 137.766 109.767 138.046 109.44C138.299 109.136 138.602 108.877 138.944 108.677C139.209 108.505 139.517 108.409 139.834 108.402C140.092 108.398 140.344 108.488 140.54 108.656C140.747 108.848 140.898 109.092 140.978 109.363C141.083 109.706 141.133 110.064 141.127 110.422V110.945C141.126 111.039 141.101 111.131 141.056 111.214C141.019 111.29 140.963 111.356 140.893 111.404L137.948 113.1C137.94 113.248 137.969 113.396 138.032 113.531C138.077 113.628 138.158 113.704 138.258 113.743C138.364 113.776 138.478 113.776 138.583 113.743C138.716 113.71 138.844 113.66 138.965 113.594C139.13 113.499 139.282 113.382 139.417 113.248C139.532 113.142 139.631 113.021 139.714 112.888C139.761 112.812 139.813 112.738 139.869 112.669C139.918 112.616 139.976 112.57 140.039 112.535L140.745 112.132C140.77 112.114 140.799 112.104 140.83 112.104C140.86 112.104 140.89 112.114 140.915 112.132C140.941 112.154 140.96 112.183 140.972 112.215C140.983 112.247 140.985 112.282 140.978 112.316C140.957 112.488 140.912 112.657 140.844 112.817C140.742 113.065 140.614 113.302 140.463 113.524C140.277 113.805 140.064 114.068 139.827 114.308C139.577 114.586 139.286 114.824 138.965 115.014C138.696 115.187 138.387 115.287 138.068 115.304C137.938 115.31 137.809 115.29 137.688 115.245C137.567 115.2 137.456 115.131 137.361 115.043C137.154 114.835 137.006 114.577 136.93 114.294C136.817 113.906 136.76 113.504 136.761 113.1ZM138.922 110.09C138.756 110.18 138.608 110.3 138.484 110.444C138.365 110.573 138.262 110.718 138.181 110.875C138.099 111.02 138.035 111.174 137.99 111.334C137.951 111.473 137.923 111.614 137.905 111.758L139.897 110.606C139.884 110.494 139.862 110.383 139.834 110.274C139.808 110.172 139.751 110.081 139.671 110.013C139.59 109.947 139.486 109.914 139.382 109.921C139.224 109.94 139.073 109.998 138.944 110.09H138.922Z" fill="#FAFAFA"/>
<path d="M143.612 109.999C143.594 110.178 143.644 110.357 143.753 110.5C143.852 110.585 144.036 110.557 144.297 110.401L144.834 110.09C144.859 110.073 144.889 110.064 144.919 110.064C144.949 110.064 144.979 110.073 145.004 110.09C145.03 110.113 145.049 110.142 145.062 110.174C145.074 110.206 145.078 110.24 145.074 110.274V111.051C145.074 111.143 145.049 111.233 145.004 111.313C144.967 111.391 144.908 111.457 144.834 111.503L144.184 111.878C143.633 112.196 143.209 112.266 142.913 112.083C142.616 111.899 142.468 111.433 142.468 110.67V108.141L141.881 108.48C141.856 108.497 141.827 108.506 141.797 108.506C141.766 108.506 141.737 108.497 141.712 108.48C141.688 108.456 141.67 108.427 141.659 108.395C141.647 108.363 141.644 108.329 141.648 108.296V107.526C141.649 107.433 141.671 107.341 141.712 107.258C141.751 107.18 141.809 107.115 141.881 107.067L142.468 106.735V104.82C142.469 104.727 142.49 104.635 142.531 104.552C142.573 104.476 142.631 104.411 142.701 104.361L143.372 103.98C143.396 103.961 143.426 103.951 143.457 103.951C143.487 103.951 143.517 103.961 143.542 103.98C143.566 104.003 143.585 104.032 143.597 104.064C143.609 104.095 143.614 104.129 143.612 104.163V106.078L144.75 105.421C144.773 105.403 144.801 105.393 144.831 105.393C144.86 105.393 144.889 105.403 144.912 105.421C144.938 105.443 144.958 105.471 144.971 105.504C144.983 105.536 144.987 105.57 144.983 105.604V106.374C144.983 106.469 144.958 106.561 144.912 106.643C144.878 106.721 144.821 106.787 144.75 106.834L143.612 107.491V109.999Z" fill="#FAFAFA"/>
<path d="M160.108 80.0804C161.521 80.0804 162.327 81.2037 162.327 83.0828V249.098C162.247 250.37 161.874 251.606 161.237 252.709C160.599 253.812 159.715 254.752 158.653 255.456L91.7947 294.057C91.3486 294.337 90.8376 294.498 90.3112 294.523C89.301 294.523 88.6934 293.682 88.6934 292.262V125.039C88.8202 122.931 89.7446 120.951 91.279 119.5L91.4062 119.387C91.4753 119.317 91.5484 119.251 91.6252 119.189C91.8486 119.004 92.0847 118.834 92.3316 118.681L111.137 107.823L112.367 107.116C112.446 107.062 112.539 107.03 112.635 107.024C112.741 107.024 112.748 107.307 112.748 107.335C112.729 107.512 112.748 107.691 112.802 107.861C112.857 108.03 112.946 108.187 113.064 108.32C113.183 108.453 113.328 108.559 113.49 108.633C113.652 108.707 113.827 108.746 114.005 108.748C114.322 108.742 114.632 108.652 114.903 108.487L136.803 95.8342C137.259 95.5485 137.64 95.1589 137.917 94.6972C138.193 94.2354 138.356 93.7148 138.392 93.178C138.416 92.8663 138.505 92.5632 138.653 92.2882C138.802 92.0131 139.007 91.7724 139.254 91.5814L139.339 91.5319L157.706 80.9352L158.095 80.7092C158.679 80.343 159.349 80.1338 160.038 80.1016M160.038 79.5435C159.249 79.5797 158.484 79.8234 157.819 80.25L157.424 80.476L139.056 91.0728L138.929 91.1505C138.608 91.3934 138.345 91.703 138.155 92.058C137.966 92.4129 137.857 92.8047 137.834 93.2062C137.799 93.6451 137.662 94.0697 137.434 94.4463C137.206 94.8228 136.893 95.1409 136.52 95.375L114.62 108.028C114.435 108.142 114.223 108.208 114.005 108.218C113.589 108.218 113.299 107.907 113.299 107.363C113.299 106.819 113.023 106.495 112.593 106.495C112.398 106.499 112.208 106.555 112.042 106.657L110.812 107.363L92.0067 118.222C91.7287 118.387 91.462 118.571 91.2084 118.773L90.834 119.112C89.1757 120.665 88.1811 122.798 88.0576 125.067V292.297C88.0576 294.092 88.9477 295.123 90.2405 295.123C90.8666 295.099 91.4754 294.911 92.0067 294.579L158.865 255.979C160.015 255.227 160.972 254.215 161.658 253.025C162.344 251.834 162.74 250.499 162.814 249.126V83.1111C162.814 80.8575 161.684 79.5788 160.038 79.5788V79.5435Z" fill="#0279B1"/>
<path d="M242.987 288.985L247.564 287.247L246.052 284.166L243.238 286.796L242.987 288.985Z" fill="black"/>
<path d="M238.202 280.775C238.202 280.775 238.035 283.748 238.001 284.683C237.968 285.619 241.985 288.509 243.012 288.985L243.263 286.796C244.18 287.873 244.96 289.06 245.585 290.329C246.361 291.657 247.355 294.18 249.485 295.892C252.65 298.397 257.57 299.709 262.589 299.867C267.609 300.026 270.465 298.781 271.885 297.696C273.305 296.61 273.747 295.34 273.388 294.079C273.029 292.818 238.202 280.775 238.202 280.775Z" fill="#263238"/>
<path d="M251.566 270.569L251.616 268.84C252.543 268.84 252.66 271.345 254.021 273.492C255.996 276.764 258.382 279.77 261.12 282.437C266.223 287.014 270.775 289.887 273.047 291.95C276.095 294.714 270.783 299.149 262.607 298.731C258.539 298.523 251.323 296.526 249.286 294.146C247.248 291.766 245.945 288.058 244.35 286.329C242.754 284.6 239.221 282.871 238.203 280.775C237.643 279.622 237.927 276.916 238.244 274.628C238.537 272.515 238.587 269.291 239.781 269.55L239.873 270.627C240.366 271.546 241.502 273.066 244.775 273.6C246.404 273.859 251.29 273.985 251.566 270.569Z" fill="#37474F"/>
<path d="M247.405 273.667C248.967 273.525 250.646 273.007 251.297 271.604C251.297 271.604 251.297 271.604 251.297 271.554C251.205 272.156 251.254 272.771 251.439 273.35C251.625 273.93 251.942 274.459 252.367 274.895C253.836 276.565 263.141 288.55 263.141 288.55C263.141 288.55 254.488 278.687 252.834 276.858C250.379 274.11 249.602 273.793 247.372 273.726L247.405 273.667Z" fill="black"/>
<path d="M249.46 276.841C249.451 276.94 249.413 277.034 249.35 277.112C249.287 277.189 249.203 277.246 249.108 277.275C249.013 277.304 248.911 277.304 248.815 277.276C248.72 277.247 248.636 277.19 248.573 277.113C248.51 277.036 248.471 276.941 248.462 276.842C248.453 276.743 248.474 276.643 248.521 276.556C248.569 276.468 248.642 276.397 248.73 276.351C248.818 276.305 248.919 276.287 249.018 276.298C249.083 276.303 249.146 276.322 249.204 276.352C249.262 276.382 249.314 276.424 249.355 276.475C249.396 276.526 249.427 276.584 249.445 276.647C249.463 276.71 249.468 276.776 249.46 276.841Z" fill="black"/>
<path d="M251.891 279.489C251.875 279.619 251.808 279.739 251.705 279.821C251.602 279.904 251.471 279.943 251.34 279.931C251.216 279.908 251.106 279.84 251.03 279.739C250.955 279.639 250.92 279.513 250.932 279.388C250.945 279.263 251.004 279.147 251.098 279.063C251.192 278.98 251.315 278.935 251.44 278.937C251.573 278.952 251.694 279.018 251.778 279.121C251.863 279.224 251.903 279.356 251.891 279.489Z" fill="black"/>
<path d="M254.313 282.128C254.307 282.193 254.287 282.257 254.256 282.315C254.225 282.373 254.182 282.424 254.131 282.466C254.08 282.507 254.02 282.537 253.957 282.555C253.894 282.573 253.827 282.579 253.762 282.57C253.697 282.563 253.634 282.543 253.577 282.512C253.52 282.481 253.47 282.439 253.429 282.388C253.389 282.337 253.358 282.279 253.34 282.216C253.322 282.154 253.316 282.088 253.323 282.023C253.33 281.959 253.35 281.896 253.382 281.839C253.413 281.782 253.455 281.732 253.506 281.691C253.557 281.65 253.615 281.62 253.678 281.602C253.74 281.583 253.806 281.578 253.87 281.585C253.936 281.59 253.999 281.608 254.057 281.639C254.115 281.669 254.166 281.711 254.208 281.762C254.249 281.812 254.28 281.871 254.298 281.934C254.316 281.997 254.321 282.063 254.313 282.128Z" fill="black"/>
<path d="M256.744 284.775C256.727 284.906 256.66 285.025 256.557 285.108C256.455 285.19 256.324 285.23 256.193 285.218C256.124 285.215 256.056 285.198 255.994 285.169C255.933 285.139 255.877 285.096 255.833 285.044C255.788 284.992 255.754 284.932 255.734 284.866C255.713 284.8 255.706 284.731 255.714 284.663C255.721 284.594 255.743 284.528 255.777 284.469C255.811 284.409 255.857 284.357 255.912 284.316C255.967 284.275 256.03 284.245 256.097 284.229C256.164 284.214 256.233 284.212 256.301 284.224C256.433 284.239 256.553 284.305 256.636 284.408C256.719 284.512 256.758 284.644 256.744 284.775Z" fill="black"/>
<path d="M259.174 287.415C259.165 287.513 259.127 287.608 259.065 287.685C259.003 287.762 258.919 287.819 258.824 287.849C258.729 287.878 258.628 287.879 258.533 287.851C258.438 287.823 258.353 287.767 258.289 287.691C258.226 287.614 258.187 287.521 258.176 287.422C258.166 287.323 258.186 287.224 258.232 287.136C258.279 287.048 258.35 286.976 258.437 286.929C258.525 286.882 258.624 286.862 258.723 286.872C258.855 286.884 258.976 286.949 259.06 287.05C259.145 287.152 259.186 287.283 259.174 287.415Z" fill="black"/>
<path d="M248.951 276.991C248.902 276.984 248.856 276.964 248.818 276.933C248.799 276.914 248.784 276.892 248.774 276.868C248.764 276.843 248.759 276.817 248.759 276.791C248.759 276.764 248.764 276.738 248.774 276.714C248.784 276.69 248.799 276.668 248.818 276.649C250.344 275.205 252.363 274.399 254.464 274.394C254.515 274.398 254.563 274.422 254.598 274.461C254.632 274.5 254.65 274.551 254.647 274.603C254.647 274.629 254.642 274.656 254.631 274.68C254.621 274.705 254.605 274.727 254.585 274.745C254.566 274.763 254.543 274.777 254.517 274.785C254.492 274.794 254.465 274.797 254.439 274.795C252.455 274.814 250.55 275.577 249.102 276.933C249.059 276.968 249.007 276.989 248.951 276.991Z" fill="#263238"/>
<path d="M251.415 279.622C251.365 279.62 251.317 279.599 251.281 279.564C251.245 279.525 251.226 279.474 251.226 279.422C251.226 279.369 251.245 279.318 251.281 279.28C252.809 277.84 254.828 277.037 256.927 277.033C256.956 277.027 256.986 277.028 257.015 277.035C257.044 277.042 257.071 277.055 257.094 277.074C257.118 277.093 257.136 277.116 257.149 277.143C257.162 277.17 257.168 277.2 257.168 277.229C257.168 277.259 257.162 277.288 257.149 277.315C257.136 277.342 257.118 277.366 257.094 277.385C257.071 277.404 257.044 277.417 257.015 277.424C256.986 277.431 256.956 277.432 256.927 277.426C253.954 277.275 251.607 279.547 251.582 279.564C251.561 279.587 251.535 279.604 251.506 279.614C251.477 279.625 251.445 279.627 251.415 279.622Z" fill="#263238"/>
<path d="M253.804 282.278C253.757 282.273 253.713 282.252 253.679 282.22C253.659 282.202 253.643 282.18 253.633 282.155C253.622 282.131 253.616 282.104 253.616 282.078C253.616 282.051 253.622 282.024 253.633 282C253.643 281.976 253.659 281.954 253.679 281.936C255.205 280.492 257.224 279.685 259.325 279.681C259.377 279.685 259.426 279.709 259.462 279.747C259.497 279.786 259.517 279.837 259.517 279.889C259.516 279.916 259.509 279.943 259.498 279.968C259.486 279.992 259.47 280.014 259.449 280.032C259.429 280.05 259.405 280.063 259.38 280.072C259.354 280.081 259.327 280.084 259.3 280.082C257.316 280.103 255.412 280.865 253.963 282.22C253.942 282.239 253.917 282.255 253.889 282.265C253.862 282.275 253.833 282.279 253.804 282.278Z" fill="#263238"/>
<path d="M256.234 284.917C256.184 284.915 256.136 284.894 256.101 284.859C256.065 284.82 256.045 284.769 256.045 284.717C256.045 284.664 256.065 284.613 256.101 284.575C257.628 283.135 259.647 282.332 261.747 282.328C261.773 282.329 261.798 282.336 261.821 282.347C261.845 282.358 261.866 282.374 261.883 282.393C261.9 282.413 261.913 282.436 261.921 282.46C261.93 282.485 261.933 282.511 261.93 282.537C261.926 282.589 261.902 282.637 261.863 282.671C261.824 282.705 261.773 282.723 261.721 282.721C258.748 282.57 256.401 284.842 256.376 284.859C256.358 284.878 256.336 284.893 256.312 284.904C256.287 284.914 256.261 284.918 256.234 284.917Z" fill="#263238"/>
<path d="M258.656 287.565C258.609 287.558 258.566 287.537 258.531 287.506C258.512 287.488 258.497 287.466 258.487 287.441C258.477 287.417 258.472 287.391 258.472 287.364C258.472 287.338 258.477 287.312 258.487 287.288C258.497 287.263 258.512 287.241 258.531 287.222C260.057 285.779 262.076 284.972 264.177 284.967C264.203 284.968 264.229 284.975 264.253 284.986C264.277 284.997 264.298 285.013 264.316 285.032C264.334 285.051 264.348 285.074 264.357 285.099C264.366 285.124 264.37 285.15 264.369 285.176C264.364 285.23 264.339 285.28 264.299 285.316C264.258 285.352 264.206 285.371 264.151 285.368C261.187 285.21 258.84 287.481 258.815 287.506C258.793 287.526 258.768 287.542 258.741 287.552C258.714 287.562 258.685 287.566 258.656 287.565Z" fill="#263238"/>
<path d="M205.479 303.342C204.786 307.234 203.859 309.756 202.189 311.894C200.518 314.032 197.511 314.266 195.282 313.798C193.473 313.432 191.81 312.549 190.494 311.256C189.178 309.963 188.264 308.317 187.865 306.515C187.147 303.834 187.64 300.761 188.7 297.203L205.479 303.342Z" fill="#263238"/>
<path d="M196.777 273.442C195.675 273.392 194.714 278.612 193.436 283.806C192.083 289.369 189.97 292.317 188.943 296.059C187.531 301.237 187.615 303.659 189.093 307.075C190.572 310.491 198.28 314.667 202.072 310.466C205.171 307.05 205.772 302.949 206.165 297.612C206.392 293.104 206.846 288.611 207.526 284.149C208.211 280.215 208.946 276.415 208.044 275.855C207.902 276.432 207.743 277.158 207.593 277.718C207.484 278.152 207.117 280.282 206.499 280.223C206.505 279.721 206.561 279.22 206.666 278.728C206.786 278.288 206.733 277.819 206.515 277.417C206.217 277.068 205.812 276.828 205.363 276.732C204.306 276.381 203.233 276.083 202.147 275.839C201.604 275.73 201.062 275.638 200.477 275.58C199.519 275.426 198.549 275.351 197.579 275.354C197.442 275.381 197.312 275.437 197.199 275.517C197.085 275.598 196.99 275.702 196.919 275.822C196.841 276.011 196.796 276.211 196.785 276.415C196.743 276.781 196.653 277.141 196.518 277.484C196.46 277.634 196.334 277.818 196.176 277.76C196.121 277.724 196.078 277.671 196.054 277.61C196.03 277.548 196.026 277.481 196.042 277.417C196.109 276.782 196.251 276.323 196.368 275.588C196.418 275.246 196.535 274.753 196.577 274.444C196.618 274.135 196.719 273.809 196.777 273.442Z" fill="#37474F"/>
<path d="M192.842 297.879C192.831 297.929 192.83 297.98 192.839 298.03C192.847 298.08 192.866 298.127 192.893 298.17C192.92 298.213 192.956 298.249 192.997 298.278C193.038 298.307 193.085 298.328 193.135 298.339C193.211 298.357 193.291 298.353 193.364 298.325C193.437 298.298 193.501 298.249 193.546 298.186C193.592 298.122 193.617 298.046 193.619 297.968C193.622 297.89 193.6 297.813 193.558 297.747C193.516 297.681 193.455 297.629 193.384 297.597C193.312 297.566 193.232 297.557 193.155 297.571C193.078 297.586 193.008 297.623 192.952 297.678C192.896 297.732 192.858 297.803 192.842 297.879Z" fill="black"/>
<path d="M193.645 294.271C193.634 294.321 193.633 294.372 193.641 294.422C193.65 294.472 193.669 294.519 193.696 294.562C193.723 294.605 193.758 294.641 193.8 294.67C193.841 294.699 193.888 294.72 193.937 294.731C194.038 294.751 194.142 294.732 194.229 294.678C194.317 294.623 194.379 294.538 194.405 294.438C194.425 294.338 194.405 294.233 194.348 294.147C194.292 294.062 194.205 294.001 194.104 293.979C194.055 293.968 194.004 293.967 193.954 293.976C193.904 293.984 193.857 294.003 193.814 294.03C193.771 294.057 193.734 294.092 193.705 294.134C193.676 294.175 193.656 294.222 193.645 294.271Z" fill="black"/>
<path d="M194.405 290.872C194.394 290.922 194.393 290.973 194.401 291.022C194.41 291.072 194.428 291.12 194.456 291.163C194.483 291.205 194.518 291.242 194.56 291.271C194.601 291.3 194.648 291.321 194.697 291.332C194.798 291.352 194.902 291.333 194.989 291.279C195.076 291.224 195.139 291.139 195.165 291.039C195.185 290.939 195.164 290.834 195.108 290.748C195.052 290.662 194.964 290.602 194.864 290.58C194.815 290.569 194.764 290.568 194.714 290.576C194.664 290.585 194.616 290.603 194.574 290.631C194.531 290.658 194.494 290.693 194.465 290.735C194.436 290.776 194.416 290.823 194.405 290.872Z" fill="black"/>
<path d="M195.157 287.515C195.146 287.564 195.144 287.615 195.153 287.665C195.162 287.715 195.18 287.762 195.208 287.805C195.235 287.848 195.27 287.885 195.311 287.914C195.353 287.943 195.4 287.963 195.449 287.974C195.523 287.99 195.601 287.984 195.671 287.957C195.742 287.929 195.803 287.881 195.846 287.819C195.89 287.757 195.914 287.683 195.916 287.607C195.917 287.531 195.897 287.457 195.856 287.393C195.815 287.329 195.756 287.278 195.687 287.247C195.617 287.217 195.54 287.207 195.466 287.22C195.391 287.233 195.322 287.268 195.267 287.321C195.212 287.373 195.173 287.441 195.157 287.515Z" fill="black"/>
<path d="M203.809 289.085C203.801 289.18 203.828 289.274 203.884 289.351C203.941 289.427 204.023 289.481 204.116 289.501C204.209 289.521 204.306 289.507 204.389 289.462C204.473 289.416 204.536 289.341 204.569 289.252C204.58 289.203 204.581 289.151 204.573 289.102C204.564 289.052 204.545 289.004 204.518 288.962C204.491 288.919 204.456 288.882 204.414 288.853C204.373 288.824 204.326 288.803 204.277 288.793C204.176 288.77 204.07 288.788 203.983 288.843C203.895 288.897 203.833 288.984 203.809 289.085Z" fill="black"/>
<path d="M203.04 292.459C203.029 292.508 203.028 292.559 203.037 292.609C203.046 292.659 203.064 292.707 203.091 292.749C203.119 292.792 203.154 292.829 203.195 292.858C203.237 292.887 203.283 292.907 203.333 292.918C203.382 292.929 203.433 292.931 203.483 292.922C203.533 292.913 203.58 292.895 203.623 292.867C203.666 292.84 203.703 292.805 203.732 292.764C203.761 292.722 203.781 292.675 203.792 292.626C203.814 292.526 203.796 292.422 203.741 292.336C203.686 292.25 203.599 292.189 203.5 292.167C203.4 292.145 203.296 292.163 203.21 292.218C203.123 292.273 203.063 292.359 203.04 292.459Z" fill="black"/>
<path d="M202.281 295.867C202.259 295.966 202.277 296.071 202.332 296.157C202.386 296.243 202.473 296.304 202.573 296.326C202.673 296.348 202.777 296.33 202.863 296.275C202.949 296.22 203.01 296.133 203.032 296.034C203.043 295.984 203.044 295.933 203.036 295.884C203.027 295.834 203.008 295.786 202.981 295.743C202.954 295.701 202.919 295.664 202.877 295.635C202.836 295.606 202.789 295.585 202.74 295.574C202.691 295.563 202.64 295.562 202.59 295.571C202.54 295.58 202.492 295.598 202.45 295.625C202.407 295.653 202.37 295.688 202.341 295.729C202.312 295.771 202.292 295.817 202.281 295.867Z" fill="black"/>
<path d="M201.471 299.475C201.453 299.575 201.474 299.679 201.53 299.764C201.586 299.849 201.672 299.91 201.772 299.934C201.871 299.954 201.975 299.935 202.06 299.88C202.146 299.826 202.207 299.74 202.231 299.642C202.242 299.592 202.243 299.541 202.235 299.491C202.226 299.442 202.207 299.394 202.18 299.351C202.153 299.309 202.118 299.272 202.076 299.243C202.035 299.214 201.988 299.193 201.939 299.182C201.838 299.16 201.732 299.178 201.645 299.233C201.557 299.287 201.495 299.374 201.471 299.475Z" fill="black"/>
<path d="M198.029 300.811L204.034 275.697L202.615 275.496L198.029 300.811Z" fill="black"/>
<path d="M193.177 298.147H193.236C195.842 297.888 200.151 298.656 201.755 299.684C201.776 299.699 201.8 299.709 201.825 299.714C201.85 299.72 201.876 299.719 201.902 299.714C201.927 299.708 201.951 299.698 201.971 299.682C201.992 299.667 202.009 299.648 202.022 299.625C202.036 299.604 202.046 299.58 202.05 299.555C202.055 299.53 202.054 299.504 202.049 299.479C202.043 299.454 202.033 299.431 202.018 299.41C202.004 299.389 201.985 299.371 201.964 299.358C200.293 298.272 195.925 297.487 193.203 297.754C193.15 297.76 193.102 297.786 193.068 297.827C193.034 297.867 193.016 297.919 193.019 297.971C193.024 298.013 193.043 298.052 193.071 298.084C193.099 298.115 193.136 298.137 193.177 298.147Z" fill="#263238"/>
<path d="M193.979 294.547C194.015 294.555 194.052 294.555 194.087 294.547C196.134 293.862 200.727 294.923 202.556 296.1C202.601 296.129 202.655 296.139 202.706 296.128C202.758 296.117 202.803 296.086 202.832 296.042C202.858 295.997 202.867 295.944 202.856 295.893C202.845 295.842 202.816 295.797 202.773 295.766C200.861 294.547 196.092 293.453 193.962 294.18C193.937 294.186 193.914 294.198 193.894 294.214C193.874 294.23 193.858 294.25 193.846 294.273C193.834 294.296 193.827 294.321 193.826 294.346C193.824 294.372 193.828 294.398 193.837 294.422C193.85 294.452 193.87 294.478 193.894 294.5C193.919 294.522 193.948 294.538 193.979 294.547Z" fill="#263238"/>
<path d="M194.739 291.139H194.848C196.894 290.455 201.488 291.515 203.317 292.685C203.338 292.698 203.362 292.708 203.387 292.712C203.412 292.717 203.438 292.716 203.463 292.711C203.487 292.705 203.511 292.695 203.532 292.68C203.553 292.666 203.57 292.647 203.584 292.626C203.598 292.605 203.607 292.581 203.612 292.556C203.616 292.531 203.616 292.505 203.61 292.48C203.605 292.456 203.595 292.432 203.58 292.411C203.566 292.39 203.547 292.373 203.526 292.359C201.621 291.131 196.886 290.045 194.723 290.764C194.673 290.781 194.632 290.817 194.609 290.863C194.586 290.91 194.581 290.964 194.597 291.014C194.608 291.046 194.627 291.074 194.652 291.096C194.677 291.117 194.707 291.133 194.739 291.139Z" fill="#263238"/>
<path d="M195.457 287.79C195.49 287.798 195.525 287.798 195.558 287.79C197.612 287.105 202.239 288.166 204.035 289.344C204.056 289.358 204.08 289.367 204.105 289.372C204.13 289.376 204.156 289.376 204.181 289.37C204.206 289.365 204.229 289.355 204.25 289.34C204.271 289.325 204.288 289.307 204.302 289.285C204.331 289.241 204.34 289.187 204.329 289.136C204.318 289.084 204.288 289.039 204.244 289.01C202.339 287.79 197.562 286.696 195.441 287.423C195.416 287.429 195.393 287.441 195.373 287.457C195.353 287.473 195.336 287.493 195.324 287.516C195.312 287.539 195.306 287.564 195.304 287.59C195.303 287.615 195.306 287.641 195.315 287.665C195.325 287.697 195.343 287.726 195.368 287.749C195.393 287.771 195.424 287.785 195.457 287.79Z" fill="#263238"/>
<path d="M203.3 146.259C200.728 178.614 198.598 221.869 198.598 221.869C198.372 224.332 195.992 234.814 194.798 246.924C193.545 259.711 192.518 283.673 192.518 283.673C192.518 283.673 201.513 288.475 208.821 286.07C208.821 286.07 216.63 245.73 220.371 230.663C223.904 216.398 229.433 189.363 229.433 189.363L233.2 216.089C233.2 216.089 232.699 225.276 232.974 231.766C233.3 239.282 238.111 275.338 238.111 275.338C238.111 275.338 247.891 281.067 255.458 275.338C255.458 275.338 256.769 225.594 256.978 216.565C257.337 201.473 254.681 167.99 254.013 144.329L203.3 146.259Z" fill="#455A64"/>
<path d="M215.969 182.69C215.285 190.451 214.525 198.199 213.689 205.933C213.288 209.808 212.854 213.675 212.412 217.542L211.752 223.347L211.409 226.245C211.301 227.214 211.109 228.166 210.958 229.126C209.672 236.802 207.701 250.75 206.298 258.408C204.895 266.067 203.408 273.709 201.821 281.334C202.829 273.612 203.943 265.908 205.162 258.225C206.373 250.541 208.261 236.593 209.58 228.926C209.731 227.965 209.939 227.013 210.048 226.045L210.407 223.155L211.142 217.367C211.638 213.508 212.144 209.653 212.662 205.799C213.687 198.088 214.789 190.385 215.969 182.69Z" fill="#37474F"/>
<path d="M252 180.493C252.835 187.734 253.244 195.009 253.562 202.275C253.879 209.541 254.155 216.841 253.879 224.107C253.604 231.373 253.52 243.575 253.244 250.833C252.969 258.091 252.635 265.374 252.2 272.64C252.084 265.363 252.061 258.088 252.134 250.816C252.184 243.55 252.309 231.356 252.459 224.09L252.601 218.636V217.275V215.922V213.199L252.468 202.3L252.251 191.401C252.251 187.768 252.117 184.135 252 180.493Z" fill="#37474F"/>
<path d="M229.407 189.363L232.581 171.64C232.581 171.64 241.417 170.362 245.944 166.32C245.944 166.32 243.021 171.665 234.694 173.762L231.537 189.421L233.207 216.148L229.407 189.363Z" fill="#37474F"/>
<path d="M259.166 97.9093C261.998 101.384 272.663 113.369 272.663 113.369C275.119 109.919 278.008 105.677 280.464 102.01C283.696 97.1994 285.057 96.122 286.31 88.9811C286.767 87.2339 287.441 85.5505 288.315 83.9699C289.084 82.2932 289.543 80.4905 289.668 78.6498C289.668 77.7394 291.99 77.8146 292.683 80.6208C293.109 82.0824 292.758 83.5941 292.9 85.064C292.942 85.515 292.791 86.4839 293.343 86.3502C296.683 85.515 298.838 81.431 302.647 78.299C304.025 77.1798 307.658 75.7934 308.685 77.8563C308.802 78.3658 308.468 78.7583 308.368 79.2344C308.359 79.2982 308.359 79.3627 308.368 79.4265C308.393 79.6411 308.434 79.8533 308.493 80.0612C308.635 80.4788 308.852 80.8964 308.977 81.289C309.177 81.9304 309.162 82.6193 308.936 83.2517C308.707 83.7112 308.525 84.1924 308.393 84.6882C308.607 85.5801 308.57 86.5141 308.284 87.3859C308.008 88.1588 307.64 88.8961 307.19 89.5824C306.952 90.0649 306.767 90.5718 306.639 91.0941C306.286 91.9539 305.798 92.7518 305.194 93.4577C303.256 96.065 300.959 98.3848 298.37 100.348C297.184 101.183 295.907 101.943 294.804 102.912C293.973 103.616 293.252 104.441 292.666 105.359C291.962 106.54 291.358 107.777 290.862 109.059V109.134C286.302 119.157 286.152 122.656 281.124 130.691C276.847 137.155 273.223 134.925 265.255 128.569C255.433 120.76 250.138 116.225 250.138 116.225L245.219 87.6782C250.698 88.9477 256.335 94.4433 259.166 97.9093Z" fill="#FFBDA7"/>
<path d="M293.175 88.8641C293.578 90.3316 293.633 91.873 293.334 93.3653C293.035 94.8576 292.391 96.2593 291.454 97.4583C294.477 96.2723 295.354 92.1464 293.175 88.8641Z" fill="#F0997A"/>
<path d="M242.37 87.0435C247.448 87.4109 251.557 89.0145 258.598 96.7317C265.639 104.449 272.621 112.926 272.621 112.926L277.148 106.913C275.636 107.99 276.58 115.056 279.469 118.012C281.286 119.804 283.668 120.908 286.209 121.136C285.01 124.085 283.615 126.95 282.033 129.713C279.795 133.472 278.225 134.533 276.028 134.725C273.832 134.917 271.284 133.889 265.021 128.978C258.757 124.068 248.793 116.208 248.793 116.208L242.37 87.0435Z" fill="#37474F"/>
<path opacity="0.55" d="M242.37 87.0435C247.448 87.4109 251.557 89.0145 258.598 96.7317C265.639 104.449 272.621 112.926 272.621 112.926L277.148 106.913C275.636 107.99 276.58 115.056 279.469 118.012C281.286 119.804 283.668 120.908 286.209 121.136C285.01 124.085 283.615 126.95 282.033 129.713C279.795 133.472 278.225 134.533 276.028 134.725C273.832 134.917 271.284 133.889 265.021 128.978C258.757 124.068 248.793 116.208 248.793 116.208L242.37 87.0435Z" fill="white"/>
<path opacity="0.35" d="M271.46 111.565C268.429 115.741 267.819 121.111 269.239 124.093C268.796 121.453 270.191 116.116 272.58 112.909L271.46 111.565ZM284.339 125.128C282.377 124.907 280.517 124.14 278.969 122.915C277.001 121.336 275.609 119.152 275.01 116.701C275.01 116.576 274.851 116.626 274.868 116.701C275.265 119.4 276.693 121.84 278.852 123.508C279.954 124.333 281.196 124.953 282.518 125.337C283.065 125.492 283.624 125.604 284.189 125.671L284.464 125.095L284.339 125.128Z" fill="#37474F"/>
<path d="M218.558 84.9388C210.615 86.7094 208.235 87.4444 204.485 88.3464C204.485 88.3464 198.229 106.721 201.595 120.46C202.372 123.617 203.132 134.925 203.124 140.721C203.124 146.259 202.998 147.712 202.405 155.571C202.405 155.571 213.355 163.455 235.563 161.192C252.993 159.413 254.43 155.036 254.43 155.036C254.43 155.036 255.056 130.632 254.212 117.837C253.177 102.16 250.997 90.3675 244.416 87.294C243.789 86.9349 233.207 85.4566 233.207 85.4566L218.558 84.9388Z" fill="#37474F"/>
<path d="M242.871 57.7032L242.971 57.5612C243.529 56.7093 243.986 55.7956 244.333 54.8384C245.093 52.9843 246.713 47.3885 243.172 47.1714C243.923 46.3362 245.009 44.6658 243.723 43.8306C242.654 43.1123 241.075 43.7888 239.881 43.7805C240.397 43.307 240.82 42.7403 241.126 42.1101C241.407 41.5094 241.547 40.8523 241.535 40.1892C240.9 40.3228 240.315 40.6068 239.681 40.7487C238.085 41.0396 236.456 41.0931 234.845 40.9074C233.033 40.7989 231.304 40.1975 229.5 40.0722C227.719 39.9553 225.931 39.9804 224.154 40.1474C218.258 40.6485 212.512 43.2293 211.551 49.3345C206.841 50.8546 207.559 58.6302 208.812 62.0378C211.368 68.9532 216.212 74.9165 216.379 78.4827C216.863 78.0986 217.356 77.7227 217.849 77.3469L225.224 71.6342L234.77 64.2594L238.904 61.0606C240.24 59.9832 241.852 59.0478 242.871 57.7032Z" fill="#263238"/>
<path d="M243.405 74.2233C242.57 77.6141 240.649 80.1197 237.559 80.6793C236.079 80.8898 234.585 80.9736 233.091 80.9299L233.224 85.4482C235.421 88.4132 234.176 94.4683 233.166 95.8714C232.658 96.0481 232.111 96.0771 231.587 95.955C227.62 90.4845 219.06 89.5323 216.253 85.7239L216.003 71.8847C216.003 71.8847 214.14 74.0896 210.992 72.1186C209.701 71.2079 208.764 69.8788 208.341 68.3567C207.918 66.8346 208.034 65.213 208.67 63.7666C210.148 60.4259 213.297 61.7371 214.274 62.7143C215.251 63.6915 216.42 65.5372 217.214 65.2199C217.671 65.067 218.082 64.8031 218.412 64.4517C218.741 64.1004 218.978 63.6727 219.101 63.2071C219.764 61.1454 220.047 58.9806 219.936 56.8178C220.769 56.3781 221.504 55.7761 222.1 55.0472C223.411 53.5272 223.478 51.7065 223.494 50.1196C230.176 47.8562 238.77 48.5244 241.618 50.6207C243.288 53.4186 243.497 60.0083 243.848 63.7917C244.288 67.269 244.138 70.7957 243.405 74.2233Z" fill="#FFBDA7"/>
<path d="M233.082 80.9298C229.633 80.8129 222.225 79.2595 220.346 77.3719C218.466 75.4844 217.581 71.584 217.581 71.584C217.581 71.584 217.974 76.5367 219.444 78.6999C220.913 80.863 224.547 81.7316 226.743 82.2244C228.94 82.7172 233.149 83.0596 233.149 83.0596L233.082 80.9298Z" fill="#F0997A"/>
<path d="M230.017 62.731C230.021 62.9174 229.989 63.1029 229.922 63.2769C229.854 63.4508 229.754 63.6098 229.625 63.7447C229.496 63.8797 229.342 63.988 229.171 64.0634C229.001 64.1388 228.817 64.1798 228.631 64.1842C228.444 64.1886 228.259 64.1562 228.085 64.0889C227.911 64.0216 227.752 63.9207 227.617 63.792C227.482 63.6633 227.374 63.5092 227.298 63.3386C227.223 63.168 227.182 62.9843 227.177 62.7978C227.168 62.6084 227.197 62.4192 227.262 62.2409C227.326 62.0626 227.425 61.8989 227.553 61.7592C227.681 61.6194 227.836 61.5064 228.008 61.4266C228.18 61.3469 228.366 61.302 228.555 61.2945C228.939 61.2922 229.309 61.4421 229.583 61.7112C229.856 61.9804 230.013 62.347 230.017 62.731Z" fill="#263238"/>
<path d="M241.309 59.0228L237.843 58.5383C237.862 58.3106 237.928 58.0893 238.036 57.888C238.144 57.6867 238.292 57.5097 238.471 57.368C238.651 57.2263 238.857 57.1229 239.078 57.0642C239.299 57.0055 239.529 56.9927 239.755 57.0266C240.221 57.0971 240.641 57.3435 240.93 57.7149C241.219 58.0862 241.355 58.5544 241.309 59.0228Z" fill="#263238"/>
<path d="M229.349 58.7972L226.009 59.9498C225.921 59.7383 225.878 59.5111 225.882 59.2823C225.886 59.0535 225.937 58.828 226.032 58.6196C226.127 58.4113 226.263 58.2247 226.433 58.0714C226.603 57.918 226.802 57.8012 227.019 57.7282C227.471 57.5698 227.966 57.5927 228.4 57.7922C228.835 57.9916 229.175 58.3519 229.349 58.7972Z" fill="#263238"/>
<path d="M240.866 62.2132C240.875 62.4026 240.847 62.5919 240.782 62.7701C240.718 62.9484 240.619 63.1121 240.49 63.2519C240.362 63.3916 240.208 63.5046 240.036 63.5844C239.864 63.6641 239.678 63.7091 239.488 63.7166C239.194 63.7365 238.9 63.6677 238.644 63.5191C238.389 63.3704 238.184 63.1486 238.056 62.8823C237.928 62.6161 237.883 62.3176 237.926 62.0254C237.969 61.7331 238.099 61.4605 238.299 61.2427C238.498 61.025 238.759 60.872 239.046 60.8036C239.333 60.7351 239.635 60.7544 239.911 60.8588C240.187 60.9633 240.426 61.1481 240.596 61.3895C240.767 61.631 240.861 61.9178 240.866 62.2132Z" fill="#263238"/>
<path d="M233.55 59.4153L234.811 69.6046L240.256 67.8257L233.55 59.4153Z" fill="#F0997A"/>
<path d="M229.583 70.8407C229.464 71.1533 229.407 71.4864 229.416 71.8209C229.425 72.1554 229.5 72.4849 229.637 72.7905C229.912 73.4076 230.422 73.8899 231.053 74.1314C231.684 74.3728 232.386 74.3536 233.003 74.0779C233.62 73.8022 234.102 73.2927 234.344 72.6614L229.583 70.8407Z" fill="#B16668"/>
<path d="M230.025 72.1603C230.616 72.1499 231.192 72.3488 231.65 72.7217C232.109 73.0946 232.421 73.6175 232.531 74.1982C232.202 74.2778 231.86 74.2899 231.527 74.2339C231.193 74.1779 230.874 74.0549 230.589 73.8722C230.304 73.6896 230.059 73.4512 229.869 73.1713C229.679 72.8914 229.547 72.5759 229.482 72.2438C229.66 72.199 229.842 72.171 230.025 72.1603Z" fill="#F0997A"/>
<path d="M233.542 84.2957C233.542 84.2957 238.913 88.9561 237.242 93.4828C235.572 98.0096 227.955 98.8865 221.916 94.7106C215.878 90.5346 216.337 85.6738 216.337 85.6738L216.271 84.9388C216.271 84.9388 218.033 86.5591 219.853 87.9371C221.023 88.8141 231.922 93.4327 232.189 94.7774C232.189 94.7774 233.86 91.4951 234.311 90.2673C234.762 89.0396 233.684 85.0474 233.684 85.0474L233.542 84.2957Z" fill="#37474F"/>
<path opacity="0.55" d="M233.542 84.2957C233.542 84.2957 238.913 88.9561 237.242 93.4828C235.572 98.0096 227.955 98.8865 221.916 94.7106C215.878 90.5346 216.337 85.6738 216.337 85.6738L216.271 84.9388C216.271 84.9388 218.033 86.5591 219.853 87.9371C221.023 88.8141 231.922 93.4327 232.189 94.7774C232.189 94.7774 233.86 91.4951 234.311 90.2673C234.762 89.0396 233.684 85.0474 233.684 85.0474L233.542 84.2957Z" fill="white"/>
<path d="M232.206 94.7774C230.485 93.7835 227.069 91.5786 225.457 93.7501C223.846 95.9216 222.693 98.4105 221.449 98.0764C220.204 97.7423 215.602 94.7356 213.982 91.47C213.183 89.8628 212.723 88.109 212.629 86.3169C213.287 85.4906 213.848 84.5909 214.299 83.6359C214.959 82.2495 215.134 80.9466 216.212 80.8464L216.27 84.3208C216.27 84.3208 217.206 86.2668 220.839 87.578C225.658 89.3152 229.851 90.0669 232.206 94.7774Z" fill="#37474F"/>
<path opacity="0.7" d="M232.206 94.7774C230.485 93.7835 227.069 91.5786 225.457 93.7501C223.846 95.9216 222.693 98.4105 221.449 98.0764C220.204 97.7423 215.602 94.7356 213.982 91.47C213.183 89.8628 212.723 88.109 212.629 86.3169C213.287 85.4906 213.848 84.5909 214.299 83.6359C214.959 82.2495 215.134 80.9466 216.212 80.8464L216.27 84.3208C216.27 84.3208 217.206 86.2668 220.839 87.578C225.658 89.3152 229.851 90.0669 232.206 94.7774Z" fill="white"/>
<path d="M232.205 94.7773C233.191 93.8336 233.875 92.2216 235.546 92.6476C237.216 93.0736 239.655 96.7735 239.68 95.8965C239.705 95.0195 238.486 88.764 237.174 86.9349C235.863 85.1058 234.285 81.7734 233.157 81.8736L233.257 85.4566C233.722 86.7448 233.957 88.1045 233.951 89.4739C233.717 90.9605 232.33 93.3324 232.205 94.7773Z" fill="#37474F"/>
<path opacity="0.7" d="M232.205 94.7773C233.191 93.8336 233.875 92.2216 235.546 92.6476C237.216 93.0736 239.655 96.7735 239.68 95.8965C239.705 95.0195 238.486 88.764 237.174 86.9349C235.863 85.1058 234.285 81.7734 233.157 81.8736L233.257 85.4566C233.722 86.7448 233.957 88.1045 233.951 89.4739C233.717 90.9605 232.33 93.3324 232.205 94.7773Z" fill="white"/>
<path d="M219.235 216.682L219.26 182.84L181 162.82L181.818 195.209L219.235 216.682Z" fill="#37474F"/>
<path opacity="0.2" d="M219.235 216.682L219.26 182.84L181 162.82L181.818 195.209L219.235 216.682Z" fill="black"/>
<path opacity="0.2" d="M194.463 169.878L194.012 172.116C194.012 172.726 194.012 173.336 194.012 173.945C194.012 174.947 194.012 175.95 193.953 176.952C193.953 177.177 193.953 177.403 193.953 177.628C193.929 177.849 193.876 178.065 193.795 178.272C193.726 178.599 193.687 178.931 193.678 179.265C193.678 179.608 193.678 179.95 193.678 180.301C193.709 181.674 193.971 183.032 194.454 184.318C194.739 185.236 195.295 186.046 196.05 186.64C196.567 186.991 197.186 187.166 197.72 187.475C198.471 187.969 199.193 188.504 199.883 189.079C200.228 189.362 200.633 189.564 201.066 189.67C201.5 189.775 201.952 189.782 202.389 189.689C202.639 189.613 202.873 189.48 203.124 189.413C203.461 189.356 203.807 189.376 204.135 189.471C204.463 189.566 204.766 189.735 205.02 189.964C205.554 190.382 205.98 190.933 206.498 191.367C206.751 191.615 207.075 191.776 207.425 191.827C207.688 191.825 207.945 191.745 208.163 191.596C208.38 191.447 208.548 191.237 208.644 190.992C208.822 190.485 208.868 189.942 208.778 189.413C208.377 185.429 206.206 181.896 204.744 178.163C204.599 177.821 204.479 177.47 204.385 177.111C204.343 176.927 204.318 176.735 204.285 176.551C204.247 176.338 204.247 176.121 204.285 175.908C204.285 175.858 204.485 175.123 204.56 175.165L194.463 169.878Z" fill="black"/>
<path opacity="0.15" d="M215.869 205.883L217.055 206.476C217.707 206.802 218.249 204.956 218.258 202.358V197.347C218.258 194.741 217.748 192.336 217.097 192.044L215.911 191.459L215.869 205.883Z" fill="black"/>
<path d="M220.004 209.316C220.405 209.524 220.731 208.798 220.714 207.704V205.724C220.714 205.724 223.27 206.985 223.445 202.651C223.62 198.316 220.789 196.612 220.789 196.612C220.789 196.612 220.789 195.669 220.747 194.499C220.706 193.33 220.388 192.186 219.996 191.944L219.277 191.501V208.931L220.004 209.316Z" fill="#263238"/>
<path d="M219.26 206.718C219.26 205.131 219.26 204.463 218.257 203.962C217.105 203.386 216.236 203.043 216.236 203.043V195.326C216.236 195.326 217.681 196.078 218.257 196.353C218.834 196.629 219.26 196.47 219.26 195.243H219.761L219.677 207.328L219.26 206.718Z" fill="#263238"/>
<path d="M215.693 206.05L216.879 206.643C217.531 206.969 218.074 205.123 218.082 202.525V197.514C218.082 194.917 217.573 192.545 216.921 192.219L215.735 191.626L215.693 206.05Z" fill="#37474F"/>
<path d="M187.882 163.864C186.771 158.335 185.618 153.5 184.791 148.664C182.77 136.771 182.729 133.906 183.614 128.878C185.148 119.59 187.456 110.446 190.513 101.542C193.72 91.6871 194.254 91.52 204.135 88.7556C208.478 93.0234 208.252 105.752 205.471 112.659C202.305 122.948 198.121 138.249 198.121 138.249C198.297 140.646 198.397 156.03 199.967 162.946C200.402 164.832 201.513 166.493 203.091 167.614C205.529 169.552 207.5 174.004 208.143 177.027L203.817 174.772C203.634 174.57 203.423 174.396 203.191 174.254C202.414 173.787 202.356 174.605 202.447 175.198C202.568 176.593 202.932 177.955 203.525 179.224C204.018 180.268 204.444 181.337 204.911 182.389L204.986 182.581C205.964 184.811 206.957 187.099 207.083 189.53C207.131 189.801 207.116 190.079 207.041 190.344C206.966 190.609 206.832 190.853 206.648 191.058C206.433 191.209 206.181 191.299 205.919 191.316C205.657 191.334 205.395 191.279 205.162 191.159C204.704 190.904 204.27 190.608 203.867 190.273C203.233 189.821 202.514 189.5 201.754 189.329C201.217 189.255 200.691 189.121 200.184 188.929C199.407 188.561 198.898 187.784 198.155 187.35C197.619 187.088 197.06 186.878 196.484 186.724C195.646 186.435 194.873 185.984 194.21 185.397C193.546 184.809 193.005 184.096 192.617 183.299C190.838 179.382 188.976 174.279 188.667 169.936C188.491 168.074 188.216 165.969 187.882 163.864Z" fill="#FFBDA7"/>
<path d="M198.84 137.581L207.016 110.579C207.016 110.579 211.326 94.3764 204.644 88.3213C198.656 89.9917 195.457 90.2923 192.902 93.75C190.346 97.2077 187.114 110.237 185.652 115.941C185.076 118.188 184.424 121.069 183.831 123.842C182.219 131.183 182.261 133.463 183.055 140.187C183.7 144.991 184.649 149.75 185.894 154.435C185.894 154.435 190.254 151.044 193.62 150.61C196.986 150.176 198.631 151.587 198.631 151.587L198.84 137.581Z" fill="#37474F"/>
<path opacity="0.55" d="M198.84 137.581L207.016 110.579C207.016 110.579 211.326 94.3764 204.644 88.3213C198.656 89.9917 195.457 90.2923 192.902 93.75C190.346 97.2077 187.114 110.237 185.652 115.941C185.076 118.188 184.424 121.069 183.831 123.842C182.219 131.183 182.261 133.463 183.055 140.187C183.7 144.991 184.649 149.75 185.894 154.435C185.894 154.435 190.254 151.044 193.62 150.61C196.986 150.176 198.631 151.587 198.631 151.587L198.84 137.581Z" fill="white"/>
<path opacity="0.35" d="M191.874 145.482C190.368 145.707 188.905 146.167 187.54 146.843C186.46 147.368 185.455 148.034 184.55 148.823C184.633 149.198 184.717 149.558 184.792 149.908C184.859 149.842 184.917 149.758 184.992 149.691C185.984 148.769 187.111 148.003 188.333 147.419C189.634 146.786 191.017 146.338 192.442 146.092C193.748 145.857 195.074 145.75 196.401 145.774C196.401 145.774 196.46 145.699 196.401 145.699C194.921 145.332 193.383 145.258 191.874 145.482Z" fill="#37474F"/>
</svg>
