<?xml version="1.0" encoding="utf-8"?>
<svg viewBox="0 0 178.1 383.4" style="enable-background:new 0 0 178.1 383.4;" xmlns="http://www.w3.org/2000/svg">
  <defs>
    <style type="text/css">.st0{fill:#FFA8A7;}
	.st1{fill:#003366;}
	.st2{opacity:0.35;enable-background:new    ;}
	.st3{opacity:0.45;enable-background:new    ;}
	.st4{opacity:0.7;fill:#FFFFFF;enable-background:new    ;}
	.st5{opacity:0.55;enable-background:new    ;}
	.st6{fill:#455A64;}
	.st7{fill:#263238;}
	.st8{fill:#37474F;}
	.st9{fill:#F28F8F;}
	.st10{opacity:0.1;enable-background:new    ;}
	.st11{opacity:0.5;enable-background:new    ;}
	.st12{opacity:0.8;enable-background:new    ;}
	.st13{opacity:0.3;enable-background:new    ;}
	.st14{opacity:0.2;enable-background:new    ;}
	.st15{opacity:0.6;fill:#003366;enable-background:new    ;}</style>
  </defs>
  <g id="freepik--Character--inject-124" transform="matrix(1.4156489372253416, 0, 0, 1.327949047088623, -340.4560507653685, -131.4969467273126)" style="">
    <g id="freepik--character--inject-124">
      <path d="M362,146.84c-4.86-4.89-6.59-3-7.21,2.38a24.12,24.12,0,0,1-1.62,6.56,12.09,12.09,0,0,0-.91-3.24,2.37,2.37,0,0,0-2.88-1.42c-.48.2.11,1.34,0,3.42-.09,2.66-.95,4.13-.33,7a4.5,4.5,0,0,1-.48,3.11c-2.62,4.85-11,13.83-16.87,20.29l-22.43-20.26c-7.66-6.89-10.15-10-17.55-9.49a19.87,19.87,0,0,1,6.29,3.77c3.43,2.9,2.62,19.5,2.62,19.5s25.45,18.26,28.07,20c.39.26.78.49,1.17.7a6.27,6.27,0,0,0,7.63-1.47c5.43-6.21,13.35-18.43,17.93-24.79a76.92,76.92,0,0,0,5.53-9.64C365.5,154.24,365,149.91,362,146.84Z" style="fill:#ffa8a7"/>
      <path d="M305.31,153.42H281.67a16.93,16.93,0,0,1-16.93-16.93v-7.71A20.81,20.81,0,0,1,285.55,108h0a19.76,19.76,0,0,1,19.76,19.76Z" style="fill:#263238"/>
      <path d="M262.46,356.48a47.87,47.87,0,0,0-.74,7.82c-.09,4.75-1,6.43-1.08,10.33-.13,4.45.63,6.11,2.44,8.61s6.55,4.77,8.55.55,1.75-7,1.1-11.37-.74-7-1.13-10.45c-.33-3-.74-5.33-.74-5.33Z" style="fill:#263238"/>
      <path d="M275.93,319.17l-15.63-.29c.23,10.44,1.89,27.81,2.16,37.6.05,1.85,0,14.33.65,18.12,1,5.7,7.81,4.93,8.17,1.52s-.44-18-.42-19.48c-.06-6.28,2.89-22.67,4.43-33.95C275.36,322.14,275.86,319.71,275.93,319.17Z" style="fill:#ffa8a7"/>
      <path d="M298.91,348.36s-.81.05-.94.71-.18,2-.51,3.3a18.84,18.84,0,0,0-.56,6.19c.27,1.46,3.6,3.63,5.88,4s5.48,2.63,7.26,4.31a17.47,17.47,0,0,0,10.11,4c3.8,0,6.45-1.27,7.7-3.3s-1.14-2.28-5.48-5.1c-1-.64-2.11-1.36-3.37-2.19-6.88-4.49-9.4-6.89-11.34-11.39Z" style="fill:#263238"/>
      <path d="M307.71,345.92c-.11-3.23,1.54-27,1.54-27l-13.44,1.52c3.18,19,3.43,25.44,3.07,28.2h0a2.65,2.65,0,0,0-.08.79c0,3.69,4.17,5.68,7.42,8.14,1.28,1,4.57,4,8.43,5.27,2.5.85,7.12,1.18,7.71-.34-3.95-3-9.32-7-12.46-10.4C308.4,350.41,307.83,349.15,307.71,345.92Z" style="fill:#ffa8a7"/>
      <path d="M263.92,211.25c-7.33,16,.27,72.46.27,72.46-.22,2.6-3.19,7.72-4.3,19.16-1.31,13.52,2.41,49.72,2.41,49.72s3.58,2.67,8.76.18c0,0,9.46-53.18,11.16-66.62,1.48-11.74,4.32-37.54,4.32-37.54l8.07,37.47a70.12,70.12,0,0,0-2.56,11.58c-.76,7.91,6.94,47.6,6.94,47.6s3.6,1.9,8.72-.17c0,0,3.41-51.28,4.13-60.8,1.2-16-3-65.92-6-75.39Z" style="fill:#90CAF9"/>
      <path d="M286.54,248.61l2.38-14.88s10.08-2.08,14.65-6.38c0,0-4.8,6-11.92,7.92L289,246.72l4.67,34.7Z" style="opacity:0.1"/>
      <path d="M276.86,155.58h0c-9.4.65-10.06,5.19-12.41,10.16a16,16,0,0,0-.45,12.12l6.56,19s-3.07,7.42-6.64,14.43c16.45,9.18,37,4.35,41.93-2.35.21-1.42-1.06-12.53-1.84-19.78,2.9-7.27,3.66-11.88,2.44-16.68-2.27-8.92-11.08-17.6-15-17.29Z" style="fill:#37474f"/>
      <path d="M297.36,118.25c3.1,1.7,5.83,6.41,5.55,18.13-.23,9.93-3.45,12.39-5.06,13.09s-4.74.28-7.77-.22v6s4.19,4.87,3.93,7.6-6.05,3.38-10,.71a25.24,25.24,0,0,1-6.44-6.74V142.37s-2.05,2.73-5.39.51-3.48-7.73-1.53-9.7,6.14-1.35,6.92,1.38c0,0,.19-2,1.28-2a25.21,25.21,0,0,0,9.51-2.66C295.75,125.81,296.35,122.31,297.36,118.25Z" style="fill:#ffa8a7"/>
      <path d="M300.43,129.86l-2.77-1.33a1.48,1.48,0,0,1,2-.76A1.62,1.62,0,0,1,300.43,129.86Z" style="fill:#263238"/>
      <path d="M288.39,128.27l-2.6,1.64a1.47,1.47,0,0,1,.42-2.1A1.62,1.62,0,0,1,288.39,128.27Z" style="fill:#263238"/>
      <path d="M277.49,131.82l.17,6.08a3,3,0,0,0,3-3A3.2,3.2,0,0,0,277.49,131.82Z" style="fill:#263238"/>
      <path d="M265.88,111.67,271,115a3,3,0,0,0-.75-4.21A3.2,3.2,0,0,0,265.88,111.67Z" style="fill:#263238"/>
      <path d="M271.66,107.5l-.48,6.06a2.94,2.94,0,0,0,3.32-2.68A3.19,3.19,0,0,0,271.66,107.5Z" style="fill:#263238"/>
      <path d="M289.64,133.5a1.25,1.25,0,1,1-1.32-1.24A1.29,1.29,0,0,1,289.64,133.5Z" style="fill:#263238"/>
      <path d="M291.08,142.3l2.9.93a1.49,1.49,0,0,1-1.88,1A1.61,1.61,0,0,1,291.08,142.3Z" style="fill:#f28f8f"/>
      <path d="M299.85,133a1.26,1.26,0,0,1-1.18,1.35,1.3,1.3,0,1,1,1.18-1.35Z" style="fill:#263238"/>
      <polygon points="293.2 132.26 293.39 139.78 297.35 138.56 293.2 132.26" style="fill:#f28f8f"/>
      <path d="M290.08,149.25c-3.19-.42-9.77-2.31-10.79-4.91a6.75,6.75,0,0,0,2.3,3.32c2,1.68,8.49,3.58,8.49,3.58Z" style="fill:#f28f8f"/>
      <path d="M281.07,213a9.92,9.92,0,0,1-7.4-12.1,3.17,3.17,0,0,1,.17-.52,3.24,3.24,0,0,1,3.33-2.21h0a9.56,9.56,0,0,1-4.11-6.13l-2-11.88a13.83,13.83,0,0,1,.5-5.76L265,166.77l-1.22.85a16.53,16.53,0,0,0,.27,10.24l6.56,19s-3.07,7.42-6.64,14.43c12.13,6.76,26.46,5.92,35.15,2.32A47.67,47.67,0,0,1,281.07,213Z" style="fill:#263238"/>
      <path d="M249,195.22c3.21-13.09,13-39,23.36-38.85,3,3.62,2.19,14.55-2.6,21.19,0,0-10.67,22.51-12.37,30.51-1.5,7-3.19,15.88-3.08,21.92a4.42,4.42,0,0,0,1.18,2.88c1.95,2.11,2,3.81,3.22,6.15,1,1.82,2.07,2.51,1.76,2.92a2.36,2.36,0,0,1-3.2.24,12.6,12.6,0,0,1-2.43-2.33,24.11,24.11,0,0,0,1.93,6.47c2.19,4.94,1.65,7.46-5,5.7-4.18-1.1-6.8-4.58-7.43-14.62a77.9,77.9,0,0,1-.11-11.11A230.22,230.22,0,0,1,249,195.22Z" style="fill:#ffa8a7"/>
    </g>
  </g>
</svg>