<svg width="85" height="80" viewBox="0 0 85 80" version="1.1" xmlns="http://www.w3.org/2000/svg"><g id="Symbols" stroke="none" stroke-width="1" fill="none" fill-rule="evenodd"><g id="Group-30-Copy"><path d="M4.154 52.453c-.673 0-1.08.102-1.488.326v7.805c.326.142.795.224 1.264.224 1.956 0 2.75-1.67 2.75-4.28 0-2.281-.651-4.075-2.526-4.075m-.327 9.883c-1.69 0-2.934-.347-3.626-.795V46.137h2.465v5.318c.53-.245 1.12-.448 2.16-.448 2.547 0 4.32 2.098 4.32 5.379 0 3.689-1.896 5.95-5.319 5.95" id="Fill-1" fill="#3858A4"/><path d="M14.504 62.336c-2.506 0-4.34-2.098-4.34-5.726 0-3.647 1.916-5.664 4.36-5.664 1.345 0 2.14.407 2.548.753l-.53 1.406c-.306-.244-.754-.468-1.468-.468-1.69 0-2.404 1.528-2.404 3.933 0 2.424.836 3.973 2.364 3.973.672 0 1.14-.204 1.488-.49l.57 1.53c-.448.406-1.263.753-2.588.753" id="Fill-3" fill="#3858A4"/><path id="Fill-5" fill="#3858A4" d="M22.637 62.132v-20.19h3.756v17.695h5.576v2.495z"/><path d="M41.682 53.475c-3.375.41-5.459 1.145-5.459 4.02 0 2.055 1.233 2.935 3.316 2.935.822 0 1.615-.176 2.143-.44v-6.515zm-2.377 8.95c-4.314 0-6.456-1.76-6.456-4.812 0-4.167 4.02-5.37 8.833-5.84v-.85c0-2.055-1.291-2.613-3.14-2.613-1.526 0-2.993.5-3.962.969l-.822-2.054c1.028-.5 2.935-1.204 5.43-1.204 3.257 0 5.84 1.379 5.84 5.458v9.802c-1.263.675-3.258 1.145-5.723 1.145z" id="Fill-7" fill="#3858A4"/><path d="M55.973 62.132v-11.21c0-1.291-.587-2.64-2.847-2.64-1.173 0-1.79.175-2.465.439v13.411h-3.579V47.165c1.496-.704 3.522-1.144 6.191-1.144 4.726 0 6.281 2.29 6.281 4.843v11.268h-3.58z" id="Fill-9" fill="#3858A4"/><path d="M70.323 48.399a5.572 5.572 0 00-1.585-.206c-3.11 0-4.166 2.67-4.166 6.016 0 3.58 1.144 5.928 3.903 5.928.85 0 1.437-.089 1.848-.353V48.4zm-1.937 14.027c-4.666 0-7.365-2.994-7.365-8.012 0-5.165 2.817-8.246 6.925-8.246.881 0 1.673.088 2.377.293v-7.365h3.58V61.28c-1.262.704-3.052 1.145-5.517 1.145z" id="Fill-11" fill="#3858A4"/><path id="Fill-13" fill="#3858A4" d="M3.454 68.317v8.167h-1.72v-8.167H0v-1.152h5.201v1.152z"/><path d="M6.542 76.484h1.653v-7.3H6.542v7.3zm.827-8.56c-.502 0-.908-.366-.908-.813 0-.46.406-.826.908-.826.514 0 .907.365.907.826 0 .447-.393.813-.907.813z" id="Fill-15" fill="#3858A4"/><path d="M12.433 76.565c-1.435 0-2.004-.961-2.004-1.977V70.24h-.813v-1.056h.813v-1.612l1.652-.46v2.072h1.193v1.056H12.08v4.266c0 .57.23.949.8.949.149 0 .258-.027.393-.068v1.03c-.15.067-.447.148-.84.148" id="Fill-17" fill="#3858A4"/><path id="Fill-18" fill="#3858A4" d="M14.722 76.484h1.653V65.851h-1.653z"/><path d="M20.71 70.064c-.962 0-1.612.786-1.572 2.533l3.02-.46c0-1.463-.528-2.073-1.448-2.073m-1.477 3.359c.136 1.368.8 2.045 1.99 2.045.841 0 1.45-.203 1.843-.406l.393 1.043c-.515.27-1.3.515-2.411.515-2.072 0-3.386-1.341-3.386-3.806 0-2.385 1.206-3.766 3.115-3.766 1.924 0 2.926 1.273 2.926 3.521v.217l-4.47.637" id="Fill-19" fill="#3858A4"/><path d="M31.566 71.433c-2.031.473-2.952 1.042-2.952 2.383 0 1.097.609 1.747 1.923 1.747.46 0 .786-.054 1.029-.163v-3.967zm1.612-.312v4.957c-.514.325-1.436.542-2.723.542-2.22 0-3.616-.976-3.616-2.71 0-1.381.99-2.262 2.249-2.654v-.027c-1.056-.352-1.653-1.043-1.653-2.018 0-1.26 1.043-2.181 2.695-2.181.895 0 1.68.244 2.113.515l-.487.962a2.596 2.596 0 00-1.287-.34c-.947 0-1.381.461-1.381 1.193 0 .799.69 1.273 1.57 1.273 1.125 0 2.44-.488 3.523-1.057l.487 1.016a9.994 9.994 0 01-1.49.529z" id="Fill-20" fill="#8ABF1C"/><path d="M39.71 76.62c-1.11 0-1.802-.203-2.303-.528l.42-1.207c.325.218.854.434 1.558.434.92 0 1.49-.568 1.49-1.436 0-.704-.407-1.138-1.45-1.57-1.517-.637-1.923-1.64-1.923-2.547 0-1.477 1.07-2.736 2.79-2.736.935 0 1.625.23 2.046.528l-.38 1.056a2.776 2.776 0 00-1.435-.42c-.854 0-1.341.53-1.341 1.355 0 .813.595 1.192 1.408 1.53 1.828.773 2.1 1.802 2.1 2.697 0 1.652-1.247 2.844-2.98 2.844" id="Fill-21" fill="#3858A4"/><path d="M46.496 76.633c-1.95 0-2.831-.853-2.831-2.465v-4.984h1.651v5.079c0 .69.38 1.232 1.234 1.232.474 0 .813-.081 1.097-.243v-6.068h1.652v6.867c-.608.324-1.53.582-2.803.582" id="Fill-22" fill="#3858A4"/><path d="M53.985 70.267c-.555-.19-1.165-.163-1.544.054v6.163H50.79v-6.908c.758-.365 1.678-.568 3.52-.514l-.325 1.205z" id="Fill-23" fill="#3858A4"/><path d="M59.024 76.484h-1.57l-2.385-7.3h1.761l1.286 4.713c.149.528.177 1.003.177 1.003h.026s.04-.461.191-1.003l1.313-4.713h1.545l-2.344 7.3z" id="Fill-24" fill="#3858A4"/><path d="M64.591 70.064c-.961 0-1.612.786-1.571 2.533l3.02-.46c0-1.463-.529-2.073-1.449-2.073m-1.476 3.359c.134 1.368.798 2.045 1.991 2.045.84 0 1.45-.203 1.842-.406l.392 1.043c-.515.27-1.3.515-2.41.515-2.073 0-3.387-1.341-3.387-3.806 0-2.385 1.205-3.766 3.115-3.766 1.923 0 2.926 1.273 2.926 3.521v.217l-4.47.637" id="Fill-25" fill="#3858A4"/><path d="M70.753 79.396h-1.747l1.191-2.912-2.41-7.3h1.76l1.26 4.726c.149.57.149 1.044.149 1.044h.028s.04-.474.203-1.044l1.355-4.726h1.543l-3.332 10.212z" id="Fill-26" fill="#3858A4"/><path d="M36.505.695a1.12 1.12 0 00-.947 1.298l4.219 25.06c.1.593.65 1.002 1.248.926 2.372-.3 4.72-.437 6.98-.408 2.236.028 4.53.215 6.814.554a1.123 1.123 0 001.267-.898l4.82-24.933a1.126 1.126 0 00-.908-1.319C59.79.94 54.816.082 48.355.006c-6.456-.078-11.631.659-11.849.69z" id="Fill-27" fill="#8ABF1C"/><path d="M63.794 8.29l-5.237 19.28a1.12 1.12 0 00.829 1.388 50.33 50.33 0 0112.817 4.915c.517.283 1.167.12 1.486-.377L84.698 16.36a1.121 1.121 0 00-.403-1.591C78.925 11.82 71.224 8.896 65.13 7.49a1.123 1.123 0 00-1.335.8" id="Fill-28" fill="#8ABF1C"/><path d="M30.917 7.49c-6.098 1.406-13.8 4.331-19.168 7.278a1.123 1.123 0 00-.403 1.59l11.01 17.138c.318.496.967.66 1.484.377a50.405 50.405 0 0112.818-4.915 1.122 1.122 0 00.83-1.388L32.252 8.29a1.124 1.124 0 00-1.336-.8" id="Fill-29" fill="#8ABF1C"/></g></g></svg>