<svg width="340" height="340" viewBox="0 0 340 340" fill="none" xmlns="http://www.w3.org/2000/svg">
<path opacity="0.1" d="M76.3297 84.9187C109.82 41.3984 167.705 18.7552 218.902 46.0036C239.516 56.9583 248.752 81.0791 252.965 96.9064C253.344 140.145 265.64 164.748 277.548 179.516C290.947 196.096 303.917 200.201 308.701 217.917C313.861 237.185 306.921 263.464 291.37 277.138C267.21 298.379 234.862 275.907 159.269 266.275C78.8358 256.043 74.6723 277.279 42.1164 253.358C9.60385 229.44 42.8427 128.393 76.3297 84.9187Z" fill="#848484"/>
<path d="M159.366 245.368V71.0379C159.366 66.5519 157.14 65.3156 155.127 64.1712C153.114 63.0267 149.885 62.3344 147.074 63.9593L75.1148 105.534C73.6334 106.5 72.4009 107.802 71.5171 109.334C70.6333 110.866 70.1232 112.584 70.0283 114.35V288.666C70.0283 291.916 72.0629 293.823 74.041 294.968C76.019 296.112 79.4665 297.363 82.2781 295.745L154.265 254.185C155.859 253.344 157.183 252.071 158.085 250.511C158.988 248.951 159.432 247.169 159.366 245.368Z" fill="#37474F"/>
<path d="M154.774 247.014L80.7521 289.747V114.682L71.4906 109.334C70.5723 110.851 70.059 112.578 70 114.35V288.666C70 291.916 72.0346 293.823 74.0126 294.968C75.9907 296.112 79.4381 297.363 82.2498 295.745L154.237 254.185C156.238 253.102 157.795 251.352 158.638 249.239L158.355 249.07L154.774 247.014Z" fill="#263238"/>
<path d="M154.13 69.5402L81.9379 111.221C80.8987 111.9 80.0337 112.814 79.4128 113.889C78.7919 114.964 78.4324 116.17 78.3633 117.409V290.305C78.3633 293.795 80.8429 295.215 83.8594 293.47L154.13 252.906C155.307 252.135 156.287 251.099 156.99 249.881C157.693 248.662 158.1 247.296 158.178 245.891V71.8785C158.178 69.3071 156.355 68.2545 154.13 69.5402Z" fill="#455A64"/>
<path d="M154.653 80.1439V241.765C154.58 243.1 154.194 244.399 153.527 245.558C152.859 246.716 151.928 247.702 150.81 248.434L85.7318 286.01C83.6124 287.239 81.8887 286.25 81.8887 283.792V120.977C82.0069 118.77 82.9738 116.694 84.5873 115.184L84.9476 114.852C85.1949 114.655 85.4571 114.478 85.7318 114.322L104.036 103.725L105.23 103.019C105.887 102.637 106.424 102.941 106.424 103.725C106.424 104.509 106.996 104.778 107.695 104.361L129.03 92.0476C129.395 91.8198 129.701 91.5092 129.923 91.1409C130.145 90.7727 130.277 90.3572 130.309 89.9283C130.34 89.5487 130.452 89.1801 130.635 88.8465C130.819 88.513 131.071 88.222 131.375 87.9926L131.495 87.9219L149.404 77.5583L149.785 77.3323C152.47 75.7852 154.653 77.0497 154.653 80.1439Z" fill="black"/>
<path d="M145.236 244.118C146.357 243.388 147.29 242.404 147.958 241.245C148.626 240.085 149.01 238.785 149.079 237.449V77.7491L131.495 87.8937L131.375 87.9643C131.064 88.2007 130.807 88.5018 130.623 88.8469C130.438 89.1921 130.331 89.573 130.309 89.9636C130.277 90.3925 130.145 90.808 129.923 91.1763C129.701 91.5445 129.395 91.8551 129.03 92.0829L107.695 104.396C106.989 104.813 106.424 104.516 106.424 103.761C106.424 103.005 105.887 102.687 105.23 103.054L104.036 103.761L85.7318 114.357C85.4571 114.513 85.1949 114.69 84.9476 114.887L84.5873 115.219C82.9738 116.729 82.0069 118.805 81.8887 121.012V280.683L145.236 244.118Z" fill="#263238"/>
<path d="M110.939 97.8829L120.716 92.2313C121.302 91.8993 121.775 92.1324 121.775 92.7682C121.75 93.1232 121.64 93.467 121.456 93.7715C121.272 94.076 121.018 94.3326 120.716 94.5202L110.939 100.172C110.352 100.511 109.879 100.271 109.879 99.6419C109.905 99.286 110.014 98.9412 110.198 98.6356C110.382 98.3299 110.636 98.072 110.939 97.8829Z" fill="#263238"/>
<path d="M125.732 88.8756C126.389 88.5012 126.926 88.805 126.926 89.5821C126.902 89.9953 126.781 90.3971 126.574 90.7553C126.366 91.1136 126.078 91.4182 125.732 91.6449C125.075 92.0193 124.545 91.7156 124.545 90.9385C124.567 90.5256 124.686 90.1238 124.892 89.7654C125.098 89.4071 125.386 89.1023 125.732 88.8756Z" fill="#263238"/>
<path d="M76.7105 135.261C76.6873 134.587 76.5049 133.927 76.1784 133.337C75.8518 132.746 75.3902 132.241 74.8314 131.863C74.6462 131.729 74.4282 131.648 74.2006 131.628C73.9729 131.608 73.7442 131.65 73.5386 131.75C73.3054 131.898 72.3729 132.414 72.1257 132.562C71.922 132.716 71.7616 132.92 71.6601 133.154C71.5586 133.388 71.5194 133.644 71.5464 133.898V148.097C71.5697 148.773 71.752 149.433 72.0785 150.025C72.405 150.616 72.8665 151.123 73.4255 151.502C73.6042 151.629 73.8122 151.707 74.0298 151.731C74.2474 151.754 74.4673 151.722 74.6689 151.637C74.9303 151.495 75.884 150.93 76.1242 150.803C76.3319 150.649 76.4954 150.444 76.5984 150.207C76.7013 149.97 76.74 149.71 76.7105 149.454V135.261Z" fill="#455A64"/>
<path d="M75.2986 136.066V150.273C75.2986 151.552 74.4579 152.103 73.4124 151.502C72.8533 151.123 72.3918 150.616 72.0653 150.025C71.7388 149.433 71.5565 148.773 71.5332 148.097V133.912C71.5332 132.633 72.3739 132.082 73.4124 132.683C73.9707 133.059 74.4324 133.561 74.7601 134.149C75.0879 134.737 75.2723 135.394 75.2986 136.066Z" fill="#37474F"/>
<path d="M76.7105 160.121C76.6873 159.447 76.5049 158.787 76.1783 158.197C75.8518 157.606 75.3902 157.101 74.8314 156.723C74.6462 156.589 74.4282 156.508 74.2006 156.488C73.9729 156.468 73.7442 156.51 73.5386 156.61C73.3054 156.758 72.3729 157.274 72.1257 157.422C71.922 157.576 71.7616 157.78 71.6601 158.014C71.5586 158.248 71.5194 158.504 71.5464 158.757V172.957C71.5697 173.632 71.752 174.293 72.0785 174.885C72.405 175.476 72.8665 175.982 73.4255 176.362C73.6042 176.489 73.8122 176.567 74.0298 176.591C74.2474 176.614 74.4673 176.582 74.6689 176.496C74.9303 176.355 75.884 175.79 76.1242 175.663C76.3296 175.511 76.4918 175.307 76.5947 175.073C76.6975 174.839 76.7374 174.582 76.7105 174.328V160.121Z" fill="#455A64"/>
<path d="M75.2986 160.926V175.133C75.2986 176.412 74.4579 176.963 73.4124 176.362C72.8533 175.983 72.3918 175.476 72.0653 174.885C71.7388 174.293 71.5565 173.633 71.5332 172.957V158.758C71.5332 157.479 72.3739 156.928 73.4124 157.528C73.9725 157.906 74.4355 158.41 74.7633 159.001C75.0911 159.592 75.2745 160.251 75.2986 160.926Z" fill="#37474F"/>
<path d="M160.143 79.1267C159.239 78.6039 158.024 78.6746 156.611 79.4658L156.222 79.6989L137.855 90.2957L137.728 90.3734C137.406 90.6156 137.141 90.9249 136.95 91.2799C136.76 91.6349 136.649 92.027 136.626 92.4291C136.59 92.8661 136.454 93.289 136.227 93.6642C136 94.0394 135.689 94.3566 135.319 94.5909L113.419 107.243H113.369C113.379 107.098 113.35 106.953 113.287 106.822C113.224 106.691 113.128 106.578 113.009 106.495L111.744 105.788C111.606 105.723 111.454 105.697 111.302 105.712C111.15 105.727 111.005 105.783 110.883 105.873L109.653 106.579L90.8406 117.466C90.5598 117.631 90.2907 117.815 90.0353 118.017C89.9081 118.123 89.788 118.243 89.6609 118.356C88.007 119.911 87.0154 122.044 86.8916 124.311V291.57C86.8916 292.827 87.3296 293.689 88.0431 294.12L89.3218 294.827C90.0282 295.243 91.0173 295.18 92.1052 294.551L158.963 255.951C160.114 255.199 161.071 254.187 161.757 252.996C162.443 251.806 162.839 250.47 162.912 249.098V83.0828C162.912 81.5004 162.354 80.3842 161.45 79.8614L160.143 79.1267Z" fill="#0279B1"/>
<path opacity="0.3" d="M92.4513 294.035V294.36L92.0769 294.579C91.6798 294.869 91.2127 295.048 90.7235 295.098C90.2343 295.148 89.7407 295.066 89.2935 294.862L88.0148 294.12C87.3083 293.71 86.8633 292.827 86.8633 291.57V124.311C86.9215 122.8 87.3931 121.334 88.2267 120.072L89.7315 120.941C88.9276 122.157 88.4708 123.569 88.4104 125.025V292.298C88.3748 292.976 88.5662 293.647 88.9544 294.205C89.1159 294.409 89.3225 294.572 89.5578 294.682C89.7932 294.793 90.0509 294.847 90.3108 294.841C90.8875 294.816 91.4477 294.641 91.9356 294.332L92.4513 294.035Z" fill="black"/>
<path opacity="0.3" d="M138.611 91.8993C138.333 92.2696 138.173 92.7153 138.152 93.178C138.132 93.7041 137.963 94.2137 137.664 94.6474L136.152 93.7714C136.428 93.3809 136.587 92.9205 136.612 92.4433C136.636 91.9354 136.805 91.4452 137.099 91.0304L138.611 91.8993Z" fill="black"/>
<path d="M90.311 294.841C90.051 294.848 89.7929 294.794 89.5574 294.684C89.3219 294.573 89.1155 294.409 88.9547 294.205C88.5655 293.648 88.374 292.976 88.4107 292.298V125.039C88.538 122.849 89.4986 120.792 91.0952 119.288L91.2153 119.182L91.4625 118.956C91.7033 118.768 91.9557 118.596 92.2184 118.441L111.024 107.582L112.253 106.876C112.376 106.798 112.517 106.751 112.663 106.742C113.016 106.742 113.059 107.159 113.059 107.335C113.041 107.475 113.053 107.617 113.093 107.753C113.134 107.888 113.202 108.013 113.294 108.12C113.386 108.227 113.499 108.314 113.626 108.375C113.754 108.435 113.892 108.469 114.034 108.473C114.302 108.464 114.563 108.384 114.789 108.239L136.689 95.587C137.111 95.3332 137.466 94.982 137.724 94.5629C137.982 94.1437 138.136 93.6688 138.173 93.178C138.196 92.8215 138.296 92.4741 138.465 92.1596C138.635 91.8451 138.87 91.5708 139.155 91.3553C139.187 91.3291 139.223 91.3077 139.261 91.2918L157.628 80.695L158.024 80.4619C158.649 80.0732 159.365 79.854 160.101 79.8261C161.641 79.8261 162.602 81.0836 162.602 83.104V249.119C162.531 250.443 162.149 251.731 161.486 252.879C160.823 254.027 159.898 255.002 158.787 255.725L91.9288 294.325C91.4436 294.635 90.886 294.813 90.311 294.841Z" fill="#FAFAFA"/>
<path d="M160.108 79.8049C159.373 79.8329 158.657 80.052 158.031 80.4407L157.636 80.6739L139.268 91.2706L139.162 91.3342C138.873 91.5512 138.635 91.8286 138.464 92.147C138.294 92.4654 138.194 92.8173 138.173 93.178C138.142 93.6661 137.994 94.1395 137.742 94.5587C137.49 94.9778 137.141 95.3305 136.725 95.587L114.825 108.239C114.599 108.384 114.338 108.464 114.069 108.473C113.928 108.47 113.79 108.437 113.662 108.377C113.535 108.318 113.422 108.231 113.33 108.125C113.238 108.018 113.169 107.893 113.129 107.759C113.088 107.624 113.076 107.482 113.094 107.342C113.094 107.159 113.052 106.742 112.699 106.742C112.553 106.751 112.412 106.798 112.289 106.876L111.06 107.582L92.254 118.441C91.9897 118.596 91.7371 118.771 91.4981 118.963C91.4134 119.034 91.3286 119.105 91.2509 119.182L91.1308 119.288C89.536 120.793 88.5757 122.85 88.4463 125.039V151.078L162.623 108.232V83.0899C162.609 81.0624 161.648 79.8049 160.108 79.8049Z" fill="#0279B1"/>
<g opacity="0.3">
<path d="M160.108 79.8049C159.373 79.8329 158.657 80.052 158.031 80.4407L157.636 80.6739L139.268 91.2706L139.162 91.3342C138.873 91.5512 138.635 91.8286 138.464 92.147C138.294 92.4654 138.194 92.8173 138.173 93.178C138.142 93.6661 137.994 94.1395 137.742 94.5587C137.49 94.9778 137.141 95.3305 136.725 95.587L114.825 108.239C114.599 108.384 114.338 108.464 114.069 108.473C113.928 108.47 113.79 108.437 113.662 108.377C113.535 108.318 113.422 108.231 113.33 108.125C113.238 108.018 113.169 107.893 113.129 107.759C113.088 107.624 113.076 107.482 113.094 107.342C113.094 107.159 113.052 106.742 112.699 106.742C112.553 106.751 112.412 106.798 112.289 106.876L111.06 107.582L92.254 118.441C91.9897 118.596 91.7371 118.771 91.4981 118.963C91.4134 119.034 91.3286 119.105 91.2509 119.182L91.1308 119.288C89.536 120.793 88.5757 122.85 88.4463 125.039V151.078L162.623 108.232V83.0899C162.609 81.0624 161.648 79.8049 160.108 79.8049Z" fill="white"/>
</g>
<path d="M93.765 125.095C93.7733 125.132 93.7733 125.171 93.765 125.208C93.7518 125.24 93.7297 125.267 93.7014 125.286L93.546 125.371C93.5356 125.378 93.5233 125.382 93.5107 125.382C93.4981 125.382 93.4858 125.378 93.4754 125.371C93.4707 125.36 93.4683 125.348 93.4683 125.335C93.4683 125.323 93.4707 125.311 93.4754 125.3V122.609L92.882 123.548C92.8661 123.58 92.8417 123.607 92.8113 123.626C92.8002 123.631 92.7882 123.634 92.776 123.634C92.7638 123.634 92.7517 123.631 92.7407 123.626L92.6559 123.527C92.6485 123.514 92.6445 123.499 92.6445 123.485C92.6445 123.47 92.6485 123.455 92.6559 123.442C92.6567 123.402 92.6689 123.363 92.6912 123.329L93.4824 122.072C93.4956 122.046 93.515 122.024 93.539 122.008L93.5955 121.966L93.7509 121.881C93.7598 121.873 93.771 121.869 93.7827 121.869C93.7943 121.869 93.8056 121.873 93.8145 121.881C93.82 121.892 93.823 121.904 93.823 121.916C93.823 121.929 93.82 121.941 93.8145 121.952L93.765 125.095Z" fill="#FAFAFA"/>
<path d="M95.305 124.205C95.3146 124.24 95.3146 124.276 95.305 124.311C95.2912 124.344 95.2662 124.372 95.2344 124.389L95.086 124.481C95.0755 124.488 95.0633 124.491 95.0507 124.491C95.0381 124.491 95.0258 124.488 95.0154 124.481C95.0092 124.469 95.0059 124.455 95.0059 124.442C95.0059 124.428 95.0092 124.415 95.0154 124.403V121.711L94.4219 122.651C94.4152 122.668 94.4047 122.683 94.3912 122.695C94.3778 122.708 94.3617 122.717 94.3442 122.722C94.3353 122.729 94.3241 122.733 94.3124 122.733C94.3008 122.733 94.2896 122.729 94.2806 122.722L94.1959 122.623C94.1885 122.609 94.1846 122.593 94.1846 122.577C94.1846 122.561 94.1885 122.545 94.1959 122.531C94.198 122.493 94.2102 122.456 94.2312 122.425L94.9377 121.196C94.9552 121.169 94.9766 121.145 95.0012 121.125H95.0577L95.2061 121.033C95.2165 121.026 95.2288 121.023 95.2414 121.023C95.254 121.023 95.2663 121.026 95.2767 121.033C95.2829 121.045 95.2862 121.059 95.2862 121.072C95.2862 121.086 95.2829 121.099 95.2767 121.111L95.305 124.205Z" fill="#FAFAFA"/>
<path d="M96.1746 121.528C96.185 121.521 96.1973 121.517 96.2099 121.517C96.2225 121.517 96.2348 121.521 96.2452 121.528C96.2514 121.54 96.2547 121.553 96.2547 121.567C96.2547 121.58 96.2514 121.593 96.2452 121.605V121.902C96.2548 121.939 96.2548 121.978 96.2452 122.015C96.2294 122.047 96.2049 122.074 96.1746 122.093L95.9273 122.234C95.9169 122.241 95.9046 122.245 95.892 122.245C95.8794 122.245 95.8671 122.241 95.8567 122.234C95.852 122.223 95.8496 122.211 95.8496 122.199C95.8496 122.187 95.852 122.175 95.8567 122.164V121.832C95.8503 121.796 95.8503 121.761 95.8567 121.726C95.8726 121.692 95.8969 121.663 95.9273 121.641L96.1746 121.528ZM96.1746 123.244C96.185 123.237 96.1973 123.234 96.2099 123.234C96.2225 123.234 96.2348 123.237 96.2452 123.244C96.2508 123.255 96.2537 123.267 96.2537 123.28C96.2537 123.292 96.2508 123.304 96.2452 123.315V123.647C96.2549 123.682 96.2549 123.718 96.2452 123.753C96.2293 123.787 96.205 123.816 96.1746 123.838L95.9273 123.979C95.9169 123.986 95.9046 123.99 95.892 123.99C95.8794 123.99 95.8671 123.986 95.8567 123.979C95.8475 123.954 95.8475 123.926 95.8567 123.901V123.576C95.8502 123.539 95.8502 123.501 95.8567 123.463C95.8725 123.431 95.897 123.404 95.9273 123.386L96.1746 123.244Z" fill="#FAFAFA"/>
<path d="M97.0212 122.453C97.0302 122.51 97.0548 122.563 97.0922 122.607C97.1296 122.65 97.1784 122.683 97.2331 122.7C97.3642 122.721 97.498 122.69 97.6075 122.616C97.6904 122.567 97.7664 122.508 97.8336 122.439C97.9064 122.367 97.9705 122.286 98.0244 122.199C98.0783 122.106 98.1187 122.006 98.1444 121.902C98.1786 121.795 98.1953 121.683 98.1939 121.57C98.1979 121.471 98.181 121.372 98.1444 121.28C98.1248 121.217 98.0814 121.164 98.0234 121.133C97.9654 121.101 97.8973 121.093 97.8336 121.111C97.753 121.123 97.6759 121.151 97.6075 121.196C97.5281 121.243 97.4546 121.3 97.3886 121.365C97.3353 121.416 97.2879 121.473 97.2473 121.535L97.1554 121.676C97.1299 121.716 97.0961 121.749 97.0565 121.775L96.8728 121.881C96.8651 121.888 96.855 121.892 96.8446 121.892C96.8342 121.892 96.8241 121.888 96.8163 121.881C96.8163 121.881 96.8163 121.881 96.8163 121.817L96.9294 120.122C96.9204 120.085 96.9204 120.046 96.9294 120.009C96.9452 119.977 96.9696 119.95 97 119.931L98.2928 119.182C98.3033 119.175 98.3156 119.172 98.3281 119.172C98.3407 119.172 98.353 119.175 98.3634 119.182C98.3696 119.194 98.3729 119.208 98.3729 119.221C98.3729 119.235 98.3696 119.248 98.3634 119.26V119.437C98.3731 119.471 98.3731 119.508 98.3634 119.543C98.3475 119.576 98.3232 119.606 98.2928 119.627L97.2261 120.242L97.1978 121.125C97.2486 121.061 97.3054 121.002 97.3674 120.948C97.4471 120.872 97.5375 120.808 97.6358 120.758C97.7449 120.688 97.8678 120.642 97.9961 120.623C98.0985 120.608 98.2031 120.628 98.2928 120.68C98.3857 120.739 98.4574 120.825 98.4977 120.927C98.5503 121.067 98.5743 121.216 98.5683 121.365C98.5701 121.542 98.5463 121.718 98.4977 121.888C98.4494 122.056 98.3806 122.217 98.2928 122.368C98.2101 122.514 98.1105 122.649 97.9961 122.771C97.8896 122.881 97.7683 122.976 97.6358 123.054C97.5282 123.122 97.4081 123.167 97.2826 123.188C97.1882 123.217 97.0873 123.217 96.9929 123.188C96.9064 123.151 96.8344 123.086 96.7881 123.004C96.7334 122.902 96.7066 122.788 96.7104 122.672C96.7046 122.642 96.7046 122.611 96.7104 122.58C96.7235 122.555 96.7429 122.533 96.7669 122.517L96.9364 122.418H96.9929C96.9929 122.418 97.0141 122.418 97.0212 122.453Z" fill="#FAFAFA"/>
<path d="M99.198 121.259C99.209 121.304 99.2256 121.346 99.2475 121.386C99.2695 121.425 99.3045 121.455 99.3464 121.471C99.4044 121.486 99.465 121.486 99.523 121.471C99.6237 121.445 99.7192 121.402 99.8056 121.344C99.8841 121.303 99.9576 121.254 100.025 121.196C100.089 121.128 100.148 121.054 100.201 120.977C100.251 120.892 100.292 120.802 100.321 120.708C100.356 120.611 100.373 120.508 100.371 120.404C100.375 120.322 100.36 120.24 100.328 120.164C100.317 120.139 100.3 120.117 100.28 120.099C100.259 120.08 100.235 120.067 100.208 120.058C100.151 120.041 100.089 120.041 100.032 120.058C99.952 120.081 99.8759 120.114 99.8056 120.157L99.5018 120.334C99.4913 120.341 99.4791 120.345 99.4665 120.345C99.4539 120.345 99.4416 120.341 99.4312 120.334C99.425 120.322 99.4217 120.309 99.4217 120.295C99.4217 120.281 99.425 120.268 99.4312 120.256V120.08C99.4283 120.049 99.4283 120.018 99.4312 119.988L99.4735 119.903L100.138 118.575L99.0779 119.182C99.0675 119.189 99.0552 119.193 99.0426 119.193C99.03 119.193 99.0177 119.189 99.0073 119.182C99.0011 119.17 98.9979 119.157 98.9979 119.143C98.9979 119.13 99.0011 119.117 99.0073 119.105V118.928C98.9977 118.893 98.9977 118.857 99.0073 118.822C99.0211 118.789 99.0461 118.761 99.0779 118.744L100.526 117.904C100.535 117.896 100.546 117.892 100.558 117.892C100.57 117.892 100.581 117.896 100.59 117.904C100.601 117.913 100.611 117.925 100.617 117.938C100.623 117.952 100.626 117.967 100.625 117.981V118.158C100.631 118.188 100.631 118.219 100.625 118.25L100.576 118.363L99.9257 119.67C100.032 119.612 100.146 119.572 100.265 119.55C100.356 119.538 100.448 119.558 100.526 119.606C100.604 119.657 100.663 119.731 100.696 119.818C100.736 119.941 100.755 120.07 100.752 120.2C100.753 120.365 100.729 120.529 100.682 120.687C100.636 120.844 100.569 120.993 100.484 121.132C100.403 121.269 100.306 121.394 100.194 121.507C100.09 121.617 99.9715 121.712 99.8409 121.789C99.7097 121.868 99.5666 121.926 99.417 121.959C99.3169 121.978 99.2132 121.965 99.1203 121.923C99.0442 121.887 98.9839 121.824 98.9508 121.747C98.9103 121.658 98.8886 121.562 98.8872 121.464C98.8787 121.434 98.8787 121.402 98.8872 121.372C98.9003 121.347 98.9198 121.325 98.9437 121.309L99.1133 121.217C99.1172 121.212 99.1221 121.209 99.1276 121.206C99.1331 121.204 99.139 121.203 99.1451 121.203C99.1511 121.203 99.157 121.204 99.1625 121.206C99.168 121.209 99.1729 121.212 99.1768 121.217C99.1868 121.229 99.194 121.244 99.198 121.259Z" fill="#FAFAFA"/>
<path d="M104.927 115.495L103.796 119.359V117.663L102.539 118.37L104.927 115.459M104.927 115.17C104.876 115.169 104.827 115.183 104.785 115.212C104.763 115.225 104.744 115.241 104.729 115.262L102.341 118.165C102.3 118.217 102.277 118.282 102.277 118.349C102.277 118.415 102.3 118.48 102.341 118.532C102.37 118.564 102.405 118.589 102.444 118.606C102.483 118.623 102.525 118.632 102.567 118.631C102.613 118.644 102.662 118.644 102.708 118.631L103.535 118.151V119.338C103.536 119.407 103.561 119.473 103.607 119.524C103.652 119.576 103.714 119.61 103.782 119.62H103.825C103.886 119.62 103.946 119.6 103.996 119.563C104.046 119.526 104.082 119.474 104.1 119.415L105.223 115.579C105.231 115.544 105.231 115.508 105.223 115.473C105.222 115.398 105.192 115.327 105.139 115.273C105.087 115.219 105.016 115.187 104.941 115.184L104.927 115.17Z" fill="#FAFAFA"/>
<path d="M144.177 96.0815L143.562 96.4347V95.2337L144.177 94.8805V96.0815Z" fill="#FAFAFA"/>
<path d="M145.153 95.5163L144.538 95.8766V94.1529L145.153 93.7997V95.5163Z" fill="#FAFAFA"/>
<path d="M146.127 94.9582L145.513 95.3114V92.9378L146.127 92.5845V94.9582Z" fill="#FAFAFA"/>
<path d="M147.103 94.393L146.488 94.7463V91.7509L147.103 91.3906V94.393Z" fill="#0279B1"/>
<path d="M151.383 88.8403C150.688 89.2917 150.127 89.9211 149.758 90.663L150.168 90.9809C150.44 90.4238 150.861 89.9522 151.383 89.6174C151.56 89.489 151.772 89.4164 151.991 89.4088C152.21 89.4013 152.426 89.4591 152.612 89.575L153.015 88.7768C152.767 88.6238 152.48 88.5482 152.189 88.5595C151.898 88.5708 151.617 88.6686 151.383 88.8403ZM150.323 91.108L150.697 91.4047C150.86 91.0896 151.104 90.8237 151.404 90.6347C151.508 90.564 151.631 90.5261 151.757 90.5261C151.883 90.5261 152.006 90.564 152.11 90.6347L152.485 89.9283C152.323 89.8256 152.133 89.7748 151.941 89.7823C151.749 89.7899 151.564 89.8556 151.411 89.9707C150.953 90.2452 150.577 90.6381 150.323 91.108ZM150.888 91.5248L151.397 91.9346L151.92 90.9244C151.843 90.8712 151.752 90.8427 151.658 90.8427C151.565 90.8427 151.474 90.8712 151.397 90.9244C151.174 91.0723 150.997 91.2806 150.888 91.5248Z" fill="#FAFAFA"/>
<path d="M158.801 84.637C159.027 84.5099 159.203 84.637 159.203 84.9408V86.8765C159.202 87.0266 159.165 87.1741 159.095 87.3069C159.025 87.4396 158.924 87.5537 158.801 87.6394L155.346 89.6316C155.127 89.7588 154.95 89.6316 154.95 89.3349V87.3992C154.952 87.25 154.989 87.1032 155.057 86.9707C155.126 86.8381 155.225 86.7236 155.346 86.6363L158.801 84.637ZM158.801 84.4745L155.346 86.4667C155.187 86.5815 155.056 86.732 154.965 86.9062C154.875 87.0804 154.826 87.2735 154.823 87.4699V89.4055C154.823 89.787 155.056 89.9636 155.346 89.8012L158.801 87.8019C158.96 87.6887 159.09 87.5394 159.181 87.3664C159.272 87.1933 159.321 87.0013 159.323 86.8058V84.8701C159.323 84.4816 159.09 84.305 158.801 84.4745Z" fill="#0279B1"/>
<path d="M157.403 87.9926L155.46 89.1159C155.369 89.1653 155.298 89.1159 155.298 88.9958V87.3639C155.298 87.3029 155.313 87.2428 155.341 87.1887C155.37 87.1346 155.41 87.0881 155.46 87.0531L157.403 85.9298C157.495 85.8804 157.566 85.9298 157.566 86.0499V87.6535C157.57 87.7193 157.557 87.7851 157.529 87.8445C157.501 87.9039 157.457 87.955 157.403 87.9926Z" fill="#FAFAFA"/>
<path d="M159.699 86.1488L159.558 86.2265V85.1668L159.699 85.0821C159.777 85.0397 159.833 85.2375 159.833 85.5271C159.86 85.7436 159.812 85.9626 159.699 86.1488Z" fill="#0279B1"/>
<path d="M157.564 102.955C157.354 103.083 157.176 103.258 157.044 103.466C156.913 103.675 156.832 103.911 156.809 104.156C156.809 104.573 157.148 104.721 157.564 104.474C157.777 104.349 157.957 104.176 158.089 103.969C158.222 103.761 158.303 103.525 158.327 103.28C158.327 102.828 157.988 102.715 157.564 102.955ZM157.564 97.1765C157.353 97.3036 157.175 97.4784 157.044 97.687C156.912 97.8956 156.832 98.1321 156.809 98.3774C156.809 98.7942 157.148 98.9355 157.564 98.6953C157.777 98.5706 157.957 98.3974 158.089 98.1899C158.222 97.9824 158.303 97.7465 158.327 97.5014C158.327 97.0776 157.988 96.9363 157.564 97.1765ZM157.564 100.066C157.354 100.193 157.176 100.368 157.044 100.577C156.913 100.785 156.832 101.022 156.809 101.267C156.809 101.684 157.148 101.832 157.564 101.585C157.777 101.46 157.957 101.287 158.089 101.079C158.222 100.872 158.303 100.636 158.327 100.391C158.327 100.002 157.988 99.8256 157.564 100.066Z" fill="#FAFAFA"/>
<path d="M109.265 128.006L110.939 123.167L111.059 122.905C111.111 122.778 111.206 122.672 111.328 122.609L111.928 122.262C111.951 122.243 111.98 122.233 112.01 122.233C112.039 122.233 112.068 122.243 112.091 122.262C112.117 122.285 112.137 122.314 112.149 122.346C112.161 122.378 112.165 122.412 112.162 122.446V130.04C112.161 130.132 112.136 130.222 112.091 130.302C112.058 130.381 112.001 130.448 111.928 130.493L111.222 130.902C111.198 130.921 111.168 130.931 111.137 130.931C111.107 130.931 111.077 130.921 111.052 130.902C111.027 130.88 111.007 130.851 110.994 130.819C110.982 130.787 110.978 130.753 110.982 130.719V126.141L109.837 129.447C109.804 129.54 109.761 129.63 109.71 129.715C109.666 129.805 109.597 129.881 109.512 129.934L109.053 130.196C109.023 130.216 108.987 130.227 108.951 130.227C108.914 130.227 108.879 130.216 108.848 130.196C108.8 130.163 108.759 130.119 108.728 130.069L107.577 128.084V132.683C107.577 132.774 107.552 132.865 107.506 132.944C107.474 133.023 107.417 133.09 107.344 133.135L106.637 133.552C106.612 133.569 106.583 133.578 106.552 133.578C106.522 133.578 106.492 133.569 106.468 133.552C106.442 133.529 106.422 133.5 106.41 133.468C106.397 133.436 106.393 133.402 106.397 133.368V125.802C106.397 125.708 106.421 125.615 106.468 125.533C106.509 125.458 106.567 125.392 106.637 125.343L107.238 124.996C107.351 124.935 107.435 124.935 107.492 124.996L107.612 125.117L109.265 128.006Z" fill="#FAFAFA"/>
<path d="M114.859 128.486L113.114 124.113C113.11 124.088 113.11 124.061 113.114 124.036C113.115 123.944 113.14 123.854 113.185 123.774C113.218 123.695 113.275 123.628 113.348 123.583L114.012 123.202C114.039 123.183 114.071 123.174 114.104 123.174C114.136 123.174 114.168 123.183 114.195 123.202C114.245 123.229 114.283 123.275 114.301 123.329L115.474 126.282L116.647 121.973C116.668 121.885 116.703 121.801 116.753 121.726C116.793 121.643 116.857 121.574 116.936 121.528L117.6 121.146C117.623 121.127 117.652 121.117 117.682 121.117C117.711 121.117 117.74 121.127 117.763 121.146C117.789 121.169 117.809 121.197 117.821 121.229C117.833 121.261 117.838 121.296 117.834 121.33C117.838 121.358 117.838 121.387 117.834 121.415L115.354 130.507C115.333 130.596 115.3 130.681 115.255 130.761C115.208 130.841 115.143 130.909 115.064 130.959L114.407 131.34C114.382 131.358 114.353 131.367 114.323 131.367C114.292 131.367 114.263 131.358 114.238 131.34C114.212 131.317 114.193 131.289 114.181 131.257C114.168 131.225 114.164 131.191 114.167 131.157C114.167 131.121 114.167 131.093 114.167 131.065L114.859 128.486Z" fill="#FAFAFA"/>
<path d="M123.338 119.995L122.575 123.944C122.552 124.065 122.516 124.183 122.469 124.297C122.429 124.392 122.36 124.471 122.272 124.523L121.565 124.933C121.473 124.982 121.41 124.989 121.36 124.933C121.299 124.873 121.262 124.792 121.254 124.707L120.124 117.946C120.124 117.946 120.124 117.875 120.124 117.854C120.124 117.762 120.149 117.672 120.195 117.593C120.232 117.515 120.291 117.448 120.364 117.402L121.014 117.021C121.04 117.007 121.069 117 121.099 117C121.128 117 121.158 117.007 121.184 117.021C121.233 117.021 121.268 117.098 121.29 117.204L122.031 121.761L122.681 118.229C122.705 118.14 122.733 118.053 122.766 117.967C122.809 117.858 122.889 117.768 122.992 117.713L123.699 117.296C123.805 117.233 123.882 117.233 123.925 117.296C123.962 117.345 123.991 117.4 124.009 117.459L124.659 120.221L125.401 114.809C125.409 114.698 125.446 114.591 125.507 114.499C125.546 114.431 125.602 114.375 125.67 114.336L126.327 113.955C126.35 113.937 126.379 113.927 126.408 113.927C126.437 113.927 126.466 113.937 126.489 113.955C126.515 113.977 126.535 114.006 126.547 114.038C126.559 114.07 126.564 114.104 126.56 114.138C126.563 114.171 126.563 114.204 126.56 114.237L125.458 122.305C125.444 122.425 125.411 122.542 125.359 122.651C125.314 122.745 125.243 122.823 125.154 122.877L124.447 123.294C124.356 123.343 124.292 123.343 124.25 123.294C124.192 123.23 124.153 123.152 124.137 123.068L123.338 119.995Z" fill="#FAFAFA"/>
<path d="M127.252 117.049C127.286 116.835 127.34 116.624 127.414 116.42C127.627 115.873 127.946 115.373 128.354 114.951C128.585 114.71 128.849 114.503 129.138 114.336C129.388 114.185 129.663 114.08 129.95 114.025C130.164 113.992 130.382 114.03 130.572 114.131C130.765 114.257 130.908 114.447 130.975 114.668C131.076 114.985 131.124 115.317 131.116 115.65V119.076C131.112 119.17 131.088 119.262 131.045 119.345C131.006 119.422 130.948 119.488 130.876 119.536L130.205 119.917C130.182 119.936 130.153 119.946 130.123 119.946C130.094 119.946 130.065 119.936 130.042 119.917C130.016 119.894 129.997 119.866 129.984 119.834C129.972 119.802 129.968 119.767 129.971 119.733V119.345C129.832 119.664 129.652 119.963 129.435 120.235C129.189 120.539 128.89 120.795 128.552 120.991C128.334 121.119 128.094 121.205 127.845 121.245C127.672 121.274 127.495 121.241 127.343 121.153C127.196 121.057 127.085 120.916 127.026 120.751C126.949 120.535 126.913 120.308 126.92 120.08C126.918 119.543 127.067 119.017 127.351 118.561C127.659 118.07 128.049 117.636 128.502 117.275L129.915 116.116C129.915 115.791 129.83 115.615 129.675 115.572C129.466 115.542 129.254 115.593 129.081 115.714C128.953 115.785 128.838 115.878 128.742 115.989C128.652 116.105 128.571 116.227 128.502 116.357C128.46 116.432 128.411 116.503 128.354 116.569C128.312 116.614 128.264 116.655 128.212 116.689L127.393 117.162C127.37 117.174 127.345 117.18 127.319 117.18C127.293 117.18 127.268 117.174 127.245 117.162C127.259 117.183 127.245 117.134 127.252 117.049ZM128.728 119.514C128.923 119.397 129.101 119.254 129.258 119.091C129.41 118.933 129.543 118.757 129.654 118.568C129.755 118.39 129.833 118.2 129.887 118.003C129.941 117.833 129.969 117.657 129.971 117.48V117.36L128.771 118.335C128.568 118.486 128.391 118.67 128.248 118.879C128.146 119.031 128.092 119.211 128.092 119.394C128.092 119.557 128.156 119.649 128.283 119.649C128.441 119.648 128.596 119.602 128.728 119.514Z" fill="#FAFAFA"/>
<path d="M133.432 117.769C133.432 117.861 133.407 117.951 133.361 118.031C133.324 118.109 133.265 118.175 133.192 118.222L132.521 118.61C132.497 118.628 132.469 118.637 132.439 118.637C132.41 118.637 132.382 118.628 132.358 118.61C132.333 118.589 132.313 118.562 132.3 118.531C132.288 118.5 132.284 118.467 132.288 118.434V110.719C132.288 110.627 132.313 110.537 132.358 110.458C132.391 110.378 132.448 110.312 132.521 110.267L133.227 109.893C133.252 109.875 133.282 109.866 133.312 109.866C133.342 109.866 133.372 109.875 133.397 109.893C133.422 109.915 133.442 109.944 133.455 109.976C133.467 110.008 133.471 110.042 133.467 110.076L133.432 117.769Z" fill="#FAFAFA"/>
<path d="M135.792 116.406C135.792 116.498 135.768 116.588 135.722 116.667C135.689 116.747 135.632 116.813 135.559 116.858L134.888 117.247C134.863 117.264 134.834 117.273 134.803 117.273C134.773 117.273 134.743 117.264 134.719 117.247C134.693 117.226 134.673 117.198 134.661 117.167C134.648 117.137 134.644 117.103 134.648 117.07V109.356C134.649 109.264 134.673 109.174 134.719 109.094C134.756 109.016 134.815 108.95 134.888 108.904L135.559 108.515C135.583 108.497 135.611 108.488 135.64 108.488C135.67 108.488 135.698 108.497 135.722 108.515C135.747 108.538 135.767 108.566 135.78 108.598C135.792 108.63 135.796 108.665 135.792 108.699V116.406Z" fill="#FAFAFA"/>
<path d="M136.761 113.1C136.762 112.206 136.96 111.323 137.34 110.514C137.529 110.128 137.766 109.767 138.046 109.44C138.299 109.136 138.602 108.877 138.944 108.677C139.209 108.505 139.517 108.409 139.834 108.402C140.092 108.398 140.344 108.488 140.54 108.656C140.747 108.848 140.898 109.092 140.978 109.363C141.083 109.706 141.133 110.064 141.127 110.422V110.945C141.126 111.039 141.101 111.131 141.056 111.214C141.019 111.29 140.963 111.356 140.893 111.404L137.948 113.1C137.94 113.248 137.969 113.396 138.032 113.531C138.077 113.628 138.158 113.704 138.258 113.743C138.364 113.776 138.478 113.776 138.583 113.743C138.716 113.71 138.844 113.66 138.965 113.594C139.13 113.499 139.282 113.382 139.417 113.248C139.532 113.142 139.631 113.021 139.714 112.888C139.761 112.812 139.813 112.738 139.869 112.669C139.918 112.616 139.976 112.57 140.039 112.535L140.745 112.132C140.77 112.114 140.799 112.104 140.83 112.104C140.86 112.104 140.89 112.114 140.915 112.132C140.941 112.154 140.96 112.183 140.972 112.215C140.983 112.247 140.985 112.282 140.978 112.316C140.957 112.488 140.912 112.657 140.844 112.817C140.742 113.065 140.614 113.302 140.463 113.524C140.277 113.805 140.064 114.068 139.827 114.308C139.577 114.586 139.286 114.824 138.965 115.014C138.696 115.187 138.387 115.287 138.068 115.304C137.938 115.31 137.809 115.29 137.688 115.245C137.567 115.2 137.456 115.131 137.361 115.043C137.154 114.835 137.006 114.577 136.93 114.294C136.817 113.906 136.76 113.504 136.761 113.1ZM138.922 110.09C138.756 110.18 138.608 110.3 138.484 110.444C138.365 110.573 138.262 110.718 138.181 110.875C138.099 111.02 138.035 111.174 137.99 111.334C137.951 111.473 137.923 111.614 137.905 111.758L139.897 110.606C139.884 110.494 139.862 110.383 139.834 110.274C139.808 110.172 139.751 110.081 139.671 110.013C139.59 109.947 139.486 109.914 139.382 109.921C139.224 109.94 139.073 109.998 138.944 110.09H138.922Z" fill="#FAFAFA"/>
<path d="M143.612 109.999C143.594 110.178 143.644 110.357 143.753 110.5C143.852 110.585 144.036 110.557 144.297 110.401L144.834 110.09C144.859 110.073 144.889 110.064 144.919 110.064C144.949 110.064 144.979 110.073 145.004 110.09C145.03 110.113 145.049 110.142 145.062 110.174C145.074 110.205 145.078 110.24 145.074 110.274V111.051C145.074 111.143 145.049 111.233 145.004 111.313C144.967 111.391 144.908 111.457 144.834 111.503L144.184 111.878C143.633 112.196 143.209 112.266 142.913 112.083C142.616 111.899 142.468 111.433 142.468 110.67V108.141L141.881 108.48C141.856 108.497 141.827 108.506 141.797 108.506C141.766 108.506 141.737 108.497 141.712 108.48C141.688 108.456 141.67 108.427 141.659 108.395C141.647 108.363 141.644 108.329 141.648 108.296V107.526C141.649 107.433 141.671 107.341 141.712 107.258C141.751 107.18 141.809 107.115 141.881 107.067L142.468 106.735V104.82C142.469 104.727 142.49 104.635 142.531 104.552C142.573 104.476 142.631 104.411 142.701 104.361L143.372 103.98C143.396 103.961 143.426 103.951 143.457 103.951C143.487 103.951 143.517 103.961 143.542 103.98C143.566 104.003 143.585 104.032 143.597 104.064C143.609 104.095 143.614 104.129 143.612 104.163V106.078L144.75 105.421C144.773 105.403 144.801 105.393 144.831 105.393C144.86 105.393 144.889 105.403 144.912 105.421C144.938 105.443 144.958 105.471 144.971 105.504C144.983 105.536 144.987 105.57 144.983 105.604V106.374C144.983 106.469 144.958 106.561 144.912 106.643C144.878 106.721 144.821 106.787 144.75 106.834L143.612 107.491V109.999Z" fill="#FAFAFA"/>
<path d="M160.108 80.0804C161.521 80.0804 162.327 81.2037 162.327 83.0828V249.098C162.247 250.37 161.874 251.606 161.237 252.709C160.599 253.812 159.715 254.752 158.653 255.456L91.7947 294.057C91.3486 294.337 90.8376 294.498 90.3112 294.523C89.301 294.523 88.6934 293.682 88.6934 292.262V125.039C88.8202 122.931 89.7446 120.951 91.279 119.5L91.4062 119.387C91.4753 119.317 91.5484 119.251 91.6252 119.189C91.8486 119.004 92.0847 118.834 92.3316 118.681L111.137 107.823L112.367 107.116C112.446 107.062 112.539 107.03 112.635 107.024C112.741 107.024 112.748 107.307 112.748 107.335C112.729 107.512 112.748 107.691 112.802 107.861C112.857 108.03 112.946 108.187 113.064 108.32C113.183 108.453 113.328 108.559 113.49 108.633C113.652 108.707 113.827 108.746 114.005 108.748C114.322 108.742 114.632 108.652 114.903 108.487L136.803 95.8342C137.259 95.5485 137.64 95.1589 137.917 94.6972C138.193 94.2354 138.356 93.7148 138.392 93.178C138.416 92.8663 138.505 92.5632 138.653 92.2882C138.802 92.0131 139.007 91.7724 139.254 91.5814L139.339 91.5319L157.706 80.9352L158.095 80.7092C158.679 80.343 159.349 80.1338 160.038 80.1016M160.038 79.5435C159.249 79.5797 158.484 79.8234 157.819 80.25L157.424 80.476L139.056 91.0728L138.929 91.1505C138.608 91.3934 138.345 91.703 138.155 92.058C137.966 92.4129 137.857 92.8047 137.834 93.2062C137.799 93.6451 137.662 94.0697 137.434 94.4463C137.206 94.8228 136.893 95.1409 136.52 95.375L114.62 108.028C114.435 108.142 114.223 108.208 114.005 108.218C113.589 108.218 113.299 107.907 113.299 107.363C113.299 106.819 113.023 106.495 112.593 106.495C112.398 106.499 112.208 106.555 112.042 106.657L110.812 107.363L92.0067 118.222C91.7287 118.387 91.462 118.571 91.2084 118.773L90.834 119.112C89.1757 120.665 88.1811 122.798 88.0576 125.067V292.297C88.0576 294.092 88.9477 295.123 90.2405 295.123C90.8666 295.099 91.4754 294.911 92.0067 294.579L158.865 255.979C160.015 255.227 160.972 254.215 161.658 253.025C162.344 251.834 162.74 250.499 162.814 249.126V83.1111C162.814 80.8575 161.684 79.5788 160.038 79.5788V79.5435Z" fill="#0279B1"/>
<path d="M304.612 78.6849C299.518 73.8764 297.704 75.7349 297.054 81.0253C296.814 83.2397 296.242 85.4112 295.356 87.4761C295.198 86.3775 294.877 85.3051 294.402 84.29C294.177 83.7443 293.742 83.2978 293.183 83.0392C292.624 82.7805 291.981 82.7285 291.383 82.8937C290.88 83.0904 291.498 84.2114 291.383 86.2567C291.289 88.8724 290.387 90.318 291.037 93.1402C291.267 94.1832 291.088 95.269 290.534 96.1984C287.787 100.968 279.003 109.798 272.849 116.151L249.336 96.2279C241.306 89.4526 238.696 86.3944 230.938 86.8959C233.363 87.7372 235.599 88.9944 237.532 90.6031C241.128 93.4549 240.279 109.778 240.279 109.778C240.279 109.778 266.958 127.734 269.704 129.445C270.113 129.701 270.522 129.927 270.931 130.134C272.243 130.771 273.746 130.976 275.197 130.713C276.649 130.451 277.963 129.738 278.929 128.688C284.621 122.582 292.924 110.565 297.725 104.311C299.899 101.286 301.836 98.1183 303.522 94.8315C308.281 85.9617 307.757 81.7038 304.612 78.6849Z" fill="#FFA8A7"/>
<path d="M245.184 85.1554H220.403C215.696 85.1554 211.182 83.4014 207.853 80.2793C204.525 77.1571 202.655 72.9226 202.655 68.5073V60.9257C202.664 55.5035 204.966 50.3061 209.056 46.4749C213.146 42.6436 218.69 40.4917 224.47 40.4917C229.964 40.4917 235.233 42.5389 239.117 46.1829C243.002 49.8269 245.184 54.7692 245.184 59.9226V85.1554Z" fill="#263238"/>
<path d="M200.265 284.834C199.782 287.373 199.522 289.945 199.489 292.524C199.394 297.195 198.441 298.847 198.357 302.682C198.22 307.058 199.017 308.69 200.914 311.149C202.812 313.607 207.781 315.839 209.877 311.69C211.974 307.54 211.712 304.806 211.03 300.509C210.349 296.212 210.255 293.625 209.846 290.233C209.5 287.283 209.07 284.992 209.07 284.992L200.265 284.834Z" fill="#263238"/>
<path d="M214.386 248.145L198.001 247.86C198.242 258.126 199.982 275.207 200.265 284.834C200.318 286.653 200.265 298.926 200.947 302.652C201.995 308.258 209.134 307.5 209.511 304.147C209.889 300.794 209.05 286.447 209.071 284.992C209.008 278.816 212.101 262.699 213.715 251.607C213.788 251.066 214.312 248.676 214.386 248.145Z" fill="#FFA8A7"/>
<path d="M238.475 276.849C238.475 276.849 237.626 276.899 237.489 277.548C237.353 278.197 237.301 279.514 236.955 280.793C236.401 282.777 236.203 284.834 236.368 286.88C236.651 288.315 240.142 290.449 242.532 290.813C244.922 291.177 248.276 293.399 250.142 295.051C253.139 297.386 256.852 298.764 260.741 298.985C264.724 298.985 267.502 297.736 268.812 295.74C270.123 293.743 267.617 293.498 263.068 290.724C262.019 290.095 260.856 289.387 259.535 288.571C252.323 284.156 249.681 281.796 247.647 277.371L238.475 276.849Z" fill="#263238"/>
<path d="M247.7 274.45C247.585 271.274 249.315 247.9 249.315 247.9L235.226 249.394C238.559 268.078 238.821 274.411 238.444 277.125C238.374 277.378 238.346 277.64 238.36 277.902C238.36 281.53 242.731 283.487 246.138 285.906C247.48 286.889 250.929 289.839 254.975 291.088C257.596 291.924 262.439 292.249 263.058 290.754C258.917 287.804 253.288 283.871 249.996 280.527C248.424 278.865 247.826 277.626 247.7 274.45Z" fill="#FFA8A7"/>
<path d="M201.796 142.022C194.112 157.756 202.079 213.276 202.079 213.276C201.848 215.833 198.735 220.867 197.571 232.117C196.198 245.412 200.098 281.009 200.098 281.009C200.098 281.009 203.851 283.634 209.281 281.186C209.281 281.186 219.198 228.891 220.98 215.675C222.531 204.131 225.508 178.76 225.508 178.76L233.968 215.606C232.732 219.324 231.834 223.134 231.284 226.994C230.488 234.772 238.559 273.801 238.559 273.801C238.559 273.801 242.333 275.669 247.701 273.634C247.701 273.634 251.275 223.208 252.03 213.846C253.288 198.113 248.885 149.024 245.74 139.712L201.796 142.022Z" fill="#90CAF9"/>
<path opacity="0.1" d="M225.508 178.76L228.003 164.128C228.003 164.128 238.57 162.083 243.36 157.854C243.36 157.854 238.328 163.754 230.865 165.643L228.087 176.902L232.982 211.024L225.508 178.76Z" fill="black"/>
<path d="M215.36 87.2794C205.506 87.9186 204.814 92.383 202.35 97.2703C200.532 101.031 200.363 105.312 201.879 109.188L208.756 127.872C208.756 127.872 205.537 135.169 201.795 142.062C219.039 151.089 240.582 146.339 245.75 139.751C245.97 138.355 244.639 127.43 243.821 120.3C246.861 113.151 247.658 108.618 246.379 103.898C243.999 95.1266 234.764 86.5911 230.654 86.8959L215.36 87.2794Z" fill="#37474F"/>
<path d="M236.849 50.571C240.099 52.2427 242.961 56.8743 242.667 68.3991C242.426 78.1638 239.051 80.5828 237.363 81.2712C235.675 81.9595 232.394 81.5465 229.218 81.0548V86.9549C229.218 86.9549 233.61 91.7438 233.338 94.4284C233.065 97.1129 226.995 97.7521 222.855 95.1266C220.185 93.3297 217.896 91.0821 216.104 88.4988V74.2894C216.104 74.2894 213.955 76.9739 210.453 74.7909C206.952 72.6079 206.805 67.1896 208.85 65.2524C210.894 63.3152 215.286 63.9249 216.104 66.6094C216.104 66.6094 216.303 64.6427 217.446 64.6427C220.92 64.3958 224.308 63.5069 227.415 62.027C235.162 58.0051 235.791 54.5634 236.849 50.571Z" fill="#FFA8A7"/>
<path d="M240.068 61.9871L237.165 60.6796C237.247 60.4985 237.366 60.3348 237.517 60.1984C237.668 60.062 237.847 59.9556 238.043 59.8858C238.239 59.816 238.448 59.7841 238.657 59.7921C238.866 59.8001 239.072 59.8479 239.261 59.9324C239.65 60.1132 239.951 60.4269 240.101 60.809C240.251 61.1912 240.239 61.6128 240.068 61.9871Z" fill="#263238"/>
<path d="M227.446 60.4239L224.721 62.0362C224.599 61.8755 224.514 61.6931 224.47 61.5003C224.426 61.3074 224.424 61.1081 224.465 60.9147C224.507 60.7213 224.59 60.5379 224.709 60.3757C224.829 60.2135 224.983 60.076 225.161 59.9717C225.531 59.7587 225.975 59.6868 226.4 59.7709C226.825 59.855 227.199 60.0887 227.446 60.4239Z" fill="#263238"/>
<path d="M216.021 63.915L216.199 69.8938C217.033 69.8938 217.833 69.583 218.422 69.0297C219.012 68.4765 219.344 67.7261 219.344 66.9437C219.311 66.1349 218.948 65.3688 218.329 64.8048C217.71 64.2407 216.883 63.9221 216.021 63.915Z" fill="#263238"/>
<path d="M203.85 44.1005L209.217 47.3751C209.458 47.0559 209.63 46.6949 209.721 46.313C209.812 45.9311 209.821 45.536 209.748 45.1507C209.675 44.7654 209.521 44.3976 209.295 44.0688C209.068 43.7399 208.775 43.4565 208.431 43.2352C207.697 42.7923 206.808 42.635 205.953 42.7965C205.098 42.9581 204.343 43.4258 203.85 44.1005Z" fill="#263238"/>
<path d="M209.909 40L209.406 45.9591C209.821 46.0111 210.243 45.9833 210.646 45.8774C211.049 45.7715 211.425 45.5897 211.75 45.3431C212.076 45.0965 212.345 44.7903 212.54 44.4431C212.735 44.0959 212.853 43.7151 212.887 43.3237C212.943 42.5165 212.665 41.7201 212.11 41.1007C211.555 40.4814 210.767 40.087 209.909 40Z" fill="#263238"/>
<path d="M228.757 65.5667C228.758 65.8072 228.685 66.0428 228.545 66.2444C228.405 66.446 228.206 66.6047 227.971 66.7009C227.736 66.7971 227.476 66.8265 227.223 66.7855C226.971 66.7445 226.737 66.6349 226.55 66.4703C226.363 66.3057 226.232 66.0932 226.172 65.8593C226.113 65.6254 226.128 65.3803 226.216 65.1544C226.303 64.9284 226.46 64.7316 226.666 64.5882C226.871 64.4448 227.117 64.3612 227.373 64.3477C227.728 64.3397 228.073 64.4631 228.331 64.6912C228.59 64.9193 228.743 65.2338 228.757 65.5667Z" fill="#263238"/>
<path d="M230.266 74.2205L233.305 75.1348C233.247 75.3218 233.149 75.496 233.018 75.6472C232.886 75.7983 232.724 75.9233 232.541 76.0149C232.357 76.1064 232.156 76.1627 231.949 76.1804C231.742 76.1981 231.533 76.1768 231.335 76.1179C230.935 75.9854 230.604 75.7166 230.405 75.3651C230.207 75.0135 230.158 74.6049 230.266 74.2205Z" fill="#F28F8F"/>
<path d="M239.46 65.0751C239.473 65.2386 239.451 65.4029 239.395 65.5584C239.34 65.7139 239.252 65.8576 239.137 65.981C239.022 66.1045 238.882 66.2053 238.725 66.2776C238.568 66.3499 238.398 66.3923 238.223 66.4022C237.952 66.4256 237.68 66.3722 237.441 66.2489C237.203 66.1256 237.009 65.9382 236.885 65.7107C236.762 65.4832 236.713 65.2261 236.747 64.9726C236.78 64.7191 236.894 64.4808 237.073 64.2885C237.252 64.0962 237.489 63.9587 237.752 63.8937C238.015 63.8287 238.293 63.8392 238.55 63.9238C238.807 64.0085 239.031 64.1634 239.193 64.3686C239.355 64.5738 239.448 64.8199 239.46 65.0751Z" fill="#263238"/>
<path d="M232.488 64.3477L232.687 71.7425L236.839 70.5428L232.488 64.3477Z" fill="#F28F8F"/>
<path d="M229.218 81.0548C225.874 80.6418 218.976 78.7833 217.907 76.2266C218.337 77.5201 219.178 78.6594 220.318 79.4913C222.415 81.1433 229.218 83.0117 229.218 83.0117V81.0548Z" fill="#F28F8F"/>
<path d="M219.774 143.743C218.424 143.453 217.149 142.912 216.025 142.154C214.901 141.395 213.949 140.433 213.227 139.325C212.504 138.216 212.025 136.984 211.817 135.699C211.609 134.415 211.677 133.104 212.016 131.845C212.06 131.67 212.119 131.499 212.194 131.333C212.434 130.657 212.907 130.076 213.54 129.682C214.173 129.288 214.928 129.104 215.685 129.16C214.577 128.473 213.626 127.587 212.886 126.552C212.146 125.517 211.633 124.355 211.377 123.132L209.28 111.45C209.028 109.549 209.206 107.618 209.804 105.786L202.928 98.2831L201.649 99.1189C200.604 102.419 200.703 105.945 201.932 109.188L208.808 127.872C208.808 127.872 205.59 135.168 201.848 142.062C214.564 148.709 229.586 147.883 238.695 144.343C232.405 145.276 225.982 145.072 219.774 143.743Z" fill="#263238"/>
<path d="M186.155 126.259C189.52 113.387 199.782 87.9087 210.643 88.0562C213.788 91.616 212.938 102.364 207.917 108.893C207.917 108.893 196.732 131.029 194.95 138.895C193.377 145.779 191.606 154.511 191.721 160.45C191.754 161.504 192.193 162.51 192.958 163.282C195.002 165.357 195.055 167.029 196.333 169.33C197.382 171.12 198.503 171.798 198.178 172.201C197.754 172.63 197.173 172.893 196.551 172.937C195.929 172.98 195.312 172.802 194.824 172.437C193.869 171.784 193.013 171.013 192.277 170.146C192.63 172.346 193.311 174.487 194.3 176.508C196.596 181.366 196.03 183.844 189.058 182.114C184.677 181.032 181.93 177.61 181.27 167.737C180.954 164.103 180.915 160.452 181.154 156.812C182.077 146.533 183.748 136.325 186.155 126.259Z" fill="#FFA8A7"/>
</svg>
